<?xml version="1.0" encoding="UTF-8"?>
<svg version="1.1" xmlns="http://www.w3.org/2000/svg" width="1536" height="1024">
<path d="M0 0 C506.88 0 1013.76 0 1536 0 C1536 337.92 1536 675.84 1536 1024 C1029.12 1024 522.24 1024 0 1024 C0 686.08 0 348.16 0 0 Z " fill="#001022" transform="translate(0,0)"/>
<path d="M0 0 C9.02541662 8.1502247 15.07141146 18.2502975 16.23754883 30.49414062 C17.14390088 48.42897529 14.15670758 62.00472384 1.875 75.6875 C-8.41541089 85.52055929 -21.67839501 87.60303038 -35.2578125 87.30859375 C-47.02991798 86.74679624 -57.07762244 81.41114516 -65.1875 72.9375 C-74.67292877 60.93883797 -78.12521587 47.07432055 -77 32 C-75.06969879 19.08806925 -68.92815099 7.06198622 -58.4609375 -0.94140625 C-52.57397529 -4.91303287 -46.92316354 -7.46288554 -40 -9 C-39.01 -9.226875 -38.02 -9.45375 -37 -9.6875 C-23.20972537 -11.12398694 -11.28851055 -8.29487239 0 0 Z " fill="#008CFA" transform="translate(921,480)"/>
<path d="M0 0 C53.0349026 0 53.0349026 0 62.3125 8.9296875 C68.72398195 16.795626 70.66519552 25.0872825 70 35 C68.82888116 43.54530668 64.44211747 49.40039231 58 55 C52.78118162 58 52.78118162 58 49 58 C53.7151183 65.23851954 58.7725192 72.16926118 63.96484375 79.0703125 C67.32168105 83.57534905 70.33402142 88.05268652 73 93 C65.74738572 94.13261595 58.13876773 95.11245279 51 93 C45.16421029 88.62006745 42.19584497 81.37336814 39 75 C37.60184158 72.42181018 36.11422332 69.92534259 34.5625 67.4375 C33.98628906 66.40496094 33.41007812 65.37242187 32.81640625 64.30859375 C28.92454249 60.66895946 28.92454249 60.66895946 17 61 C17 71.56 17 82.12 17 93 C11.39 93 5.78 93 0 93 C0 62.31 0 31.62 0 0 Z " fill="#008CFA" transform="translate(421,472)"/>
<path d="M0 0 C54.39664804 0 54.39664804 0 64 9 C70.74670718 16.18911421 72.63250316 25.34130611 72.34765625 34.9765625 C71.40750979 43.15266764 68.33737527 50.60648913 62 56 C54.78892762 61.07358838 48.24459902 64.27747339 39.2890625 64.1953125 C37.60611084 64.18781982 37.60611084 64.18781982 35.88916016 64.18017578 C33.77840088 64.15286377 33.77840088 64.15286377 31.625 64.125 C27.12875 64.08375 22.6325 64.0425 18 64 C18 73.57 18 83.14 18 93 C12.06 93 6.12 93 0 93 C0 62.31 0 31.62 0 0 Z " fill="#008DFB" transform="translate(332,472)"/>
<path d="M0 0 C6.765 -0.0825 13.53 -0.165 20.5 -0.25 C22.61986328 -0.28641602 24.73972656 -0.32283203 26.92382812 -0.36035156 C28.62629182 -0.37204691 30.3287668 -0.38223673 32.03125 -0.390625 C32.89717773 -0.41108887 33.76310547 -0.43155273 34.65527344 -0.45263672 C41.71514872 -0.45664346 47.0078747 1.27988609 52.27734375 6.0703125 C52.82519531 6.74835937 53.37304688 7.42640625 53.9375 8.125 C54.50339844 8.80820312 55.06929687 9.49140625 55.65234375 10.1953125 C58.38351562 13.85270787 58.22804605 16.71615618 58.3125 21.25 C58.36857422 23.20679688 58.36857422 23.20679688 58.42578125 25.203125 C57.83192453 30.49880141 55.80898415 33.49251321 51.75 36.875 C51.1725 37.24625 50.595 37.6175 50 38 C50.53109375 38.3403125 51.0621875 38.680625 51.609375 39.03125 C56.78959016 42.58555821 60.3846872 45.79114143 62 52 C62.91889489 59.6478856 62.82498484 66.71108787 58 73 C52.76367482 78.23632518 47.44387127 81.10800566 40.07446289 81.34057617 C38.20712673 81.33983448 36.33974148 81.32358988 34.47265625 81.29296875 C33.59508667 81.28994751 32.71751709 81.28692627 31.81335449 81.28381348 C28.5629485 81.26822232 25.31271133 81.22633893 22.0625 81.1875 C11.1415625 81.0946875 11.1415625 81.0946875 0 81 C0 54.27 0 27.54 0 0 Z " fill="#008CFA" transform="translate(493,600)"/>
<path d="M0 0 C15 0 15 0 18.8125 3.125 C19.91633225 4.72221182 20.97428706 6.35153277 22 8 C23.10421883 9.53744338 24.20912477 11.07442986 25.32421875 12.60400391 C26.61303507 14.38222485 27.87804416 16.17572647 29.140625 17.97265625 C32.29937263 22.44680619 35.55434605 26.84797359 38.8125 31.25 C43.66008445 37.8082615 48.47534653 44.3884247 53.25 51 C53.79889893 51.75958008 54.34779785 52.51916016 54.91333008 53.30175781 C56.98640458 56.17717493 59.03331923 59.04997884 61 62 C61.33 41.54 61.66 21.08 62 0 C67.94 0 73.88 0 80 0 C80 30.69 80 61.38 80 93 C62 93 62 93 58.07421875 90.1328125 C56.8125 88.2265625 56.8125 88.2265625 55.6875 86.125 C54.74437115 84.64787426 53.80032623 83.1713331 52.85546875 81.6953125 C52.39188965 80.92219727 51.92831055 80.14908203 51.45068359 79.35253906 C49.01998772 75.4107374 46.24322675 71.72754915 43.5 68 C42.41291758 66.49040715 41.32697672 64.97999158 40.2421875 63.46875 C36.63772193 58.47761767 32.94600549 53.55378469 29.22070312 48.65234375 C25.33443722 43.51870291 21.70224686 38.28892409 18 33 C17.67 52.8 17.34 72.6 17 93 C11.39 93 5.78 93 0 93 C0 62.31 0 31.62 0 0 Z " fill="#008DFC" transform="translate(955,472)"/>
<path d="M0 0 C5.32492625 3.66852957 10.19098222 8.78934788 12.6875 14.8125 C12.6875 15.8025 12.6875 16.7925 12.6875 17.8125 C10.58665791 18.81946568 8.48170511 19.8178589 6.375 20.8125 C5.20324219 21.369375 4.03148437 21.92625 2.82421875 22.5 C-0.3125 23.8125 -0.3125 23.8125 -3.3125 23.8125 C-3.910625 22.905 -4.50875 21.9975 -5.125 21.0625 C-8.07094819 16.68566269 -11.33308035 14.47230655 -16.3125 12.8125 C-22.60283751 12.29900306 -27.91353959 12.16820172 -33.3125 15.8125 C-33.93125 16.225 -34.55 16.6375 -35.1875 17.0625 C-37.08201984 20.00953087 -36.72902121 22.42082732 -36.3125 25.8125 C-33.30492605 29.75576363 -29.80274203 30.91469926 -25.1875 32.1875 C-23.75743995 32.61202829 -22.32776689 33.03786188 -20.8984375 33.46484375 C-19.77840332 33.79331299 -19.77840332 33.79331299 -18.63574219 34.12841797 C7.59905038 41.85329069 7.59905038 41.85329069 13.6875 52.8125 C15.94608631 59.58825894 15.83350113 69.04464024 13.25 75.75 C9.50504337 82.66577357 3.55629848 87.42106783 -3.6875 90.3125 C-15.80127723 93.80685882 -30.47656258 93.462231 -41.6953125 87.55859375 C-48.44446117 83.47123803 -54.15166706 77.5914986 -56.3125 69.8125 C-56.3125 68.4925 -56.3125 67.1725 -56.3125 65.8125 C-54.25659546 64.94257846 -52.19244664 64.09212311 -50.125 63.25 C-48.97644531 62.77433594 -47.82789063 62.29867187 -46.64453125 61.80859375 C-43.23157872 60.788309 -41.59634885 60.47788763 -38.3125 61.8125 C-37.1953125 63.51953125 -37.1953125 63.51953125 -36.4375 65.625 C-34.8253831 69.11896542 -33.3092087 71.43922394 -29.6953125 73.18359375 C-22.61078304 75.05344497 -14.05444032 75.3210738 -7.4375 71.875 C-4.6184858 69.70510091 -3.63388631 67.78862833 -2.9375 64.3125 C-2.51384371 62.05984034 -2.51384371 62.05984034 -3.3125 59.8125 C-8.49505506 53.65228346 -16.03548138 52.69053868 -23.5625 50.875 C-44.89802572 45.69783849 -44.89802572 45.69783849 -51.9375 36.5 C-55.71773301 29.40263945 -55.32269555 21.58560775 -54.3125 13.8125 C-53.21610969 10.44823383 -51.78285364 8.31874256 -49.3125 5.8125 C-48.70792969 5.17957031 -48.10335937 4.54664063 -47.48046875 3.89453125 C-35.08358382 -7.96442179 -14.58833656 -8.30413004 0 0 Z " fill="#008CFA" transform="translate(777.3125,475.1875)"/>
<path d="M0 0 C20.46 0 40.92 0 62 0 C62 5.61 62 11.22 62 17 C47.15 17 32.3 17 17 17 C17 24.26 17 31.52 17 39 C30.86 39 44.72 39 59 39 C59 44.28 59 49.56 59 55 C45.14 55 31.28 55 17 55 C17 62.26 17 69.52 17 77 C31.85 77 46.7 77 62 77 C62 82.28 62 87.56 62 93 C41.54 93 21.08 93 0 93 C0 62.31 0 31.62 0 0 Z " fill="#008EFB" transform="translate(511,472)"/>
<path d="M0 0 C4.86854848 4.06069829 9.05595048 8.34118831 12 14 C12 14.99 12 15.98 12 17 C9.92426919 18.20284401 7.84116905 19.38705701 5.75 20.5625 C5.16347656 20.90474609 4.57695313 21.24699219 3.97265625 21.59960938 C-0.3949158 24.02876461 -0.3949158 24.02876461 -3.30078125 23.890625 C-6.11463092 22.41577965 -7.30245424 19.62347981 -9 17 C-15.43365283 11.06124354 -21.10018084 10.61265957 -29.61328125 10.74609375 C-35.87651699 11.21565583 -40.52347457 13.52347457 -45 18 C-51.74976801 28.33439057 -52.33847812 38.88095356 -51 51 C-48.82836781 58.49213104 -44.78589992 64.92552878 -38 69 C-31.51397591 72.18767054 -23.49524267 72.13458202 -16.5546875 70.3828125 C-11.10517231 67.9679293 -7.59565804 63.62940972 -4 59 C-0.20950293 60.42749981 3.27122456 62.16236542 6.8125 64.125 C7.78832031 64.66382813 8.76414062 65.20265625 9.76953125 65.7578125 C10.50558594 66.16773438 11.24164062 66.57765625 12 67 C8.64562461 76.30516634 1.7013253 81.76156992 -7 86 C-16.8110753 90.55330115 -30.19335595 90.65224994 -40.5625 87.8125 C-42.06076901 87.25739519 -43.54209826 86.65381489 -45 86 C-45.76441406 85.6596875 -46.52882813 85.319375 -47.31640625 84.96875 C-59.13397589 79.04996724 -65.36793208 69.02599427 -70 57 C-71.373983 51.51925013 -71.21961146 45.87187949 -71.25 40.25 C-71.270625 39.3115625 -71.29125 38.373125 -71.3125 37.40625 C-71.38476435 24.32640176 -66.7256472 13.82216735 -57.875 4.25 C-41.58442562 -11.24524331 -18.45379042 -11.56731617 0 0 Z " fill="#008CFA" transform="translate(658,478)"/>
<path d="M0 0 C6.27 0 12.54 0 19 0 C23.21597143 11.05460562 27.42861349 22.11046195 31.63604736 33.1683197 C33.80728336 38.87289853 35.98419236 44.57526104 38.16696167 50.2754364 C39.47212244 53.68606121 40.77333287 57.09818404 42.07366943 60.51065063 C42.69026961 62.12605209 43.30863239 63.74078187 43.92877197 65.35482788 C44.79040753 67.59812372 45.64591233 69.8436655 46.5 72.08984375 C46.755466 72.75042786 47.01093201 73.41101196 47.2741394 74.09161377 C48.33329316 76.8939668 49 78.97350962 49 82 C43.72 82 38.44 82 33 82 C28 70.375 28 70.375 28 67 C15.79 67 3.58 67 -9 67 C-9.33 68.98 -9.66 70.96 -10 73 C-10.89779584 76.04227192 -11.95551491 79.0027819 -13 82 C-18.61 82 -24.22 82 -30 82 C-27.36304338 72.64908998 -24.00193371 63.60213867 -20.625 54.5 C-20.00826566 52.83123043 -19.39156696 51.16244768 -18.77490234 49.49365234 C-12.64849167 32.94539721 -6.3457306 16.4651681 0 0 Z " fill="#008CF9" transform="translate(429,599)"/>
<path d="M0 0 C7.38254174 4.7852177 11.48969607 11.52677599 13.94140625 19.7734375 C15.16483438 30.29491938 13.33782307 39.40324375 8.50390625 48.8984375 C2.66103384 55.55281996 -3.17708511 58.81576701 -11.93359375 59.67578125 C-19.29742819 59.99539212 -25.78735427 58.33680049 -31.55859375 53.6484375 C-39.09026034 46.53423049 -41.83260297 38.21427327 -42.18359375 28.0234375 C-41.91508472 18.51374255 -39.14289544 11.02051738 -32.55078125 4.1171875 C-23.59460326 -4.10233516 -11.01543461 -5.11754952 0 0 Z " fill="#001022" transform="translate(904.74609375,490.5390625)"/>
<path d="M0 0 C4.29 0 8.58 0 13 0 C13 9.9 13 19.8 13 30 C24.22 30 35.44 30 47 30 C47 20.1 47 10.2 47 0 C51.29 0 55.58 0 60 0 C60 23.76 60 47.52 60 72 C55.71 72 51.42 72 47 72 C47 62.43 47 52.86 47 43 C35.78 43 24.56 43 13 43 C13 52.57 13 62.14 13 72 C8.71 72 4.42 72 0 72 C0 48.24 0 24.48 0 0 Z " fill="#008CFB" transform="translate(406,363)"/>
<path d="M0 0 C15.18 0 30.36 0 46 0 C46 3.96 46 7.92 46 12 C35.11 12 24.22 12 13 12 C13 18.27 13 24.54 13 31 C23.23 31 33.46 31 44 31 C44 34.96 44 38.92 44 43 C33.77 43 23.54 43 13 43 C13 48.61 13 54.22 13 60 C24.22 60 35.44 60 47 60 C47 63.96 47 67.92 47 72 C31.49 72 15.98 72 0 72 C0 48.24 0 24.48 0 0 Z " fill="#008FFC" transform="translate(486,363)"/>
<path d="M0 0 C4.95 0 9.9 0 15 0 C15 21.78 15 43.56 15 66 C27.87 66 40.74 66 54 66 C54 70.95 54 75.9 54 81 C36.18 81 18.36 81 0 81 C0 54.27 0 27.54 0 0 Z " fill="#008DFA" transform="translate(333,600)"/>
<path d="M0 0 C5.94 0 11.88 0 18 0 C18 30.69 18 61.38 18 93 C12.06 93 6.12 93 0 93 C0 62.31 0 31.62 0 0 Z " fill="#008DFD" transform="translate(810,472)"/>
<path d="M0 0 C5.94 0 11.88 0 18 0 C18 30.69 18 61.38 18 93 C12.06 93 6.12 93 0 93 C0 62.31 0 31.62 0 0 Z " fill="#008DFE" transform="translate(687,472)"/>
<path d="M0 0 C18.48 0 36.96 0 56 0 C56 4.29 56 8.58 56 13 C49.07 13 42.14 13 35 13 C35 32.47 35 51.94 35 72 C30.38 72 25.76 72 21 72 C21 52.2 21 32.4 21 12 C14.07 12 7.14 12 0 12 C0 8.04 0 4.08 0 0 Z " fill="#008DFA" transform="translate(333,363)"/>
<path d="M0 0 C3.980625 -0.0825 7.96125 -0.165 12.0625 -0.25 C13.30394775 -0.28641602 14.54539551 -0.32283203 15.82446289 -0.36035156 C23.63709878 -0.43858518 28.16931536 0.28682103 33.91015625 5.8515625 C36.26534184 10.49440147 35.56457121 15.95649715 35 21 C32.83942774 25.64122929 30.52336258 27.73972861 26 30 C23.0456543 30.34057617 23.0456543 30.34057617 19.82421875 30.29296875 C18.25933716 30.28172974 18.25933716 30.28172974 16.6628418 30.27026367 C15.350979 30.24295166 14.03911621 30.21563965 12.6875 30.1875 C8.500625 30.125625 4.31375 30.06375 0 30 C0 20.1 0 10.2 0 0 Z " fill="#001021" transform="translate(350,489)"/>
<path d="M0 0 C5.6925 -0.12375 5.6925 -0.12375 11.5 -0.25 C12.68013672 -0.28641602 13.86027344 -0.32283203 15.07617188 -0.36035156 C21.87376663 -0.43149452 26.25283173 0.28716816 32 4 C35.05056084 8.28985119 35.55666413 11.80446811 35 17 C33.48310071 21.55069788 31.524746 23.88240526 27.30249023 26.19067383 C22.41226005 27.90959155 17.17650723 27.40001176 12.0625 27.25 C8.081875 27.1675 4.10125 27.085 0 27 C0 18.09 0 9.18 0 0 Z " fill="#000F1F" transform="translate(438,489)"/>
<path d="M0 0 C3.66792492 -0.13573735 7.330764 -0.23447858 11 -0.3125 C12.02996094 -0.35439453 13.05992187 -0.39628906 14.12109375 -0.43945312 C20.98147129 -0.54869481 25.78133577 0.32196794 31 5 C32.60964787 8.21929573 32.60686242 11.51887712 32 15 C29.46546343 18.21954645 27.88702695 19.70432435 24 21 C22.15389468 21.08239169 20.30494836 21.10743359 18.45703125 21.09765625 C17.38388672 21.09443359 16.31074219 21.09121094 15.20507812 21.08789062 C14.08552734 21.07951172 12.96597656 21.07113281 11.8125 21.0625 C10.68134766 21.05798828 9.55019531 21.05347656 8.38476562 21.04882812 C5.58982124 21.03703511 2.79490401 21.01909957 0 21 C0 14.07 0 7.14 0 0 Z " fill="#001021" transform="translate(508,646)"/>
<path d="M0 0 C3.54295358 -0.13534203 7.08070854 -0.23428424 10.625 -0.3125 C11.62402344 -0.35439453 12.62304688 -0.39628906 13.65234375 -0.43945312 C21.99840865 -0.57763301 21.99840865 -0.57763301 25.671875 2.3359375 C28 5 28 5 28.625 7.9375 C27.85441099 11.71338617 26.3778462 13.99272392 24 17 C21.49502996 18.25248502 19.79146726 18.11374406 16.9921875 18.09765625 C16.00605469 18.09443359 15.01992188 18.09121094 14.00390625 18.08789062 C12.97136719 18.07951172 11.93882812 18.07113281 10.875 18.0625 C9.31458984 18.05573242 9.31458984 18.05573242 7.72265625 18.04882812 C5.14841313 18.03701967 2.57419947 18.01908385 0 18 C0 12.06 0 6.12 0 0 Z " fill="#000F1F" transform="translate(508,614)"/>
<path d="M0 0 C2.62623739 2.62623739 3.32094803 5.16261204 4.6015625 8.65234375 C4.8428891 9.30828018 5.0842157 9.96421661 5.33285522 10.64002991 C5.84148649 12.02684726 6.34732913 13.4146901 6.85058594 14.8034668 C7.62175712 16.92856369 8.40394892 19.04936295 9.1875 21.16992188 C9.6803539 22.51798572 10.17256312 23.86628547 10.6640625 25.21484375 C11.11217285 26.44323975 11.5602832 27.67163574 12.02197266 28.93725586 C13 32 13 32 13 35 C4.75 35 -3.5 35 -12 35 C-8.62045848 22.60834775 -8.62045848 22.60834775 -6.9921875 17.9296875 C-6.64542969 16.93195312 -6.29867188 15.93421875 -5.94140625 14.90625 C-5.58949219 13.9059375 -5.23757813 12.905625 -4.875 11.875 C-4.51535156 10.83601562 -4.15570313 9.79703125 -3.78515625 8.7265625 C-1.13051748 1.13051748 -1.13051748 1.13051748 0 0 Z " fill="#001022" transform="translate(438,617)"/>
<path d="M0 0 C5.94 0 11.88 0 18 0 C18 30.69 18 61.38 18 93 C12.06 93 6.12 93 0 93 C0 86.73 0 80.46 0 74 C0.33 74 0.66 74 1 74 C1 79.94 1 85.88 1 92 C5.95 92 10.9 92 16 92 C16 62.3 16 32.6 16 2 C11.05 2 6.1 2 1 2 C1.08378906 3.18722656 1.16757812 4.37445313 1.25390625 5.59765625 C2.5958884 28.04848088 1.61483861 50.53678076 1 73 C0.67 73 0.34 73 0 73 C0 48.91 0 24.82 0 0 Z " fill="#008CEC" transform="translate(810,472)"/>
<path d="M0 0 C5.94 0 11.88 0 18 0 C18 30.69 18 61.38 18 93 C12.39 93 6.78 93 1 93 C1 92.67 1 92.34 1 92 C5.95 92 10.9 92 16 92 C16 62.3 16 32.6 16 2 C11.38 2 6.76 2 2 2 C2 22.46 2 42.92 2 64 C1.67 64 1.34 64 1 64 C0.67 42.88 0.34 21.76 0 0 Z " fill="#0084E5" transform="translate(1017,472)"/>
<path d="M0 0 C5.94 0 11.88 0 18 0 C18 30.69 18 61.38 18 93 C12.39 93 6.78 93 1 93 C1 92.67 1 92.34 1 92 C5.95 92 10.9 92 16 92 C16 62.3 16 32.6 16 2 C10.72 2 5.44 2 0 2 C0 1.34 0 0.68 0 0 Z " fill="#0085E4" transform="translate(687,472)"/>
<path d="M0 0 C1.44826172 -0.02126953 1.44826172 -0.02126953 2.92578125 -0.04296875 C5.73952245 0.19184134 7.24251904 0.86881087 9.6875 2.1875 C9.71062484 11.68824325 9.7284158 21.18897688 9.73931217 30.68974209 C9.74454069 35.10087004 9.75163777 39.5119788 9.76293945 43.9230957 C9.77376944 48.17651115 9.77977707 52.42990809 9.78237724 56.68333626 C9.78423129 58.30971633 9.78785152 59.93609534 9.79323006 61.56246758 C9.80044198 63.83260193 9.80149088 66.10265885 9.80102539 68.37280273 C9.803246 69.66741928 9.80546661 70.96203583 9.80775452 72.29588318 C9.6875 75.1875 9.6875 75.1875 8.6875 76.1875 C6.33436445 76.26021741 3.97916332 76.27120868 1.625 76.25 C-0.31052734 76.23646484 -0.31052734 76.23646484 -2.28515625 76.22265625 C-3.28417969 76.21105469 -4.28320312 76.19945312 -5.3125 76.1875 C-1.3125 74.1875 -1.3125 74.1875 7.6875 74.1875 C7.6875 50.4275 7.6875 26.6675 7.6875 2.1875 C3.3975 2.1875 -0.8925 2.1875 -5.3125 2.1875 C-5.3125 11.7575 -5.3125 21.3275 -5.3125 31.1875 C-5.6425 31.1875 -5.9725 31.1875 -6.3125 31.1875 C-6.33715622 26.93335377 -6.35533899 22.67924502 -6.36743164 18.42504883 C-6.37247101 16.97679927 -6.37930253 15.52855483 -6.38793945 14.08032227 C-6.40002247 12.00275412 -6.40573211 9.92525303 -6.41015625 7.84765625 C-6.41539307 6.59605713 -6.42062988 5.34445801 -6.42602539 4.05493164 C-6.23423108 -0.78942141 -4.36120457 0.02888215 0 0 Z " fill="#000917" transform="translate(458.3125,360.8125)"/>
<path d="M0 0 C0.33 0 0.66 0 1 0 C1 23.76 1 47.52 1 72 C16.51 72 32.02 72 48 72 C48 68.04 48 64.08 48 60 C36.78 60 25.56 60 14 60 C14 59.67 14 59.34 14 59 C25.55 59 37.1 59 49 59 C49 63.62 49 68.24 49 73 C48 74 48 74 46.01951599 74.12025452 C45.15125687 74.11803391 44.28299774 74.11581329 43.38842773 74.11352539 C42.3937146 74.11340454 41.39900146 74.11328369 40.37414551 74.11315918 C39.32126343 74.10804321 38.26838135 74.10292725 37.18359375 74.09765625 C36.22134888 74.09664917 35.259104 74.09564209 34.2677002 74.09460449 C30.65762142 74.0893546 27.04755957 74.07539348 23.4375 74.0625 C15.373125 74.041875 7.30875 74.02125 -1 74 C-0.67 49.58 -0.34 25.16 0 0 Z " fill="#001C3E" transform="translate(485,363)"/>
<path d="M0 0 C4.29 0 8.58 0 13 0 C13 23.76 13 47.52 13 72 C8.71 72 4.42 72 0 72 C0 63.09 0 54.18 0 45 C0.33 45 0.66 45 1 45 C1 53.58 1 62.16 1 71 C5.95 70.505 5.95 70.505 11 70 C11 47.56 11 25.12 11 2 C7.7 2 4.4 2 1 2 C1 10.91 1 19.82 1 29 C0.67 29 0.34 29 0 29 C0 19.43 0 9.86 0 0 Z " fill="#009FFD" transform="translate(453,363)"/>
<path d="M0 0 C3.96 0 7.92 0 12 0 C12 9.57 12 19.14 12 29 C11.67 29 11.34 29 11 29 C11 20.09 11 11.18 11 2 C6.545 2.495 6.545 2.495 2 3 C1.67 25.44 1.34 47.88 1 71 C4.96 71 8.92 71 13 71 C13 71.33 13 71.66 13 72 C8.71 72 4.42 72 0 72 C0 48.24 0 24.48 0 0 Z " fill="#00A0FE" transform="translate(406,363)"/>
<path d="M0 0 C2.60599988 2.60599988 2.3277682 3.8053743 2.375 7.4375 C2.29696383 13.89109097 0.58439992 19.13895018 -2 25 C-3.0520915 21.5473617 -2.66044069 19.77111835 -1.546875 16.34765625 C-0.30656568 11.02318551 -0.28698515 5.44516568 0 0 Z " fill="#008AED" transform="translate(402,496)"/>
<path d="M0 0 C4.02031696 0.63478689 7.8191806 0.59213562 11.87890625 0.5 C14.55788613 0.56239254 16.95671473 0.9593526 19.5625 1.5625 C19.5625 1.8925 19.5625 2.2225 19.5625 2.5625 C11.6425 2.5625 3.7225 2.5625 -4.4375 2.5625 C-4.4375 1.9025 -4.4375 1.2425 -4.4375 0.5625 C-2.4375 -0.4375 -2.4375 -0.4375 0 0 Z " fill="#009AFE" transform="translate(512.4375,643.4375)"/>
<path d="M0 0 C3 1 3 1 4 3 C4.0716735 5.55157655 4.09308442 8.07472971 4.0625 10.625 C4.05798828 11.33140625 4.05347656 12.0378125 4.04882812 12.765625 C4.03703875 14.51045275 4.01910324 16.255237 4 18 C3.34 18 2.68 18 2 18 C1.93941406 17.03578125 1.87882813 16.0715625 1.81640625 15.078125 C1.73261719 13.81484375 1.64882813 12.5515625 1.5625 11.25 C1.48128906 9.99703125 1.40007813 8.7440625 1.31640625 7.453125 C1.07484478 4.81682447 0.75716066 2.51962706 0 0 Z " fill="#0089EC" transform="translate(547,611)"/>
<path d="M0 0 C6.86173349 1.00415612 12.87293373 2.7123059 19 6 C15.19543642 7.4301492 12.70329177 6.53792878 8.9375 5.25 C7.89464844 4.90453125 6.85179687 4.5590625 5.77734375 4.203125 C3.16897019 3.07319665 1.79216222 2.15803616 0 0 Z " fill="#0081E1" transform="translate(866,560)"/>
<path d="M0 0 C4.95 0.33 9.9 0.66 15 1 C15 1.66 15 2.32 15 3 C9.72 3 4.44 3 -1 3 C-0.67 2.01 -0.34 1.02 0 0 Z " fill="#009AFD" transform="translate(400,678)"/>
<path d="M0 0 C0.969375 0.86625 1.93875 1.7325 2.9375 2.625 C7.03550142 6.15196844 11.45085539 9.09102317 16 12 C15.01 12.33 14.02 12.66 13 13 C10.87890625 11.70703125 10.87890625 11.70703125 8.5625 9.8125 C7.80066406 9.20019531 7.03882813 8.58789062 6.25390625 7.95703125 C4.05616622 6.04876824 1.95827697 4.15455074 0 2 C0 1.34 0 0.68 0 0 Z " fill="#010B17" transform="translate(854,551)"/>
<path d="M0 0 C1.65 0.33 3.3 0.66 5 1 C4.67 2.65 4.34 4.3 4 6 C2.35 5.67 0.7 5.34 -1 5 C-0.67 3.35 -0.34 1.7 0 0 Z " fill="#007CDA" transform="translate(904,672)"/>
<path d="M0 0 C1.65 0.33 3.3 0.66 5 1 C4.67 2.65 4.34 4.3 4 6 C2.35 5.67 0.7 5.34 -1 5 C-0.67 3.35 -0.34 1.7 0 0 Z " fill="#0082E4" transform="translate(1207,672)"/>
<path d="M0 0 C1.65 0.33 3.3 0.66 5 1 C4.67 2.65 4.34 4.3 4 6 C2.35 5.67 0.7 5.34 -1 5 C-0.67 3.35 -0.34 1.7 0 0 Z " fill="#007DDD" transform="translate(1054,432)"/>
<path d="M0 0 C1.67542976 0.28604898 3.34385343 0.61781233 5 1 C4.67 2.32 4.34 3.64 4 5 C2.68 5.33 1.36 5.66 0 6 C-0.38218767 4.34385343 -0.71395102 2.67542976 -1 1 C-0.67 0.67 -0.34 0.34 0 0 Z " fill="#007FDF" transform="translate(865,672)"/>
<path d="M0 0 C2.0625 0.4375 2.0625 0.4375 4 1 C3.67 2.65 3.34 4.3 3 6 C1.35 5.67 -0.3 5.34 -2 5 C-1.125 1.125 -1.125 1.125 0 0 Z " fill="#0084E4" transform="translate(720,603)"/>
<path d="M0 0 C2.0625 0.4375 2.0625 0.4375 4 1 C4.33 2.32 4.66 3.64 5 5 C3.35 5.33 1.7 5.66 0 6 C-0.38218767 4.34385343 -0.71395102 2.67542976 -1 1 C-0.67 0.67 -0.34 0.34 0 0 Z " fill="#0081DF" transform="translate(1238,465)"/>
<path d="M0 0 C1.67542976 0.28604898 3.34385343 0.61781233 5 1 C4.67 2.65 4.34 4.3 4 6 C2.68 5.67 1.36 5.34 0 5 C-0.5625 3.0625 -0.5625 3.0625 -1 1 C-0.67 0.67 -0.34 0.34 0 0 Z " fill="#0080E3" transform="translate(1054,363)"/>
<path d="M0 0 C1.65 0.33 3.3 0.66 5 1 C5 2.32 5 3.64 5 5 C3.125 5.625 3.125 5.625 1 6 C0.34 5.34 -0.32 4.68 -1 4 C-0.625 1.875 -0.625 1.875 0 0 Z " fill="#007BE0" transform="translate(942,672)"/>
<path d="M0 0 C1.65 0.33 3.3 0.66 5 1 C5 2.32 5 3.64 5 5 C3.125 5.625 3.125 5.625 1 6 C0.34 5.34 -0.32 4.68 -1 4 C-0.625 1.875 -0.625 1.875 0 0 Z " fill="#007BDE" transform="translate(1132,672)"/>
<path d="M0 0 C2.0625 0.4375 2.0625 0.4375 4 1 C3.67 2.65 3.34 4.3 3 6 C1.35 5.67 -0.3 5.34 -2 5 C-1.125 1.125 -1.125 1.125 0 0 Z " fill="#0086E7" transform="translate(753,671)"/>
<path d="M0 0 C0.99 0 1.98 0 3 0 C3.33 1.65 3.66 3.3 4 5 C2.35 5.33 0.7 5.66 -1 6 C-1.625 4.125 -1.625 4.125 -2 2 C-1.34 1.34 -0.68 0.68 0 0 Z " fill="#007EDD" transform="translate(824,431)"/>
<path d="M0 0 C1.65 0.33 3.3 0.66 5 1 C4.67 2.65 4.34 4.3 4 6 C2.0625 5.6875 2.0625 5.6875 0 5 C-0.33 4.01 -0.66 3.02 -1 2 C-0.67 1.34 -0.34 0.68 0 0 Z " fill="#0086E5" transform="translate(1205,432)"/>
<path d="M0 0 C2.125 0.9375 2.125 0.9375 4 2 C3.67 3.32 3.34 4.64 3 6 C1.35 5.67 -0.3 5.34 -2 5 C-2 3.68 -2 2.36 -2 1 C-1.34 0.67 -0.68 0.34 0 0 Z " fill="#0083E6" transform="translate(1169,364)"/>
<path d="M0 0 C1.67542976 0.28604898 3.34385343 0.61781233 5 1 C4.67 2.32 4.34 3.64 4 5 C2.68 5 1.36 5 0 5 C-0.5625 3.0625 -0.5625 3.0625 -1 1 C-0.67 0.67 -0.34 0.34 0 0 Z " fill="#0088ED" transform="translate(1169,672)"/>
<path d="M0 0 C1.32 0.66 2.64 1.32 4 2 C3.67 3.32 3.34 4.64 3 6 C1.35 5.67 -0.3 5.34 -2 5 C-1.125 1.125 -1.125 1.125 0 0 Z " fill="#0086E5" transform="translate(825,637)"/>
<path d="M0 0 C0.66 0.33 1.32 0.66 2 1 C0.82421875 2.953125 0.82421875 2.953125 -1 5 C-3.48046875 5.609375 -3.48046875 5.609375 -6.1875 5.75 C-7.08855469 5.80671875 -7.98960937 5.8634375 -8.91796875 5.921875 C-9.60503906 5.94765625 -10.29210937 5.9734375 -11 6 C-11 5.34 -11 4.68 -11 4 C-10.28972656 3.79503906 -9.57945312 3.59007812 -8.84765625 3.37890625 C-7.92855469 3.10949219 -7.00945313 2.84007812 -6.0625 2.5625 C-4.68771484 2.16224609 -4.68771484 2.16224609 -3.28515625 1.75390625 C-1.0597507 1.20973949 -1.0597507 1.20973949 0 0 Z " fill="#0083E6" transform="translate(906,545)"/>
<path d="M0 0 C2.0625 0.4375 2.0625 0.4375 4 1 C3.67 2.65 3.34 4.3 3 6 C1.68 5.67 0.36 5.34 -1 5 C-1 1 -1 1 0 0 Z " fill="#0086E6" transform="translate(1170,540)"/>
<path d="M0 0 C1.67542976 0.28604898 3.34385343 0.61781233 5 1 C4.67 2.32 4.34 3.64 4 5 C2.68 5 1.36 5 0 5 C-0.5625 3.0625 -0.5625 3.0625 -1 1 C-0.67 0.67 -0.34 0.34 0 0 Z " fill="#008AEB" transform="translate(1168,466)"/>
<path d="M0 0 C1.32 0.66 2.64 1.32 4 2 C3.67 3.32 3.34 4.64 3 6 C1.35 5.67 -0.3 5.34 -2 5 C-1.125 1.125 -1.125 1.125 0 0 Z " fill="#0084E4" transform="translate(1132,465)"/>
<path d="M0 0 C2.125 0.375 2.125 0.375 4 1 C4 2.32 4 3.64 4 5 C2.68 5.33 1.36 5.66 0 6 C-0.66 4.68 -1.32 3.36 -2 2 C-1.34 1.34 -0.68 0.68 0 0 Z " fill="#0089EB" transform="translate(825,672)"/>
<path d="M0 0 C1.32 0.66 2.64 1.32 4 2 C3.67 3.32 3.34 4.64 3 6 C1.35 5.67 -0.3 5.34 -2 5 C-1.125 1.125 -1.125 1.125 0 0 Z " fill="#0081E0" transform="translate(719,636)"/>
<path d="M0 0 C1.65 0.33 3.3 0.66 5 1 C4.67 2.32 4.34 3.64 4 5 C2.35 5 0.7 5 -1 5 C-0.67 3.35 -0.34 1.7 0 0 Z " fill="#0073D8" transform="translate(1018,602)"/>
<path d="M0 0 C1.32 0.66 2.64 1.32 4 2 C4 2.99 4 3.98 4 5 C2.35 5.33 0.7 5.66 -1 6 C-1.625 4.125 -1.625 4.125 -2 2 C-1.34 1.34 -0.68 0.68 0 0 Z " fill="#0084E3" transform="translate(1240,540)"/>
<path d="M0 0 C2.475 0.495 2.475 0.495 5 1 C4.67 2.65 4.34 4.3 4 6 C2.68 5.67 1.36 5.34 0 5 C0 3.35 0 1.7 0 0 Z " fill="#0085E8" transform="translate(790,363)"/>
<path d="M0 0 C1.98 0.495 1.98 0.495 4 1 C3.67 2.65 3.34 4.3 3 6 C1.68 5.67 0.36 5.34 -1 5 C-0.67 3.35 -0.34 1.7 0 0 Z " fill="#0090F5" transform="translate(790,672)"/>
<path d="M0 0 C1.98 0.495 1.98 0.495 4 1 C3.67 2.65 3.34 4.3 3 6 C1.68 5.67 0.36 5.34 -1 5 C-0.67 3.35 -0.34 1.7 0 0 Z " fill="#006ACB" transform="translate(1094,672)"/>
<path d="M0 0 C1.98 0.495 1.98 0.495 4 1 C3.67 2.65 3.34 4.3 3 6 C1.68 5.67 0.36 5.34 -1 5 C-0.67 3.35 -0.34 1.7 0 0 Z " fill="#008EF2" transform="translate(718,670)"/>
<path d="M0 0 C1.98 0.495 1.98 0.495 4 1 C3.67 2.65 3.34 4.3 3 6 C1.68 5.67 0.36 5.34 -1 5 C-0.67 3.35 -0.34 1.7 0 0 Z " fill="#006ED0" transform="translate(982,636)"/>
<path d="M0 0 C1.98 0.495 1.98 0.495 4 1 C3.67 2.65 3.34 4.3 3 6 C1.68 5.67 0.36 5.34 -1 5 C-0.67 3.35 -0.34 1.7 0 0 Z " fill="#0082E1" transform="translate(1055,574)"/>
<path d="M0 0 C1.65 0.33 3.3 0.66 5 1 C4.67 2.32 4.34 3.64 4 5 C2.35 4.67 0.7 4.34 -1 4 C-0.67 2.68 -0.34 1.36 0 0 Z " fill="#0088EA" transform="translate(1206,575)"/>
<path d="M0 0 C1.98 0.495 1.98 0.495 4 1 C3.67 2.65 3.34 4.3 3 6 C1.68 5.67 0.36 5.34 -1 5 C-0.67 3.35 -0.34 1.7 0 0 Z " fill="#008AEB" transform="translate(1207,540)"/>
<path d="M0 0 C1.65 0.33 3.3 0.66 5 1 C4.67 2.32 4.34 3.64 4 5 C2.35 4.67 0.7 4.34 -1 4 C-0.67 2.68 -0.34 1.36 0 0 Z " fill="#0088E9" transform="translate(1093,540)"/>
<path d="M0 0 C1.65 0.33 3.3 0.66 5 1 C4.67 2.32 4.34 3.64 4 5 C2.35 4.67 0.7 4.34 -1 4 C-0.67 2.68 -0.34 1.36 0 0 Z " fill="#008CEF" transform="translate(1206,504)"/>
<path d="M0 0 C1.65 0.33 3.3 0.66 5 1 C4.67 2.32 4.34 3.64 4 5 C2.35 4.67 0.7 4.34 -1 4 C-0.67 2.68 -0.34 1.36 0 0 Z " fill="#0084E7" transform="translate(1131,504)"/>
<path d="M0 0 C1.65 0.33 3.3 0.66 5 1 C4.67 2.32 4.34 3.64 4 5 C2.35 4.67 0.7 4.34 -1 4 C-0.67 2.68 -0.34 1.36 0 0 Z " fill="#0086E8" transform="translate(1054,504)"/>
<path d="M0 0 C0.66 0.33 1.32 0.66 2 1 C-0.475 6.94 -0.475 6.94 -3 13 C-3.33 13 -3.66 13 -4 13 C-4.5497272 7.36529617 -2.95047835 4.61012242 0 0 Z " fill="#0083E1" transform="translate(727,482)"/>
<path d="M0 0 C1.65 0.33 3.3 0.66 5 1 C4.67 2.32 4.34 3.64 4 5 C2.35 4.67 0.7 4.34 -1 4 C-0.67 2.68 -0.34 1.36 0 0 Z " fill="#008CEE" transform="translate(1205,466)"/>
<path d="M0 0 C1.98 0.495 1.98 0.495 4 1 C3.67 2.65 3.34 4.3 3 6 C1.68 5.67 0.36 5.34 -1 5 C-0.67 3.35 -0.34 1.7 0 0 Z " fill="#008EF3" transform="translate(1168,432)"/>
<path d="M0 0 C1.98 0.495 1.98 0.495 4 1 C3.67 2.65 3.34 4.3 3 6 C1.68 5.67 0.36 5.34 -1 5 C-0.67 3.35 -0.34 1.7 0 0 Z " fill="#0082E5" transform="translate(1093,431)"/>
<path d="M0 0 C1.98 0.495 1.98 0.495 4 1 C3.67 2.65 3.34 4.3 3 6 C1.68 5.67 0.36 5.34 -1 5 C-0.67 3.35 -0.34 1.7 0 0 Z " fill="#0075DA" transform="translate(942,432)"/>
<path d="M0 0 C1.98 0.495 1.98 0.495 4 1 C3.67 2.65 3.34 4.3 3 6 C1.68 5.67 0.36 5.34 -1 5 C-0.67 3.35 -0.34 1.7 0 0 Z " fill="#0089EC" transform="translate(1019,431)"/>
<path d="M0 0 C1.98 0.495 1.98 0.495 4 1 C3.67 2.65 3.34 4.3 3 6 C1.68 5.67 0.36 5.34 -1 5 C-0.67 3.35 -0.34 1.7 0 0 Z " fill="#008BEE" transform="translate(1238,431)"/>
<path d="M0 0 C1.65 0.33 3.3 0.66 5 1 C4.67 2.32 4.34 3.64 4 5 C2.35 4.67 0.7 4.34 -1 4 C-0.67 2.68 -0.34 1.36 0 0 Z " fill="#0089EC" transform="translate(1205,399)"/>
<path d="M0 0 C1.98 0.495 1.98 0.495 4 1 C3.67 2.65 3.34 4.3 3 6 C1.68 5.67 0.36 5.34 -1 5 C-0.67 3.35 -0.34 1.7 0 0 Z " fill="#0082E0" transform="translate(1130,398)"/>
<path d="M0 0 C1.65 0.33 3.3 0.66 5 1 C4.67 2.32 4.34 3.64 4 5 C2.35 4.67 0.7 4.34 -1 4 C-0.67 2.68 -0.34 1.36 0 0 Z " fill="#0083E2" transform="translate(1054,398)"/>
<path d="M0 0 C1.98 0.495 1.98 0.495 4 1 C3.67 2.65 3.34 4.3 3 6 C1.68 5.67 0.36 5.34 -1 5 C-0.67 3.35 -0.34 1.7 0 0 Z " fill="#0080E4" transform="translate(1093,397)"/>
<path d="M0 0 C1.98 0.495 1.98 0.495 4 1 C3.67 2.65 3.34 4.3 3 6 C1.68 5.67 0.36 5.34 -1 5 C-0.67 3.35 -0.34 1.7 0 0 Z " fill="#008DEE" transform="translate(1238,397)"/>
<path d="M0 0 C1.65 0.33 3.3 0.66 5 1 C4.67 2.32 4.34 3.64 4 5 C2.35 4.67 0.7 4.34 -1 4 C-0.67 2.68 -0.34 1.36 0 0 Z " fill="#0086EA" transform="translate(1131,364)"/>
<path d="M0 0 C1.65 0.33 3.3 0.66 5 1 C4.67 2.32 4.34 3.64 4 5 C2.35 4.67 0.7 4.34 -1 4 C-0.67 2.68 -0.34 1.36 0 0 Z " fill="#0086EB" transform="translate(753,363)"/>
<path d="M0 0 C1.65 0.33 3.3 0.66 5 1 C4.67 2.32 4.34 3.64 4 5 C2.35 4.67 0.7 4.34 -1 4 C-0.67 2.68 -0.34 1.36 0 0 Z " fill="#008BF2" transform="translate(1019,364)"/>
<path d="M0 0 C1.65 0.33 3.3 0.66 5 1 C4.67 2.32 4.34 3.64 4 5 C2.35 4.67 0.7 4.34 -1 4 C-0.67 2.68 -0.34 1.36 0 0 Z " fill="#007EE3" transform="translate(982,363)"/>
<path d="M0 0 C1.98 0.495 1.98 0.495 4 1 C3.67 2.65 3.34 4.3 3 6 C1.68 5.67 0.36 5.34 -1 5 C-0.67 3.35 -0.34 1.7 0 0 Z " fill="#0071D5" transform="translate(942,364)"/>
<path d="M0 0 C1.65 0.33 3.3 0.66 5 1 C4.67 2.32 4.34 3.64 4 5 C2.35 4.67 0.7 4.34 -1 4 C-0.67 2.68 -0.34 1.36 0 0 Z " fill="#0080E5" transform="translate(862,363)"/>
<path d="M0 0 C1.98 0.495 1.98 0.495 4 1 C3.67 2.65 3.34 4.3 3 6 C1.68 5.67 0.36 5.34 -1 5 C-0.67 3.35 -0.34 1.7 0 0 Z " fill="#008AEF" transform="translate(719,362)"/>
<path d="M0 0 C1.32 0 2.64 0 4 0 C4 1.65 4 3.3 4 5 C2.68 5 1.36 5 0 5 C-0.5625 3.0625 -0.5625 3.0625 -1 1 C-0.67 0.67 -0.34 0.34 0 0 Z " fill="#0088F0" transform="translate(1240,670)"/>
<path d="M0 0 C0.99 0.33 1.98 0.66 3 1 C3 2.65 3 4.3 3 6 C1.35 5.67 -0.3 5.34 -2 5 C-1.125 1.125 -1.125 1.125 0 0 Z " fill="#007EE7" transform="translate(1094,637)"/>
<path d="M0 0 C0.99 0.33 1.98 0.66 3 1 C2.67 2.65 2.34 4.3 2 6 C0.68 5.67 -0.64 5.34 -2 5 C-2 3.68 -2 2.36 -2 1 C-1.34 0.67 -0.68 0.34 0 0 Z " fill="#0086EC" transform="translate(1131,637)"/>
<path d="M0 0 C1.32 0 2.64 0 4 0 C4 1.65 4 3.3 4 5 C2.68 5 1.36 5 0 5 C-0.5625 3.0625 -0.5625 3.0625 -1 1 C-0.67 0.67 -0.34 0.34 0 0 Z " fill="#008DF0" transform="translate(753,603)"/>
<path d="M0 0 C1.32 0 2.64 0 4 0 C4 1.65 4 3.3 4 5 C2.68 5 1.36 5 0 5 C-0.5625 3.0625 -0.5625 3.0625 -1 1 C-0.67 0.67 -0.34 0.34 0 0 Z " fill="#0083E8" transform="translate(752,397)"/>
<path d="M0 0 C1.98 0.495 1.98 0.495 4 1 C3.67 2.65 3.34 4.3 3 6 C1.68 5.34 0.36 4.68 -1 4 C-0.67 2.68 -0.34 1.36 0 0 Z " fill="#007CE6" transform="translate(1055,672)"/>
<path d="M0 0 C1.65 0 3.3 0 5 0 C4.67 1.65 4.34 3.3 4 5 C2.68 5 1.36 5 0 5 C0 3.35 0 1.7 0 0 Z " fill="#0083EC" transform="translate(1018,672)"/>
<path d="M0 0 C1.65 0 3.3 0 5 0 C4.67 1.65 4.34 3.3 4 5 C2.68 5 1.36 5 0 5 C0 3.35 0 1.7 0 0 Z " fill="#008FEF" transform="translate(789,638)"/>
<path d="M0 0 C1.65 0 3.3 0 5 0 C4.67 1.65 4.34 3.3 4 5 C2.68 5 1.36 5 0 5 C0 3.35 0 1.7 0 0 Z " fill="#008FF2" transform="translate(752,638)"/>
<path d="M0 0 C1.32 0.66 2.64 1.32 4 2 C3.34 3.32 2.68 4.64 2 6 C0.68 5.34 -0.64 4.68 -2 4 C-1.34 2.68 -0.68 1.36 0 0 Z " fill="#0088EA" transform="translate(1240,574)"/>
<path d="M0 0 C2.475 0.495 2.475 0.495 5 1 C5 2.32 5 3.64 5 5 C3.35 5 1.7 5 0 5 C0 3.35 0 1.7 0 0 Z " fill="#008DF0" transform="translate(1238,501)"/>
<path d="M0 0 C1.32 0.33 2.64 0.66 4 1 C3.67 2.32 3.34 3.64 3 5 C1.35 4.67 -0.3 4.34 -2 4 C-1.34 2.68 -0.68 1.36 0 0 Z " fill="#0087EB" transform="translate(1055,466)"/>
<path d="M0 0 C1.65 0 3.3 0 5 0 C5 1.65 5 3.3 5 5 C3.35 4.67 1.7 4.34 0 4 C0 2.68 0 1.36 0 0 Z " fill="#0089EF" transform="translate(788,432)"/>
<path d="M0 0 C1.65 0 3.3 0 5 0 C4.67 1.65 4.34 3.3 4 5 C2.68 5 1.36 5 0 5 C0 3.35 0 1.7 0 0 Z " fill="#008CF1" transform="translate(1129,432)"/>
<path d="M0 0 C2.475 0.495 2.475 0.495 5 1 C4.67 2.32 4.34 3.64 4 5 C2.68 5 1.36 5 0 5 C0 3.35 0 1.7 0 0 Z " fill="#0077DE" transform="translate(1238,638)"/>
<path d="M0 0 C1.65 0 3.3 0 5 0 C4.67 1.65 4.34 3.3 4 5 C2.68 4.67 1.36 4.34 0 4 C0 2.68 0 1.36 0 0 Z " fill="#008BF2" transform="translate(1205,639)"/>
<path d="M0 0 C1.98 0.495 1.98 0.495 4 1 C4 2.32 4 3.64 4 5 C2.35 5 0.7 5 -1 5 C-0.67 3.35 -0.34 1.7 0 0 Z " fill="#0089F1" transform="translate(1168,638)"/>
<path d="M0 0 C2.475 0.495 2.475 0.495 5 1 C4.67 2.32 4.34 3.64 4 5 C2.68 5 1.36 5 0 5 C0 3.35 0 1.7 0 0 Z " fill="#008EF4" transform="translate(864,637)"/>
<path d="M0 0 C1.65 0 3.3 0 5 0 C4.67 1.65 4.34 3.3 4 5 C2.68 4.67 1.36 4.34 0 4 C0 2.68 0 1.36 0 0 Z " fill="#008AF2" transform="translate(864,602)"/>
<path d="M0 0 C1.32 0 2.64 0 4 0 C4 1.65 4 3.3 4 5 C2.35 4.67 0.7 4.34 -1 4 C-0.67 2.68 -0.34 1.36 0 0 Z " fill="#0086EF" transform="translate(942,602)"/>
<path d="M0 0 C1.65 0 3.3 0 5 0 C4.67 1.65 4.34 3.3 4 5 C2.68 4.67 1.36 4.34 0 4 C0 2.68 0 1.36 0 0 Z " fill="#0093F5" transform="translate(824,603)"/>
<path d="M0 0 C1.98 0.495 1.98 0.495 4 1 C4 2.32 4 3.64 4 5 C2.35 5 0.7 5 -1 5 C-0.67 3.35 -0.34 1.7 0 0 Z " fill="#0091F5" transform="translate(790,602)"/>
<path d="M0 0 C1.32 0 2.64 0 4 0 C4 1.65 4 3.3 4 5 C2.35 4.67 0.7 4.34 -1 4 C-0.67 2.68 -0.34 1.36 0 0 Z " fill="#0090F2" transform="translate(1170,574)"/>
<path d="M0 0 C1.98 0.495 1.98 0.495 4 1 C4 2.32 4 3.64 4 5 C2.35 5 0.7 5 -1 5 C-0.67 3.35 -0.34 1.7 0 0 Z " fill="#008CF0" transform="translate(1094,574)"/>
<path d="M0 0 C3.53233755 1.17744585 3.86308075 1.95605641 5.6875 5.0625 C6.12449219 5.79597656 6.56148438 6.52945313 7.01171875 7.28515625 C7.33785156 7.85105469 7.66398437 8.41695312 8 9 C7.01 9 6.02 9 5 9 C2 5.66666667 2 5.66666667 2 3 C1.34 3 0.68 3 0 3 C0 2.01 0 1.02 0 0 Z " fill="#0085E8" transform="translate(480,547)"/>
<path d="M0 0 C1.98 0.495 1.98 0.495 4 1 C4 2.32 4 3.64 4 5 C2.35 5 0.7 5 -1 5 C-0.67 3.35 -0.34 1.7 0 0 Z " fill="#008CF3" transform="translate(1132,540)"/>
<path d="M0 0 C1.98 0.495 1.98 0.495 4 1 C4 2.32 4 3.64 4 5 C2.35 5 0.7 5 -1 5 C-0.67 3.35 -0.34 1.7 0 0 Z " fill="#008CF0" transform="translate(1055,540)"/>
<path d="M0 0 C1.65 0 3.3 0 5 0 C4.67 1.65 4.34 3.3 4 5 C2.68 4.67 1.36 4.34 0 4 C0 2.68 0 1.36 0 0 Z " fill="#0091F3" transform="translate(1169,504)"/>
<path d="M0 0 C1.32 0 2.64 0 4 0 C4 1.65 4 3.3 4 5 C2.35 4.67 0.7 4.34 -1 4 C-0.67 2.68 -0.34 1.36 0 0 Z " fill="#008AEF" transform="translate(1093,504)"/>
<path d="M0 0 C1.32 0 2.64 0 4 0 C4 1.65 4 3.3 4 5 C2.35 4.67 0.7 4.34 -1 4 C-0.67 2.68 -0.34 1.36 0 0 Z " fill="#008EF1" transform="translate(1093,466)"/>
<path d="M0 0 C1.98 0.495 1.98 0.495 4 1 C4 2.32 4 3.64 4 5 C2.35 5 0.7 5 -1 5 C-0.67 3.35 -0.34 1.7 0 0 Z " fill="#0082EC" transform="translate(982,431)"/>
<path d="M0 0 C2.475 0.495 2.475 0.495 5 1 C4.67 2.32 4.34 3.64 4 5 C2.68 5 1.36 5 0 5 C0 3.35 0 1.7 0 0 Z " fill="#007EE5" transform="translate(861,432)"/>
<path d="M0 0 C2.475 0.495 2.475 0.495 5 1 C4.67 2.32 4.34 3.64 4 5 C2.68 5 1.36 5 0 5 C0 3.35 0 1.7 0 0 Z " fill="#008FF5" transform="translate(752,431)"/>
<path d="M0 0 C1.65 0 3.3 0 5 0 C4.67 1.65 4.34 3.3 4 5 C2.68 4.67 1.36 4.34 0 4 C0 2.68 0 1.36 0 0 Z " fill="#0089EE" transform="translate(717,431)"/>
<path d="M0 0 C1.32 0 2.64 0 4 0 C4 1.65 4 3.3 4 5 C2.35 4.67 0.7 4.34 -1 4 C-0.67 2.68 -0.34 1.36 0 0 Z " fill="#0089EC" transform="translate(1167,399)"/>
<path d="M0 0 C0.99 0.33 1.98 0.66 3 1 C2.67 2.65 2.34 4.3 2 6 C0.68 5.67 -0.64 5.34 -2 5 C-1.125 1.125 -1.125 1.125 0 0 Z " fill="#0078DC" transform="translate(862,397)"/>
<path d="M0 0 C1.98 0.495 1.98 0.495 4 1 C4 2.32 4 3.64 4 5 C2.35 5 0.7 5 -1 5 C-0.67 3.35 -0.34 1.7 0 0 Z " fill="#0083EA" transform="translate(790,398)"/>
<path d="M0 0 C1.32 0 2.64 0 4 0 C4 1.65 4 3.3 4 5 C2.35 4.67 0.7 4.34 -1 4 C-0.67 2.68 -0.34 1.36 0 0 Z " fill="#007EE4" transform="translate(982,397)"/>
<path d="M0 0 C2.475 0.495 2.475 0.495 5 1 C4.67 2.32 4.34 3.64 4 5 C2.68 5 1.36 5 0 5 C0 3.35 0 1.7 0 0 Z " fill="#008CF0" transform="translate(1238,365)"/>
<path d="M0 0 C1.98 0.495 1.98 0.495 4 1 C4 2.32 4 3.64 4 5 C2.35 5 0.7 5 -1 5 C-0.67 3.35 -0.34 1.7 0 0 Z " fill="#0094F9" transform="translate(1206,365)"/>
<path d="M0 0 C2.475 0.495 2.475 0.495 5 1 C4.67 2.32 4.34 3.64 4 5 C2.68 5 1.36 5 0 5 C0 3.35 0 1.7 0 0 Z " fill="#0082EA" transform="translate(822,365)"/>
<path d="M0 0 C1.32 0 2.64 0 4 0 C4 1.65 4 3.3 4 5 C2.35 4.67 0.7 4.34 -1 4 C-0.67 2.68 -0.34 1.36 0 0 Z " fill="#0080E9" transform="translate(904,364)"/>
<path d="M0 0 C1.32 0 2.64 0 4 0 C3.67 1.65 3.34 3.3 3 5 C1.68 4.67 0.36 4.34 -1 4 C-0.67 2.68 -0.34 1.36 0 0 Z " fill="#0081EE" transform="translate(983,672)"/>
<path d="M0 0 C2.475 0.495 2.475 0.495 5 1 C4.67 2.32 4.34 3.64 4 5 C2.68 4.67 1.36 4.34 0 4 C0 2.68 0 1.36 0 0 Z " fill="#006FD4" transform="translate(1054,637)"/>
<path d="M0 0 C1.32 0 2.64 0 4 0 C3.67 1.65 3.34 3.3 3 5 C1.68 4.67 0.36 4.34 -1 4 C-0.67 2.68 -0.34 1.36 0 0 Z " fill="#0081ED" transform="translate(942,637)"/>
<path d="M0 0 C2.475 0.495 2.475 0.495 5 1 C4.67 2.32 4.34 3.64 4 5 C2.68 4.67 1.36 4.34 0 4 C0 2.68 0 1.36 0 0 Z " fill="#0085ED" transform="translate(903,637)"/>
<path d="M0 0 C1.98 0.495 1.98 0.495 4 1 C4 2.32 4 3.64 4 5 C2.35 4.67 0.7 4.34 -1 4 C-0.67 2.68 -0.34 1.36 0 0 Z " fill="#0091F8" transform="translate(1206,606)"/>
<path d="M0 0 C1.98 0.495 1.98 0.495 4 1 C4 2.32 4 3.64 4 5 C2.35 4.67 0.7 4.34 -1 4 C-0.67 2.68 -0.34 1.36 0 0 Z " fill="#008DF5" transform="translate(904,602)"/>
<path d="M0 0 C1.32 0 2.64 0 4 0 C3.67 1.65 3.34 3.3 3 5 C1.68 4.67 0.36 4.34 -1 4 C-0.67 2.68 -0.34 1.36 0 0 Z " fill="#0075DA" transform="translate(982,602)"/>
<path d="M0 0 C1.32 0 2.64 0 4 0 C3.67 1.65 3.34 3.3 3 5 C1.68 4.67 0.36 4.34 -1 4 C-0.67 2.68 -0.34 1.36 0 0 Z " fill="#0092F6" transform="translate(1132,574)"/>
<path d="M0 0 C0.66 0.99 1.32 1.98 2 3 C-3.0940919 8.88183807 -3.0940919 8.88183807 -6.875 9.375 C-7.57625 9.25125 -8.2775 9.1275 -9 9 C-6.95581344 7.46686008 -4.92030407 5.94535136 -2.8125 4.5 C-0.71796426 3.03596546 -0.71796426 3.03596546 0 0 Z " fill="#0087EC" transform="translate(774,541)"/>
<path d="M0 0 C2.27029534 0.39143023 3.83408198 0.88741278 5.75 2.1875 C7.54267046 4.78687216 7.20510719 6.92339216 7 10 C6.34 10 5.68 10 5 10 C4.731875 8.906875 4.46375 7.81375 4.1875 6.6875 C3.12336261 3.38307337 2.65345336 2.05039578 0 0 Z " fill="#011731" transform="translate(768,531)"/>
<path d="M0 0 C1.98 0.495 1.98 0.495 4 1 C3.67 2.32 3.34 3.64 3 5 C1.68 5 0.36 5 -1 5 C-0.67 3.35 -0.34 1.7 0 0 Z " fill="#006ED2" transform="translate(942,398)"/>
<path d="M0 0 C1.32 0 2.64 0 4 0 C3.67 1.65 3.34 3.3 3 5 C1.68 4.67 0.36 4.34 -1 4 C-0.67 2.68 -0.34 1.36 0 0 Z " fill="#0089F2" transform="translate(718,397)"/>
<path d="M0 0 C1.98 0.495 1.98 0.495 4 1 C4 2.32 4 3.64 4 5 C2.35 4.67 0.7 4.34 -1 4 C-0.67 2.68 -0.34 1.36 0 0 Z " fill="#0089F3" transform="translate(1093,363)"/>
<path d="M0 0 C1.32 0 2.64 0 4 0 C3.67 1.65 3.34 3.3 3 5 C2.01 5 1.02 5 0 5 C-0.5625 3.0625 -0.5625 3.0625 -1 1 C-0.67 0.67 -0.34 0.34 0 0 Z " fill="#0074DB" transform="translate(1017,637)"/>
<path d="M0 0 C1.98 0.495 1.98 0.495 4 1 C3.67 2.32 3.34 3.64 3 5 C1.68 4.67 0.36 4.34 -1 4 C-0.67 2.68 -0.34 1.36 0 0 Z " fill="#006ED2" transform="translate(1055,604)"/>
<path d="M0 0 C1.98 0.495 1.98 0.495 4 1 C3.67 2.32 3.34 3.64 3 5 C1.68 4.67 0.36 4.34 -1 4 C-0.67 2.68 -0.34 1.36 0 0 Z " fill="#007BE2" transform="translate(903,433)"/>
<path d="M0 0 C2.475 0.495 2.475 0.495 5 1 C5 1.99 5 2.98 5 4 C3.35 4 1.7 4 0 4 C0 2.68 0 1.36 0 0 Z " fill="#007CE0" transform="translate(1238,606)"/>
<path d="M0 0 C0.99 0 1.98 0 3 0 C3 1.65 3 3.3 3 5 C1.68 5 0.36 5 -1 5 C-0.67 3.35 -0.34 1.7 0 0 Z " fill="#0075DE" transform="translate(823,398)"/>
<path d="M0 0 C0.66 0.99 1.32 1.98 2 3 C0.625 6.6875 0.625 6.6875 -1 10 C-1.66 10 -2.32 10 -3 10 C-2.01 6.7 -1.02 3.4 0 0 Z " fill="#0186E2" transform="translate(423,614)"/>
<path d="M0 0 C1.32 0 2.64 0 4 0 C4 1.32 4 2.64 4 4 C2.35 3.67 0.7 3.34 -1 3 C-0.67 2.01 -0.34 1.02 0 0 Z " fill="#006AC9" transform="translate(1092,606)"/>
<path d="M0 0 C1.32 0.33 2.64 0.66 4 1 C3.67 2.32 3.34 3.64 3 5 C2.01 4.67 1.02 4.34 0 4 C0 2.68 0 1.36 0 0 Z " fill="#0081E7" transform="translate(1167,606)"/>
<path d="M0 0 C0.99 0 1.98 0 3 0 C3 1.65 3 3.3 3 5 C1.68 4.67 0.36 4.34 -1 4 C-0.67 2.68 -0.34 1.36 0 0 Z " fill="#007DE4" transform="translate(1018,398)"/>
<path d="M0 0 C0.99 0.33 1.98 0.66 3 1 C2.67 2.32 2.34 3.64 2 5 C1.01 5 0.02 5 -1 5 C-0.67 3.35 -0.34 1.7 0 0 Z " fill="#0072D9" transform="translate(903,398)"/>
</svg>
