<?xml version="1.0" encoding="UTF-8"?>
<svg version="1.1" xmlns="http://www.w3.org/2000/svg" width="1536" height="1024">
<path d="M0 0 C506.88 0 1013.76 0 1536 0 C1536 337.92 1536 675.84 1536 1024 C1029.12 1024 522.24 1024 0 1024 C0 686.08 0 348.16 0 0 Z " fill="#000F21" transform="translate(0,0)"/>
<path d="M0 0 C0.66966797 0.268125 1.33933594 0.53625 2.02929688 0.8125 C4.15299342 1.66828858 6.26412107 2.55062085 8.375 3.4375 C9.78862399 4.02059548 11.20268743 4.60262674 12.6171875 5.18359375 C14.7597448 6.0649975 16.90130905 6.94845617 19.04003906 7.83911133 C24.20363452 9.98398044 29.41517154 11.96114098 34.66333008 13.89111328 C41.35763211 16.38130694 47.9555704 19.1005394 54.5625 21.8125 C62.48435535 25.06384174 70.4160678 28.25272259 78.4375 31.25 C87.31104481 34.58540154 96.1073111 38.10516136 104.88400269 41.68637085 C106.40259337 42.30516622 107.92220712 42.92145763 109.44290161 43.5350647 C131.54940406 52.46622247 131.54940406 52.46622247 135.42943954 60.6658268 C136.51989375 63.86221966 136.62667726 66.40851961 136.62896729 69.78427124 C136.63460693 71.06524689 136.64024658 72.34622253 136.64605713 73.66601562 C136.64216863 75.07861385 136.63807229 76.49121151 136.63378906 77.90380859 C136.63650048 79.39743215 136.64006226 80.89105438 136.64440918 82.38467407 C136.65352538 86.43900821 136.64999 90.49324051 136.64365101 94.54757643 C136.63857767 98.80333697 136.64328704 103.05908896 136.64642334 107.31484985 C136.65006305 114.47212277 136.64526788 121.62935444 136.63574219 128.78662109 C136.62489919 137.02811308 136.62835282 145.26950577 136.639395 153.51099527 C136.64851759 160.60682179 136.64972776 167.70261866 136.64451766 174.79844916 C136.64141977 179.02705037 136.64092709 183.25560522 136.64759064 187.48420334 C136.65343461 191.47169167 136.64924052 195.45905441 136.63780212 199.44652939 C136.63519096 200.89798272 136.63585867 202.34944689 136.64032745 203.80089569 C136.67702974 216.95043078 135.67753836 229.77676199 131.6875 242.375 C131.29558472 243.63703247 131.29558472 243.63703247 130.89575195 244.92456055 C123.73217625 267.34331077 111.50980763 288.00460174 95.44140625 305.21875 C93.59567316 307.20055793 91.85889326 309.23353216 90.125 311.3125 C82.25462586 320.33330006 72.86795124 328.19463117 63.375 335.4375 C62.48723877 336.118125 62.48723877 336.118125 61.58154297 336.8125 C53.04549298 343.34369441 44.40824989 349.60492013 35.375 355.4375 C34.0908969 356.27435774 32.80705908 357.11162262 31.5234375 357.94921875 C23.77617502 362.99405379 15.99047258 367.97933751 8.1875 372.9375 C7.39786865 373.4418457 6.6082373 373.94619141 5.79467773 374.46582031 C3.66782078 375.81236565 1.52509825 377.12851206 -0.625 378.4375 C-1.59050781 379.0459375 -2.55601562 379.654375 -3.55078125 380.28125 C-9.23884529 382.4205981 -13.9720834 382.631378 -19.59033203 380.10302734 C-22.87309133 378.22000229 -26.03026304 376.21154008 -29.1875 374.125 C-30.3416817 373.38451559 -31.49713334 372.6460071 -32.65380859 371.90942383 C-34.94412672 370.44566266 -37.22566691 368.96968899 -39.49951172 367.48046875 C-42.16598766 365.73753244 -44.84428484 364.01738157 -47.53515625 362.3125 C-51.59517632 359.73205638 -55.61970171 357.10200333 -59.625 354.4375 C-60.2967627 353.99100098 -60.96852539 353.54450195 -61.66064453 353.08447266 C-71.33132419 346.62437621 -80.63122871 339.81141849 -89.625 332.4375 C-90.19428223 331.97263184 -90.76356445 331.50776367 -91.35009766 331.02880859 C-126.74742041 301.9385363 -154.36437005 263.89846541 -159.40914536 217.25603008 C-159.86013775 211.36718002 -159.78182304 205.46069224 -159.78613281 199.55786133 C-159.79076941 198.06874979 -159.79579518 196.57963942 -159.80117798 195.0905304 C-159.8142133 191.07012796 -159.82072815 187.04974214 -159.82518864 183.02932191 C-159.82813061 180.51473601 -159.83223723 178.00015455 -159.83669281 175.48557091 C-159.85033736 167.60896605 -159.86002181 159.73237147 -159.8638947 151.85575563 C-159.86838386 142.7779892 -159.88598411 133.70037271 -159.9148953 124.62265188 C-159.93650925 117.59143384 -159.94659864 110.56025804 -159.94793582 103.52900714 C-159.94898301 99.33480363 -159.95487392 95.14074167 -159.97275543 90.94657326 C-159.98923371 87.00581522 -159.99139293 83.06530529 -159.98261642 79.12452507 C-159.98184622 77.68056702 -159.98618662 76.2365956 -159.99607468 74.7926712 C-160.00880179 72.81814572 -160.00112289 70.84352042 -159.99249268 68.86897278 C-159.99395924 67.76529263 -159.9954258 66.66161249 -159.9969368 65.5244875 C-159.26207338 59.42529482 -156.33274925 55.5722351 -151.70458984 51.85302734 C-147.87000568 49.24291711 -143.71136577 47.51499426 -139.4375 45.75 C-138.45370361 45.33282715 -137.46990723 44.9156543 -136.45629883 44.48583984 C-124.94379596 39.64781022 -113.29898733 35.13195504 -101.65649414 30.6184082 C-97.30045366 28.92152749 -92.9618282 27.1827732 -88.625 25.4375 C-84.52125053 23.79062547 -80.41688792 22.14528257 -76.3125 20.5 C-75.27416016 20.08298828 -74.23582031 19.66597656 -73.16601562 19.23632812 C-67.9063073 17.12918801 -62.63757255 15.05662624 -57.33984375 13.046875 C-52.42671863 11.16786147 -47.5796018 9.16854824 -42.7421875 7.10546875 C-40.68749529 6.23786176 -38.63217861 5.37175102 -36.57666016 4.50610352 C-35.18595261 3.91604196 -33.79792784 3.31961914 -32.41259766 2.71704102 C-21.09497018 -2.19275349 -11.84965607 -4.85912021 0 0 Z " fill="#0288F8" transform="translate(486.625,306.5625)"/>
<path d="M0 0 C1.23616023 0.53769397 2.47313861 1.073511 3.7109375 1.60742188 C5.55941783 2.40483402 7.40740541 3.20312978 9.25270081 4.00788879 C14.12062252 6.12438881 19.04474396 8.04587313 24.0078125 9.92553711 C28.38377998 11.60344418 32.73332156 13.34273955 37.08203125 15.08984375 C37.92149292 15.42676743 38.76095459 15.7636911 39.62585449 16.11082458 C43.09857963 17.50526039 46.57074753 18.90107303 50.04223633 20.29858398 C58.66893444 23.76989776 67.29488335 27.22400475 76.015625 30.453125 C83.28395511 33.14624378 90.433358 36.08395581 97.5625 39.125 C98.72201172 39.61419922 99.88152344 40.10339844 101.07617188 40.60742188 C109.49342315 44.18092315 109.49342315 44.18092315 110.625 45.3125 C110.71840434 46.93924778 110.74245171 48.57004051 110.73852539 50.19946289 C110.73840454 51.25508423 110.73828369 52.31070557 110.73815918 53.39831543 C110.73304321 54.5159729 110.72792725 55.63363037 110.72265625 56.78515625 C110.72164917 57.80637573 110.72064209 58.82759521 110.71960449 59.87976074 C110.71435415 63.71151851 110.70039303 67.54326033 110.6875 71.375 C110.666875 79.934375 110.64625 88.49375 110.625 97.3125 C86.535 97.3125 62.445 97.3125 37.625 97.3125 C35.645 93.6825 33.665 90.0525 31.625 86.3125 C26.56162175 78.57030039 20.37268284 73.27485885 12.625 68.3125 C11.77164063 67.74402344 10.91828125 67.17554688 10.0390625 66.58984375 C2.19644232 61.79713141 -5.38784635 60.69513902 -14.375 59.3125 C-14.375 50.4025 -14.375 41.4925 -14.375 32.3125 C-18.005 32.3125 -21.635 32.3125 -25.375 32.3125 C-25.375 40.8925 -25.375 49.4725 -25.375 58.3125 C-27.7675 58.84875 -30.16 59.385 -32.625 59.9375 C-49.39368605 64.00418806 -62.58752304 73.00628368 -72.375 87.3125 C-78.94657131 98.8342724 -81.06631157 110.22561572 -82.375 123.3125 C-104.485 123.3125 -126.595 123.3125 -149.375 123.3125 C-149.375 112.4225 -149.375 101.5325 -149.375 90.3125 C-144.21875 90.168125 -139.0625 90.02375 -133.75 89.875 C-132.13399902 89.81127197 -130.51799805 89.74754395 -128.85302734 89.68188477 C-118.50334943 89.54100658 -118.50334943 89.54100658 -115.15332031 91.83154297 C-113.6015625 93.71484375 -113.6015625 93.71484375 -112.50244141 95.60131836 C-111.08157121 97.75785348 -109.74947776 98.36936091 -107.375 99.3125 C-101.49495968 100.1725059 -96.26120248 99.5947206 -91.06640625 96.65625 C-87.3684103 93.71835021 -85.84515825 89.72297476 -84.375 85.3125 C-83.79334238 79.37959225 -84.95798712 75.1193071 -88.375 70.3125 C-94.75295585 65.23616779 -100.4412487 64.5498582 -108.375 65.3125 C-115.45368536 68.19640885 -115.57268422 71.70786844 -119.375 79.3125 C-129.275 79.3125 -139.175 79.3125 -149.375 79.3125 C-149.375 68.0925 -149.375 56.8725 -149.375 45.3125 C-137.44147703 39.34573852 -125.7336294 33.97821799 -113.1171875 29.68359375 C-109.02504369 28.1842801 -105.02352671 26.52403225 -101.00634766 24.83569336 C-94.24664848 22.00029177 -87.4654369 19.21684948 -80.68603516 16.42895508 C-78.98543243 15.72909788 -77.28523329 15.02825918 -75.58544922 14.32641602 C-66.33944869 10.50920246 -57.08031523 6.77775013 -47.6955719 3.31419373 C-44.24382601 2.03452546 -40.84228262 0.69553204 -37.48046875 -0.8046875 C-36.81466797 -1.10117187 -36.14886719 -1.39765625 -35.46289062 -1.703125 C-34.17089205 -2.28737924 -32.88453817 -2.8842446 -31.60351562 -3.4921875 C-20.22290807 -8.47607038 -10.72319532 -4.79154274 0 0 Z " fill="#000F22" transform="translate(494.375,328.6875)"/>
<path d="M0 0 C22.44 0 44.88 0 68 0 C68 11.55 68 23.1 68 35 C62.39 35 56.78 35 51 35 C47.3125 30.6875 47.3125 30.6875 46.08984375 28.203125 C45.07542094 25.75438848 45.07542094 25.75438848 42.375 23.9375 C36.65014861 22.3472635 30.46771858 21.66483563 24.80859375 23.84375 C20.27951169 26.73923227 17.37170814 30.8109725 16 36 C15.69179677 40.98518728 16.46055869 44.87962189 18.625 49.375 C22.26555743 53.39877401 25.32616981 55.65411208 30.6875 56.34765625 C36.14699528 56.51826548 40.43337327 56.26187624 45 53 C45.68707031 51.9790625 46.37414062 50.958125 47.08203125 49.90625 C48.71319927 47.90552047 49.55183303 47.1046072 52.08984375 46.51220703 C54.52233032 46.41000599 56.88267629 46.47541338 59.3125 46.625 C60.14845703 46.65207031 60.98441406 46.67914063 61.84570312 46.70703125 C63.89825247 46.77740437 65.94946591 46.88501678 68 47 C68.10039847 52.93663849 68.17217493 58.87276119 68.21972656 64.81005859 C68.23959141 66.82121408 68.26669276 68.83231382 68.30175781 70.84326172 C68.96163193 109.71761059 52.48318551 140.7317079 25.83984375 168.34765625 C18.28393691 176.06650053 10.6463319 183.49883399 2 190 C1.27458008 190.54817383 0.54916016 191.09634766 -0.19824219 191.66113281 C-2.70915207 193.55357227 -5.22755769 195.4354623 -7.75 197.3125 C-8.5548584 197.91215576 -9.3597168 198.51181152 -10.18896484 199.12963867 C-10.9670752 199.70174072 -11.74518555 200.27384277 -12.546875 200.86328125 C-13.23620117 201.37157471 -13.92552734 201.87986816 -14.63574219 202.40356445 C-17.66697441 204.45036613 -20.80866486 206.21303612 -24 208 C-24.33212252 200.54888078 -24.55827035 193.09969329 -24.71411133 185.64282227 C-24.77912455 183.11182358 -24.8675732 180.5813063 -24.98071289 178.05200195 C-25.94790189 155.85917201 -25.94790189 155.85917201 -21.18457031 149.51464844 C-18.11728119 146.1867459 -14.6673081 143.63336327 -11 141 C-8.79365445 138.72855966 -8.79365445 138.72855966 -7.125 136.625 C-4.93050685 134.01355315 -2.62577145 131.69426385 -0.125 129.375 C2.67599289 126.71761163 2.67599289 126.71761163 3.3125 122.875 C3.539375 121.92625 3.76625 120.9775 4 120 C6.125 118.76171875 6.125 118.76171875 8.8125 117.5625 C12.92974939 115.68941659 15.52309117 114.33021633 17.4453125 110.15625 C19.00378796 104.09795103 19.01386351 98.18370601 16.375 92.5 C11.8385263 87.72476453 8.69994294 85.74409849 2.0625 85.4375 C-2.78360658 85.6058511 -5.82065738 86.39060325 -9.59765625 89.41796875 C-14.02072368 94.4077802 -14.57778651 98.48815026 -14.42578125 104.984375 C-13.58154007 110.96377125 -10.23237786 114.91656212 -6 119 C-11.03178502 124.53283141 -16.0842485 130.04244408 -21.22265625 135.4765625 C-21.94066406 136.23590088 -22.65867187 136.99523926 -23.3984375 137.77758789 C-24.82747972 139.28643335 -26.25843415 140.79347029 -27.69140625 142.29858398 C-28.35140625 142.99540283 -29.01140625 143.69222168 -29.69140625 144.41015625 C-30.28123291 145.03027588 -30.87105957 145.65039551 -31.47875977 146.28930664 C-34.85251015 150.08321916 -35.21802165 152.1697309 -35.04907227 157.1328125 C-35.0140712 158.39843018 -34.97907013 159.66404785 -34.94300842 160.96801758 C-34.92124102 161.64474518 -34.89947361 162.32147278 -34.87704659 163.01870728 C-34.77329407 166.62246662 -34.74230712 170.22710763 -34.70117188 173.83203125 C-34.64755973 178.41183098 -34.57223544 182.98691419 -34.40014648 187.56396484 C-33.50660232 212.29740399 -33.50660232 212.29740399 -37.67401123 218.48583984 C-43.18086593 223.79811696 -49.70910392 226.17727598 -57 228 C-57 177.51 -57 127.02 -57 75 C-52.05 74.01 -47.1 73.02 -42 72 C-39.02987091 70.91716704 -36.54435831 69.95373489 -33.8125 68.5 C-33.15451416 68.15815674 -32.49652832 67.81631348 -31.81860352 67.46411133 C-18.21280042 60.02702002 -7.94459937 47.76349574 -3 33 C-0.19549437 21.62712232 -0.19549437 21.62712232 0 0 Z " fill="#000F21" transform="translate(537,438)"/>
<path d="M0 0 C22.77 0 45.54 0 69 0 C70.65 4.95 72.3 9.9 74 15 C81.72819142 29.9294607 92.68896385 39.90879473 108.3359375 45.95703125 C113.45168804 47.41322037 118.75340509 48.12556752 124 49 C124 99.49 124 149.98 124 202 C109.94260372 193.05438419 109.94260372 193.05438419 108 190 C107.30248896 185.48140507 107.35087254 181.02091586 107.3984375 176.45703125 C107.38620743 174.44073897 107.37396228 172.42444664 107.3608036 170.40816021 C107.34827972 167.59186641 107.35793283 164.77582408 107.36798096 161.95953369 C107.38413516 157.01817363 107.38147548 152.07697727 107.35440063 147.13566589 C107.34223525 144.50590078 107.34510348 141.87601671 107.36410522 139.24629211 C107.36044952 138.06133652 107.35679382 136.87638092 107.35302734 135.65551758 C107.35899429 134.08596062 107.35899429 134.08596062 107.36508179 132.48469543 C107.2446048 131.66474594 107.12412781 130.84479645 107 130 C103.59217843 127.72811895 101.95413553 127.97629116 97.99365234 128.12915039 C90.54591851 128.31261858 85.63129904 127.63317531 80.09130859 122.38208008 C73 114.8640825 73 114.8640825 73 112 C71.515 111.505 71.515 111.505 70 111 C66.27128263 107.51986379 66.27128263 107.51986379 65 105 C65.6875 101.625 65.6875 101.625 67 98 C67.66179913 92.04380787 66.95626136 88.67066512 63.4609375 83.765625 C60.3347083 79.98740147 57.89597955 78.27889248 52.97265625 77.5546875 C47.59824885 77.27149994 43.19354343 77.12596695 38.875 80.625 C35.04480648 84.69279858 33.19558977 88.26763343 32.5625 93.875 C32.82587741 99.85252199 35.26865674 104.31194032 39.5 108.4375 C43.17999777 110.08035615 44.4856356 109.95925672 48.3671875 109.78515625 C57.64517679 110.4596001 62.69385265 117.55229599 68.625 124 C70.37301395 125.84274813 72.12881008 127.67783964 73.88510132 129.51269531 C74.96922573 130.65144902 76.04683321 131.7964508 77.11709595 132.94824219 C83.55769171 139.86460738 84.03950033 138.07996156 96 139 C96 153.85 96 168.7 96 184 C85.8631737 178.36842983 85.8631737 178.36842983 82.5703125 175.984375 C81.84344238 175.46020996 81.11657227 174.93604492 80.36767578 174.39599609 C79.62759277 173.85281738 78.88750977 173.30963867 78.125 172.75 C77.3397998 172.17717285 76.55459961 171.6043457 75.74560547 171.01416016 C40.93944381 145.45618563 9.0340293 112.26801732 0.48046875 68.5078125 C-0.42841556 62.07741636 -0.09026565 55.476956 0 49 C6.90005737 48.71897624 13.79862027 48.52760881 20.703125 48.39575195 C23.04678473 48.34074177 25.3900723 48.26590282 27.73242188 48.17016602 C49.32438845 47.31034963 49.32438845 47.31034963 55.77764893 52.76139832 C58.03004307 55.03252767 60.00282017 57.50444096 62 60 C63.81728675 61.56471624 65.66752295 63.09282996 67.5625 64.5625 C71.32838189 67.59357567 74.94329756 70.72581577 78.5 74 C83.05151416 78.18687211 87.73639786 82.14925908 92.5625 86.015625 C94.55547546 87.63811144 96.42997068 89.31723844 98.3125 91.0625 C101.5077734 93.3660692 103.14266665 93.61366667 107 93 C109.24444134 91.21330768 109.24444134 91.21330768 109.0625 88.8125 C106.69328345 82.54104443 100.26948444 78.29932251 95.30078125 74.015625 C92.49226934 71.55519691 89.74539813 69.03023215 87 66.5 C83.06721992 62.87879366 79.10191044 59.30553889 75.0546875 55.8125 C73.47591187 54.4198158 71.92339922 52.99731509 70.3828125 51.5625 C69.45210938 50.69625 68.52140625 49.83 67.5625 48.9375 C66.71816406 48.14214844 65.87382812 47.34679687 65.00390625 46.52734375 C56.78130746 39.60924047 51.42646331 37.10624831 40.52734375 37.1953125 C39.3636879 37.18160614 38.20003204 37.16789978 37.00111389 37.15377808 C33.3128442 37.11662034 29.6259296 37.12018387 25.9375 37.125 C23.42510929 37.1068635 20.91273635 37.08605784 18.40039062 37.0625 C12.26614337 37.00579517 6.1354005 37.00425036 0 37 C0 24.79 0 12.58 0 0 Z " fill="#000F22" transform="translate(345,464)"/>
<path d="M0 0 C0 4.62 0 9.24 0 14 C3.63 14 7.26 14 11 14 C11 9.38 11 4.76 11 0 C22.56503846 0 33.20014414 5.26849386 41.6875 13.1875 C50.19587604 22.29788378 56.21217111 33.07841729 56.25 45.625 C56.1675 47.72875 56.085 49.8325 56 52 C51.38 52 46.76 52 42 52 C42 55.96 42 59.92 42 64 C46.29 64 50.58 64 55 64 C53.11261703 71.44467728 50.63378241 76.89390742 46 83 C45.33871094 83.92619141 45.33871094 83.92619141 44.6640625 84.87109375 C37.44561437 94.23838626 25.37171932 100.028909 13.8125 101.75 C12.884375 101.8325 11.95625 101.915 11 102 C11 97.38 11 92.76 11 88 C7.37 88 3.74 88 0 88 C0 92.62 0 97.24 0 102 C-10.98792527 101.18607961 -19.43939144 96.80061502 -28 90 C-28.70125 89.44957031 -29.4025 88.89914062 -30.125 88.33203125 C-36.90251132 82.33552221 -40.4786768 74.1852034 -44 66 C-44 65.34 -44 64.68 -44 64 C-40.04 64 -36.08 64 -32 64 C-32 60.04 -32 56.08 -32 52 C-36.29 52 -40.58 52 -45 52 C-45.87491669 37.47638301 -41.22801307 27.08074157 -32 16 C-31.45601563 15.34257812 -30.91203125 14.68515625 -30.3515625 14.0078125 C-22.39904291 5.27943734 -11.7047647 0 0 0 Z " fill="#000F22" transform="translate(469,400)"/>
<path d="M0 0 C9.05352478 6.3423088 15.49896933 14.68556061 18.296875 25.546875 C20.43524122 38.13205117 18.51287599 50.41109404 11.171875 61.046875 C4.73639457 69.11488539 -3.03647361 74.35837795 -13.078125 77.046875 C-26.20159403 78.41336588 -36.85089416 76.6084413 -47.4609375 68.41796875 C-56.54774181 60.18559529 -61.20224228 50.25615621 -62.3515625 38.171875 C-62.73557159 26.35621059 -59.2293112 15.75425979 -51.078125 7.046875 C-37.43480109 -6.73827141 -16.9931916 -9.97253028 0 0 Z " fill="#0289F8" transform="translate(1170.078125,461.953125)"/>
<path d="M0 0 C0.80086533 -0.00570007 1.60173065 -0.01140015 2.42686462 -0.01727295 C4.1292081 -0.02674276 5.83157007 -0.03326476 7.53393555 -0.03710938 C10.11736108 -0.04674453 12.69996696 -0.0777183 15.28320312 -0.109375 C16.93879737 -0.11591207 18.5943973 -0.12115977 20.25 -0.125 C21.0149025 -0.1373468 21.77980499 -0.1496936 22.56788635 -0.16241455 C30.37911165 -0.13060411 36.83977502 2.16881441 42.61328125 7.546875 C46.82513815 12.27128591 47.69273304 17.58823705 47.515625 23.703125 C46.59434803 29.11245765 43.16380598 33.6315817 39.08984375 37.203125 C38.42984375 37.203125 37.76984375 37.203125 37.08984375 37.203125 C37.08984375 37.863125 37.08984375 38.523125 37.08984375 39.203125 C37.79109375 39.203125 38.49234375 39.203125 39.21484375 39.203125 C44.10236078 40.90313092 46.82709485 45.6776272 49.08984375 50.203125 C49.72282994 58.11026391 50.1798537 65.70104777 45.08984375 72.203125 C37.78145334 78.97675513 31.26057646 79.35891822 21.75390625 79.30078125 C20.87455414 79.2993663 19.99520203 79.29795135 19.08920288 79.29649353 C16.29771433 79.29092377 13.50630781 79.2783769 10.71484375 79.265625 C8.81510533 79.26060609 6.91536565 79.25604387 5.015625 79.25195312 C0.37366661 79.24096425 -4.26823094 79.22372057 -8.91015625 79.203125 C-8.93328017 69.05046349 -8.95107159 58.8978082 -8.96196842 48.74512577 C-8.96719714 44.03132767 -8.97429459 39.31754753 -8.9855957 34.60375977 C-8.99642498 30.05857096 -9.00243317 25.51339948 -9.00503349 20.96819878 C-9.00688767 19.23017542 -9.01050814 17.49215306 -9.01588631 15.75413704 C-9.02309728 13.32833905 -9.02414717 10.90261354 -9.02368164 8.47680664 C-9.02727692 7.75104431 -9.03087219 7.02528198 -9.03457642 6.27752686 C-9.0192743 -1.04344188 -6.54401295 0.03569792 0 0 Z " fill="#0287F6" transform="translate(837.91015625,573.796875)"/>
<path d="M0 0 C6.55875 -0.103125 13.1175 -0.20625 19.875 -0.3125 C21.92444824 -0.35802002 23.97389648 -0.40354004 26.08544922 -0.45043945 C37.09086145 -0.59485634 44.96129635 -0.10625676 53.65625 7.24609375 C54.2646875 7.96925781 54.873125 8.69242187 55.5 9.4375 C56.1290625 10.15808594 56.758125 10.87867188 57.40625 11.62109375 C62.0776835 18.59389522 62.10905241 27.33358096 60.53515625 35.375 C58.48910776 41.57367945 54.38467209 46.41021861 49 50 C48.01 50 47.02 50 46 50 C48.08050643 53.54333442 50.16490816 57.08436226 52.25 60.625 C53.12978516 62.12353516 53.12978516 62.12353516 54.02734375 63.65234375 C57.58392537 69.70794869 57.58392537 69.70794869 61.421875 75.5859375 C63 78 63 78 63 80 C47.94770026 81.50858238 47.94770026 81.50858238 43.8515625 78.3359375 C42.28221286 75.62359332 41.13646568 72.92283681 40 70 C36.36218805 60.08594885 36.36218805 60.08594885 29.12792969 53.18798828 C24.54115543 52.21294229 20.81966763 52.65263657 16 53 C16 61.91 16 70.82 16 80 C10.72 80 5.44 80 0 80 C0 53.6 0 27.2 0 0 Z " fill="#0289F8" transform="translate(755,458)"/>
<path d="M0 0 C6.6 -0.0825 13.2 -0.165 20 -0.25 C22.06765625 -0.28641602 24.1353125 -0.32283203 26.265625 -0.36035156 C27.92707281 -0.37204745 29.58853219 -0.38223714 31.25 -0.390625 C32.09433594 -0.41108887 32.93867187 -0.43155273 33.80859375 -0.45263672 C41.34007813 -0.45701549 46.14858974 2.02594675 52.25 6.25 C57.58355512 11.58355512 60.07769832 18.06120418 60.3125 25.5625 C60.23890243 32.66992208 57.89548892 38.92800071 54.1875 44.9375 C46.13280652 52.53192528 36.14280932 54.49136836 25.4375 54.1875 C20.7659375 54.0946875 20.7659375 54.0946875 16 54 C16 62.58 16 71.16 16 80 C10.72 80 5.44 80 0 80 C0 53.6 0 27.2 0 0 Z " fill="#0288F8" transform="translate(683,458)"/>
<path d="M0 0 C14 0 14 0 17.53515625 3.0859375 C18.42641262 4.48571853 19.2671662 5.91857664 20.0625 7.375 C21.04057185 8.94680653 22.02112531 10.51707105 23.00390625 12.0859375 C23.73697998 13.30748535 23.73697998 13.30748535 24.48486328 14.55371094 C26.94406186 18.5242507 29.72753759 22.24490311 32.5 26 C33.57864265 27.48826615 34.65546322 28.97785456 35.73046875 30.46875 C36.53170166 31.57863281 36.53170166 31.57863281 37.34912109 32.7109375 C40.17885015 36.63456064 43.00325325 40.56167801 45.8125 44.5 C46.33457031 45.22445312 46.85664062 45.94890625 47.39453125 46.6953125 C51 51.77040166 51 51.77040166 51 54 C51.66 54 52.32 54 53 54 C53 36.18 53 18.36 53 0 C57.95 0 62.9 0 68 0 C68 26.4 68 52.8 68 80 C53 80 53 80 48.75390625 76.23046875 C47.63848834 74.58327606 46.5755703 72.89954247 45.5625 71.1875 C44.9852417 70.31254883 44.4079834 69.43759766 43.81323242 68.53613281 C42.67636206 66.81043175 41.55871146 65.07187875 40.46289062 63.31982422 C38.70430295 60.53108923 36.78824771 57.88834603 34.8125 55.25 C34.21566406 54.42628906 33.61882812 53.60257812 33.00390625 52.75390625 C31.41414838 50.56915129 29.81723051 48.39031942 28.21484375 46.21484375 C27.72459717 45.5487207 27.23435059 44.88259766 26.72924805 44.19628906 C25.77219832 42.89663481 24.81409731 41.59775378 23.85473633 40.29980469 C23.41282959 39.69942383 22.97092285 39.09904297 22.515625 38.48046875 C22.12665039 37.95348389 21.73767578 37.42649902 21.33691406 36.88354492 C19.50014415 34.29576555 17.76027321 31.64040982 16 29 C15.67 45.83 15.34 62.66 15 80 C10.05 80 5.1 80 0 80 C0 53.6 0 27.2 0 0 Z " fill="#0189FB" transform="translate(1202,458)"/>
<path d="M0 0 C5.28 0 10.56 0 16 0 C33.09362232 43.51769931 33.09362232 43.51769931 41.07275391 65.48095703 C41.94159775 67.84133901 42.84902195 70.18367445 43.76171875 72.52734375 C45 76 45 76 45 79 C40.05 79 35.1 79 30 79 C28.9955866 76.7101766 27.99632388 74.4183401 27 72.125 C26.71382812 71.47402344 26.42765625 70.82304688 26.1328125 70.15234375 C24 65.2265625 24 65.2265625 24 63 C13.44 63 2.88 63 -8 63 C-8.66 65.97 -9.32 68.94 -10 72 C-10.99 74.31 -11.98 76.62 -13 79 C-18.28 79 -23.56 79 -29 79 C-27.98251263 74.28255856 -26.63606937 69.89057287 -24.87890625 65.39453125 C-24.43281006 64.24718506 -23.98671387 63.09983887 -23.52709961 61.91772461 C-23.2823288 61.2904245 -23.03755798 60.66312439 -22.78536987 60.01681519 C-21.33954609 56.30396668 -19.90918158 52.5851464 -18.4765625 48.8671875 C-17.84115242 47.21874746 -17.20573565 45.57031 -16.5703125 43.921875 C-16.2496582 43.08978516 -15.92900391 42.25769531 -15.59863281 41.40039062 C-14.95361319 39.72735076 -14.30811152 38.05449667 -13.66210938 36.38183594 C-8.9947379 24.29514993 -4.44616837 12.16981763 0 0 Z " fill="#0388F8" transform="translate(773,574)"/>
<path d="M0 0 C17.82 0 35.64 0 54 0 C54 4.62 54 9.24 54 14 C41.13 14 28.26 14 15 14 C15 20.27 15 26.54 15 33 C25.89 33 36.78 33 48 33 C48 37.62 48 42.24 48 47 C37.44 47 26.88 47 16 47 C16 52.94 16 58.88 16 65 C28.54 65 41.08 65 54 65 C54 69.95 54 74.9 54 80 C36.18 80 18.36 80 0 80 C0 53.6 0 27.2 0 0 Z " fill="#0289F9" transform="translate(831,458)"/>
<path d="M0 0 C5.13213365 3.46974761 8.29732265 7.96787041 10.57421875 13.71484375 C10.57421875 14.70484375 10.57421875 15.69484375 10.57421875 16.71484375 C8.80563184 17.38744726 7.03425859 18.0527277 5.26171875 18.71484375 C4.27558594 19.08609375 3.28945312 19.45734375 2.2734375 19.83984375 C-0.42578125 20.71484375 -0.42578125 20.71484375 -3.42578125 20.71484375 C-4.63671875 19.0703125 -4.63671875 19.0703125 -5.80078125 16.90234375 C-7.96431976 13.30705181 -9.32007283 11.14291624 -13.42578125 9.71484375 C-18.77559463 9.06762284 -23.09152472 9.17209533 -28.11328125 11.21484375 C-30.89253917 14.2194469 -31.12988932 15.75678789 -31.22265625 19.71484375 C-29.94058861 22.93258213 -27.40486767 24.24415552 -24.42578125 25.71484375 C-21.36613437 26.85966689 -18.25402318 27.75847113 -15.11328125 28.65234375 C-5.25017486 31.63464974 3.82226103 34.53225411 9.57421875 43.71484375 C11.72953019 49.82155951 11.78720677 58.1098887 9.73828125 64.19921875 C6.24956102 70.24009002 0.84703785 74.56916156 -5.6953125 76.859375 C-15.03335837 79.00076981 -26.70753951 79.11084382 -35.42578125 74.71484375 C-42.29396621 70.40579103 -47.53875874 65.41863539 -50.42578125 57.71484375 C-50.42578125 56.72484375 -50.42578125 55.73484375 -50.42578125 54.71484375 C-48.84610318 54.03956152 -47.26186222 53.37494681 -45.67578125 52.71484375 C-44.7940625 52.34359375 -43.91234375 51.97234375 -43.00390625 51.58984375 C-40.42578125 50.71484375 -40.42578125 50.71484375 -36.42578125 50.71484375 C-35.88953125 51.78734375 -35.35328125 52.85984375 -34.80078125 53.96484375 C-32.49830818 57.85223836 -30.69614871 59.87416812 -26.42578125 61.71484375 C-19.43085497 62.43817338 -13.31932721 62.96468515 -7.42578125 58.71484375 C-6.0558038 57.55738888 -6.0558038 57.55738888 -6.11328125 54.40234375 C-6.0789199 50.74790939 -6.0789199 50.74790939 -8.11254883 48.6027832 C-10.65966707 46.52395836 -12.60566073 45.7347363 -15.75 44.8203125 C-16.77931641 44.50384766 -17.80863281 44.18738281 -18.86914062 43.86132812 C-21.01076056 43.22825444 -23.15397204 42.60053704 -25.29882812 41.97851562 C-33.64134029 39.39841074 -40.71869794 35.71228142 -45.98828125 28.52734375 C-48.40404936 23.56159819 -48.23818673 18.06674301 -47.42578125 12.71484375 C-44.58207786 5.17777148 -38.18883069 -0.07849171 -31.17578125 -3.66015625 C-20.87753923 -7.80032787 -9.52986703 -5.04883454 0 0 Z " fill="#0289F8" transform="translate(1055.42578125,461.28515625)"/>
<path d="M0 0 C4.03571617 3.30405007 7.41197653 6.54433639 8.921875 11.61328125 C8.963125 12.29390625 9.004375 12.97453125 9.046875 13.67578125 C-0.36314778 18.08352612 -0.36314778 18.08352612 -4.953125 18.67578125 C-5.324375 17.93328125 -5.695625 17.19078125 -6.078125 16.42578125 C-8.86772466 12.33436841 -12.29179981 10.22955631 -16.953125 8.67578125 C-24.08268692 7.97319114 -30.09755851 8.28090312 -35.953125 12.67578125 C-39.70557225 16.27779632 -43.52089481 20.41618928 -44.2277832 25.74707031 C-44.25627635 28.14049497 -44.27484541 30.53216265 -44.265625 32.92578125 C-44.28173828 33.74691406 -44.29785156 34.56804687 -44.31445312 35.4140625 C-44.31967617 42.00554716 -43.37775232 47.70832692 -39.12109375 52.91796875 C-33.09562307 57.88571381 -28.16684288 60.20131911 -20.2578125 59.98828125 C-14.70602891 59.23549703 -10.53358446 56.67003376 -6.953125 52.42578125 C-6.293125 51.51828125 -5.633125 50.61078125 -4.953125 49.67578125 C-1.1928265 50.25685757 1.57722532 51.32777621 4.859375 53.23828125 C5.64957031 53.69332031 6.43976563 54.14835938 7.25390625 54.6171875 C7.84558594 54.96652344 8.43726563 55.31585937 9.046875 55.67578125 C7.95341599 61.97017993 2.600875 66.67368505 -2.265625 70.48828125 C-11.14568143 76.31643359 -21.90671561 77.13007705 -32.1328125 75.01953125 C-42.92875797 71.83294175 -51.10267933 65.29482569 -56.953125 55.67578125 C-58.55876472 52.07895306 -59.84638006 48.45418467 -60.953125 44.67578125 C-61.14519531 44.04285156 -61.33726562 43.40992188 -61.53515625 42.7578125 C-63.94098837 30.77362073 -61.30805297 19.36199013 -54.640625 9.30078125 C-41.44241389 -8.10192327 -18.11509068 -12.94393891 0 0 Z " fill="#0289F8" transform="translate(955.953125,463.32421875)"/>
<path d="M0 0 C6.09193318 3.78759324 9.99795784 9.03975177 11.96875 15.9140625 C13.58458769 24.61265537 13.17953599 32.91516204 8.1484375 40.33984375 C4.97214641 44.35691778 1.46681006 48.01267017 -3.5625 49.4375 C-13.54763086 50.40842985 -20.50347838 49.90937758 -28.75 44.25 C-34.45477793 38.54522207 -36.70969929 31.85678652 -36.9375 23.875 C-36.86488402 16.05667979 -35.16605309 10.37760361 -29.84765625 4.5625 C-22.05707394 -2.52914604 -9.75665813 -4.40562276 0 0 Z " fill="#000F23" transform="translate(1160.5625,473.5625)"/>
<path d="M0 0 C14.52 0 29.04 0 44 0 C44 3.63 44 7.26 44 11 C33.44 11 22.88 11 12 11 C12 16.61 12 22.22 12 28 C21.57 28 31.14 28 41 28 C41 31.63 41 35.26 41 39 C31.43 39 21.86 39 12 39 C12 44.61 12 50.22 12 56 C22.56 56 33.12 56 44 56 C44 59.63 44 63.26 44 67 C29.48 67 14.96 67 0 67 C0 44.89 0 22.78 0 0 Z " fill="#0180F3" transform="translate(821,354)"/>
<path d="M0 0 C3.63 0 7.26 0 11 0 C11 9.24 11 18.48 11 28 C21.23 28 31.46 28 42 28 C42 18.76 42 9.52 42 0 C45.63 0 49.26 0 53 0 C53 22.11 53 44.22 53 67 C49.37 67 45.74 67 42 67 C42 57.76 42 48.52 42 39 C31.77 39 21.54 39 11 39 C11 48.24 11 57.48 11 67 C7.37 67 3.74 67 0 67 C0 44.89 0 22.78 0 0 Z " fill="#0381F2" transform="translate(749,354)"/>
<path d="M0 0 C4.62 0 9.24 0 14 0 C14 21.12 14 42.24 14 64 C26.21 64 38.42 64 51 64 C51 68.62 51 73.24 51 78 C34.17 78 17.34 78 0 78 C0 52.26 0 26.52 0 0 Z " fill="#048AFA" transform="translate(684,575)"/>
<path d="M0 0 C5.28 0 10.56 0 16 0 C16 26.4 16 52.8 16 80 C10.72 80 5.44 80 0 80 C0 53.6 0 27.2 0 0 Z " fill="#0088FD" transform="translate(977,458)"/>
<path d="M0 0 C4.95 0 9.9 0 15 0 C15 26.4 15 52.8 15 80 C10.05 80 5.1 80 0 80 C0 53.6 0 27.2 0 0 Z " fill="#028CFC" transform="translate(1080,458)"/>
<path d="M0 0 C17.16 0 34.32 0 52 0 C52 3.63 52 7.26 52 11 C45.4 11 38.8 11 32 11 C32 29.48 32 47.96 32 67 C28.37 67 24.74 67 21 67 C21 48.52 21 30.04 21 11 C14.07 11 7.14 11 0 11 C0 7.37 0 3.74 0 0 Z " fill="#0181F4" transform="translate(683,354)"/>
<path d="M0 0 C3.83228419 2.19098268 6.84095484 4.79925933 8.1953125 9.140625 C9.22877326 14.3642994 9.81923492 19.78353194 7.49609375 24.703125 C4.53297137 28.88089546 1.6241365 31.83127437 -3.375 33.3125 C-8.78899153 33.90902068 -14.31290244 34.27940669 -19.3125 31.8125 C-23.78814301 28.15891387 -26.72842686 24.6242161 -27.85546875 18.8515625 C-28.21843077 12.47520268 -26.47460474 8.14936335 -22.375 3.3125 C-16.05200773 -2.55884996 -7.89291456 -3.67250058 0 0 Z " fill="#0387F7" transform="translate(483.375,437.6875)"/>
<path d="M0 0 C3.135 -0.103125 6.27 -0.20625 9.5 -0.3125 C10.95696289 -0.38078003 10.95696289 -0.38078003 12.44335938 -0.45043945 C18.70649053 -0.54917677 23.33417351 0.63843512 28 5 C30.36785885 8.82645603 30.68703192 12.59790662 30 17 C27.72576357 21.46424188 25.56766954 23.9751568 21 26 C17.38563002 26.36117662 13.81508364 26.28178436 10.1875 26.1875 C6.825625 26.125625 3.46375 26.06375 0 26 C0 17.42 0 8.84 0 0 Z " fill="#011025" transform="translate(771,472)"/>
<path d="M0 0 C5.0428125 -0.0928125 5.0428125 -0.0928125 10.1875 -0.1875 C11.76374146 -0.22846802 11.76374146 -0.22846802 13.37182617 -0.27026367 C22.00900608 -0.34728522 22.00900608 -0.34728522 26 3 C28.89137611 6.48959186 29.48171982 9.47830404 29.28515625 14.0078125 C28.69801594 18.10975164 27.1994381 20.97467388 24.0625 23.65625 C19.47313194 25.66995231 15.13336878 25.31604784 10.1875 25.1875 C6.825625 25.125625 3.46375 25.06375 0 25 C0 16.75 0 8.5 0 0 Z " fill="#010E20" transform="translate(699,472)"/>
<path d="M0 0 C3.7501919 -0.0539165 7.49960961 -0.09363473 11.25 -0.125 C12.84521484 -0.15013672 12.84521484 -0.15013672 14.47265625 -0.17578125 C16.00986328 -0.18544922 16.00986328 -0.18544922 17.578125 -0.1953125 C18.52075195 -0.20578613 19.46337891 -0.21625977 20.43457031 -0.22705078 C23.1655208 0.01464925 24.71921031 0.49921793 27 2 C29.45928744 5.68893116 29.69305579 8.71641421 29 13 C26.8755173 16.44312714 25.85147359 17.71617547 22 19 C20.29983156 19.08178114 18.59663703 19.10749501 16.89453125 19.09765625 C15.91162109 19.09443359 14.92871094 19.09121094 13.91601562 19.08789062 C12.89185547 19.07951172 11.86769531 19.07113281 10.8125 19.0625 C9.77673828 19.05798828 8.74097656 19.05347656 7.67382812 19.04882812 C5.1158608 19.03704026 2.55792314 19.01910482 0 19 C0 12.73 0 6.46 0 0 Z " fill="#000F22" transform="translate(844,620)"/>
<path d="M0 0 C3.39716777 -0.13516583 6.78894608 -0.23419231 10.1875 -0.3125 C11.14720703 -0.35439453 12.10691406 -0.39628906 13.09570312 -0.43945312 C20.23067751 -0.56289559 20.23067751 -0.56289559 24.14453125 2.30078125 C26.5727127 5.83314626 26.60146625 7.78973625 26 12 C24.59539303 14.87305972 23.25489001 16.74510999 21 19 C18.84521484 19.22705078 18.84521484 19.22705078 16.2109375 19.1953125 C15.26992188 19.18886719 14.32890625 19.18242188 13.359375 19.17578125 C12.37453125 19.15902344 11.3896875 19.14226563 10.375 19.125 C9.38242187 19.11597656 8.38984375 19.10695313 7.3671875 19.09765625 C4.91135612 19.07404249 2.45564826 19.0381707 0 19 C0 12.73 0 6.46 0 0 Z " fill="#010F22" transform="translate(844,588)"/>
<path d="M0 0 C14.52 0 29.04 0 44 0 C44 3.63 44 7.26 44 11 C33.44 11 22.88 11 12 11 C12 10.67 12 10.34 12 10 C21.9 10 31.8 10 42 10 C42 7.36 42 4.72 42 2 C28.8 2 15.6 2 2 2 C2 23.12 2 44.24 2 66 C15.53 66 29.06 66 43 66 C43 63.03 43 60.06 43 57 C32.77 57 22.54 57 12 57 C12 56.67 12 56.34 12 56 C22.56 56 33.12 56 44 56 C44 59.63 44 63.26 44 67 C29.48 67 14.96 67 0 67 C0 44.89 0 22.78 0 0 Z " fill="#0E83E2" transform="translate(821,354)"/>
<path d="M0 0 C1.78548275 2.67822413 2.66528974 4.63345086 3.65625 7.640625 C4.10677734 8.99994141 4.10677734 8.99994141 4.56640625 10.38671875 C4.87449219 11.33160156 5.18257812 12.27648437 5.5 13.25 C5.96212891 14.64412109 5.96212891 14.64412109 6.43359375 16.06640625 C8.06772415 21.02490493 9.56406241 25.97421844 11 31 C3.74 31 -3.52 31 -11 31 C-8.91862906 24.06209685 -6.77190041 17.25749416 -4.375 10.4375 C-4.06304688 9.53708984 -3.75109375 8.63667969 -3.4296875 7.70898438 C-3.130625 6.85498047 -2.8315625 6.00097656 -2.5234375 5.12109375 C-2.25450684 4.3520874 -1.98557617 3.58308105 -1.70849609 2.79077148 C-1 1 -1 1 0 0 Z " fill="#010E23" transform="translate(781,592)"/>
<path d="M0 0 C5.28 0 10.56 0 16 0 C16 26.4 16 52.8 16 80 C10.72 80 5.44 80 0 80 C0 53.6 0 27.2 0 0 Z M1 1 C1 26.41 1 51.82 1 78 C5.29 78 9.58 78 14 78 C14 52.59 14 27.18 14 1 C9.71 1 5.42 1 1 1 Z " fill="#0783E0" transform="translate(977,458)"/>
<path d="M0 0 C4.29 0 8.58 0 13 0 C13 0.33 13 0.66 13 1 C9.04 1 5.08 1 1 1 C1 26.41 1 51.82 1 78 C4.96 78 8.92 78 13 78 C12.99476318 76.56164795 12.98952637 75.1232959 12.98413086 73.64135742 C12.96605319 68.31323873 12.95455782 62.98512276 12.94506836 57.65698242 C12.94003449 55.3493606 12.93320695 53.04174197 12.92456055 50.73413086 C12.91245365 47.42040214 12.90676227 44.10671552 12.90234375 40.79296875 C12.89718246 39.7585112 12.89202118 38.72405365 12.88670349 37.6582489 C12.88659019 36.21709465 12.88659019 36.21709465 12.88647461 34.74682617 C12.884254 33.90077316 12.88203339 33.05472015 12.87974548 32.18302917 C13 30 13 30 14 27 C15.32 27.33 16.64 27.66 18 28 C18.33 29.32 18.66 30.64 19 32 C18.01 31.01 17.02 30.02 16 29 C15.67 45.83 15.34 62.66 15 80 C10.05 80 5.1 80 0 80 C0 53.6 0 27.2 0 0 Z " fill="#0B99F8" transform="translate(1202,458)"/>
<path d="M0 0 C0.33 0 0.66 0 1 0 C1.33 9.57 1.66 19.14 2 29 C22.79 29 43.58 29 65 29 C65 29.99 65 30.98 65 32 C43.55 32 22.1 32 0 32 C0 21.44 0 10.88 0 0 Z " fill="#030813" transform="translate(346,420)"/>
<path d="M0 0 C0.33 0 0.66 0 1 0 C1 21.12 1 42.24 1 64 C-2.3 64 -5.6 64 -9 64 C-9 54.76 -9 45.52 -9 36 C-8.67 36 -8.34 36 -8 36 C-8 44.58 -8 53.16 -8 62 C-6.02 61.34 -4.04 60.68 -2 60 C-1.98969254 59.27781281 -1.97938507 58.55562561 -1.96876526 57.81155396 C-1.8708807 51.01323885 -1.76837919 44.21500744 -1.66066074 37.41684151 C-1.60544228 33.92164403 -1.55202404 30.42643816 -1.50268555 26.93115234 C-1.44591564 22.91494504 -1.38137781 18.89889555 -1.31640625 14.8828125 C-1.29133751 12.99527756 -1.29133751 12.99527756 -1.26576233 11.0696106 C-1.2358445 9.32803177 -1.2358445 9.32803177 -1.20532227 7.55126953 C-1.18200584 6.01238571 -1.18200584 6.01238571 -1.15821838 4.44241333 C-1 2 -1 2 0 0 Z " fill="#0A8FF7" transform="translate(801,357)"/>
<path d="M0 0 C17.16 0 34.32 0 52 0 C52 3.63 52 7.26 52 11 C45.4 11 38.8 11 32 11 C32 10.67 32 10.34 32 10 C38.27 10 44.54 10 51 10 C51 7.36 51 4.72 51 2 C34.83 2 18.66 2 2 2 C2 4.64 2 7.28 2 10 C7.94 10 13.88 10 20 10 C20 10.33 20 10.66 20 11 C13.4 11 6.8 11 0 11 C0 7.37 0 3.74 0 0 Z " fill="#0B87E7" transform="translate(683,354)"/>
<path d="M0 0 C0.33 0 0.66 0 1 0 C1 25.74 1 51.48 1 78 C-3.75242438 73.24757562 -2.1456676 62.37070806 -2.18945312 55.95214844 C-2.18880859 54.85418945 -2.18816406 53.75623047 -2.1875 52.625 C-2.18814453 51.45485352 -2.18878906 50.28470703 -2.18945312 49.07910156 C-2.09620853 32.6977212 -1.01650937 16.34525444 0 0 Z " fill="#030910" transform="translate(828,575)"/>
<path d="M0 0 C0.99 0.495 0.99 0.495 2 1 C3.64487568 10.3946011 3.06644641 20.20290835 2.87890625 29.70703125 C2.85452826 31.16817874 2.83068896 32.6293353 2.80735779 34.09049988 C2.74527883 37.88968449 2.6760073 41.68870316 2.60510254 45.48773193 C2.5337194 49.38302211 2.46932503 53.2784276 2.40429688 57.17382812 C2.27627061 64.78267983 2.14062583 72.3913696 2 80 C1.01 80.495 1.01 80.495 0 81 C0 54.27 0 27.54 0 0 Z " fill="#030716" transform="translate(993,457)"/>
<path d="M0 0 C6.6 0 13.2 0 20 0 C19.67 0.66 19.34 1.32 19 2 C13.39 2 7.78 2 2 2 C2.0721875 3.88460938 2.144375 5.76921875 2.21875 7.7109375 C3.10024426 31.3703686 3.10024426 31.3703686 3.1875 41.4375 C3.20039062 42.13214355 3.21328125 42.82678711 3.2265625 43.54248047 C3.23493565 47.73010123 2.52299438 51.10522782 1 55 C0.67 55 0.34 55 0 55 C0 36.85 0 18.7 0 0 Z " fill="#040714" transform="translate(715,366)"/>
<path d="M0 0 C3.96 0 7.92 0 12 0 C12 0.33 12 0.66 12 1 C8.37 1 4.74 1 1 1 C1 10.57 1 20.14 1 30 C-8.9 30 -18.8 30 -29 30 C-29 21.42 -29 12.84 -29 4 C-28.67 4 -28.34 4 -28 4 C-28 11.92 -28 19.84 -28 28 C-19.09 28 -10.18 28 -1 28 C-1.03955825 19.5334153 -1.03955825 19.5334153 -1.09008789 11.06689453 C-1.09258545 10.01614746 -1.09508301 8.96540039 -1.09765625 7.8828125 C-1.10551147 6.26463623 -1.10551147 6.26463623 -1.11352539 4.61376953 C-1 2 -1 2 0 0 Z " fill="#020715" transform="translate(790,352)"/>
<path d="M0 0 C0.66 0 1.32 0 2 0 C2 10.56 2 21.12 2 32 C10.91 32 19.82 32 29 32 C29.33 31.34 29.66 30.68 30 30 C30 31.32 30 32.64 30 34 C20.1 34 10.2 34 0 34 C0 22.78 0 11.56 0 0 Z " fill="#031532" transform="translate(345,374)"/>
<path d="M0 0 C2.15502531 3.23253796 2.46856135 4.25150923 2 8 C0.9375 9.8125 0.9375 9.8125 -1 11 C-4.5625 11.3125 -4.5625 11.3125 -8 11 C-10 9 -10 9 -10.3125 5.5625 C-10 2 -10 2 -8.9375 0 C-5.77203476 -1.63378851 -3.34979714 -0.85267564 0 0 Z " fill="#020C1D" transform="translate(575,472)"/>
<path d="M0 0 C3.4375 0.75 3.4375 0.75 5.4375 2.75 C5.3125 6.25 5.3125 6.25 4.4375 9.75 C2.6875 11.25 2.6875 11.25 0.4375 11.75 C-2.91227063 11.43097423 -4.15429639 11.15820361 -6.5625 8.75 C-6.875 5.25 -6.875 5.25 -6.5625 1.75 C-3.5625 -0.25 -3.5625 -0.25 0 0 Z " fill="#020C20" transform="translate(393.5625,405.25)"/>
<path d="M0 0 C2 2 2 2 2.25 5.5 C2 9 2 9 0 11 C-6.09583333 11.55416667 -6.09583333 11.55416667 -8.9375 9.8125 C-10.38718434 7.33950907 -10.42317323 5.82115488 -10 3 C-7.65916893 -0.99318242 -4.22752593 -0.38432054 0 0 Z " fill="#020D21" transform="translate(478,448)"/>
<path d="M0 0 C3.7501919 -0.0539165 7.49960961 -0.09363473 11.25 -0.125 C12.84521484 -0.15013672 12.84521484 -0.15013672 14.47265625 -0.17578125 C16.00986328 -0.18544922 16.00986328 -0.18544922 17.578125 -0.1953125 C18.52075195 -0.20578613 19.46337891 -0.21625977 20.43457031 -0.22705078 C23.13506607 0.01195389 24.73292865 0.53635819 27 2 C28.60725635 5.21451269 28.05748185 8.43612536 28 12 C27.67 12 27.34 12 27 12 C26.67 9.69 26.34 7.38 26 5 C23.0804957 4.0268319 20.94555049 3.8070454 17.89453125 3.68359375 C16.42016602 3.62075195 16.42016602 3.62075195 14.91601562 3.55664062 C13.89185547 3.51732422 12.86769531 3.47800781 11.8125 3.4375 C10.77673828 3.39431641 9.74097656 3.35113281 8.67382812 3.30664062 C6.11604298 3.20055737 3.55803902 3.09977414 1 3 C1 7.95 1 12.9 1 18 C1.66 18.33 2.32 18.66 3 19 C2.01 19 1.02 19 0 19 C0 12.73 0 6.46 0 0 Z " fill="#05091A" transform="translate(844,620)"/>
<path d="M0 0 C6.6 0 13.2 0 20 0 C20 0.66 20 1.32 20 2 C14.06 2 8.12 2 2 2 C2 9.26 2 16.52 2 24 C7.94 24 13.88 24 20 24 C20 24.33 20 24.66 20 25 C13.4 25 6.8 25 0 25 C0 16.75 0 8.5 0 0 Z " fill="#030713" transform="translate(771,472)"/>
<path d="M0 0 C3 0.25 3 0.25 5 2.25 C5.25 5.25 5.25 5.25 5 8.25 C3 10.25 3 10.25 0 10.5 C-3 10.25 -3 10.25 -5 8.25 C-5.25 5.25 -5.25 5.25 -5 2.25 C-3 0.25 -3 0.25 0 0 Z " fill="#020D22" transform="translate(395,552.75)"/>
<path d="M0 0 C0.33 0 0.66 0 1 0 C1 13.86 1 27.72 1 42 C0.01 41.67 -0.98 41.34 -2 41 C-1.505 38.03 -1.505 38.03 -1 35 C-1.66 34.67 -2.32 34.34 -3 34 C-2.505 33.505 -2.505 33.505 -2 33 C-1.85257984 30.6382379 -1.76515541 28.30183479 -1.71875 25.9375 C-1.70034058 25.23101318 -1.68193115 24.52452637 -1.66296387 23.79663086 C-1.60404448 21.53117416 -1.55129573 19.26564141 -1.5 17 C-1.43254576 14.02066593 -1.3588781 11.04158437 -1.28125 8.0625 C-1.26767456 7.3708374 -1.25409912 6.6791748 -1.2401123 5.96655273 C-1.11280181 1.11280181 -1.11280181 1.11280181 0 0 Z " fill="#040819" transform="translate(440,606)"/>
<path d="M0 0 C12.54 0 25.08 0 38 0 C38 4.29 38 8.58 38 13 C37.67 13 37.34 13 37 13 C36.67 9.7 36.34 6.4 36 3 C24.45 2.67 12.9 2.34 1 2 C0.67 1.34 0.34 0.68 0 0 Z " fill="#0D7FD8" transform="translate(847,523)"/>
<path d="M0 0 C0.66 0.66 1.32 1.32 2 2 C1.625 5.625 1.625 5.625 1 9 C-2.375 9.625 -2.375 9.625 -6 10 C-6.66 9.34 -7.32 8.68 -8 8 C-7.75 4.4375 -7.75 4.4375 -7 1 C-4.48718205 -0.25640898 -2.78302919 -0.20872719 0 0 Z " fill="#020D25" transform="translate(542,535)"/>
<path d="M0 0 C0.33 0 0.66 0 1 0 C1 2.64 1 5.28 1 8 C-3.62 8 -8.24 8 -13 8 C-13 12.29 -13 16.58 -13 21 C-13.66 20.67 -14.32 20.34 -15 20 C-15.05406122 18.06280622 -15.09282025 16.12518079 -15.125 14.1875 C-15.14820313 13.10855469 -15.17140625 12.02960938 -15.1953125 10.91796875 C-15 8 -15 8 -13 5 C-9.9609375 4.70703125 -9.9609375 4.70703125 -6.375 4.8125 C-5.18648437 4.83957031 -3.99796875 4.86664063 -2.7734375 4.89453125 C-1.85820313 4.92933594 -0.94296875 4.96414063 0 5 C0 3.35 0 1.7 0 0 Z " fill="#040816" transform="translate(524,444)"/>
<path d="M0 0 C5.94 0 11.88 0 18 0 C18 0.33 18 0.66 18 1 C16.02 1 14.04 1 12 1 C12 1.66 12 2.32 12 3 C8.37 3 4.74 3 1 3 C1 7.95 1 12.9 1 18 C5.95 18 10.9 18 16 18 C16 18.33 16 18.66 16 19 C10.72 19 5.44 19 0 19 C0 12.73 0 6.46 0 0 Z " fill="#020619" transform="translate(844,588)"/>
<path d="M0 0 C1.65 0 3.3 0 5 0 C5 4.62 5 9.24 5 14 C9.62 13.67 14.24 13.34 19 13 C18.67 13.99 18.34 14.98 18 16 C15.68756208 16.02685412 13.3750373 16.04632841 11.0625 16.0625 C9.77472656 16.07410156 8.48695313 16.08570313 7.16015625 16.09765625 C4 16 4 16 3 15 C2.76518307 12.81707226 2.58636677 10.62796826 2.4375 8.4375 C2.35371094 7.23996094 2.26992188 6.04242188 2.18359375 4.80859375 C2.12300781 3.88175781 2.06242187 2.95492188 2 2 C1.01 1.67 0.02 1.34 -1 1 C-0.67 0.67 -0.34 0.34 0 0 Z " fill="#04081B" transform="translate(464,400)"/>
<path d="M0 0 C1.77007714 -0.08114106 3.54122098 -0.13925505 5.3125 -0.1875 C6.29863281 -0.22230469 7.28476562 -0.25710938 8.30078125 -0.29296875 C11 0 11 0 12.84375 1.125 C14.52442783 3.85042351 14.28970839 6.01903988 14.1875 9.1875 C14.16042969 10.27417969 14.13335937 11.36085938 14.10546875 12.48046875 C14.07066406 13.31191406 14.03585937 14.14335937 14 15 C13.01 15.495 13.01 15.495 12 16 C12 11.71 12 7.42 12 3 C7.71 3 3.42 3 -1 3 C-0.67 2.01 -0.34 1.02 0 0 Z " fill="#040814" transform="translate(425,449)"/>
<path d="M0 0 C3.99578864 3.63166402 6.8827339 7.90006008 9.9375 12.3125 C10.96728342 13.78787524 11.99722963 15.26313688 13.02734375 16.73828125 C13.76960205 17.8048999 13.76960205 17.8048999 14.52685547 18.89306641 C16.66118368 21.94564388 18.82901166 24.97341037 21 28 C20.67 28.66 20.34 29.32 20 30 C15.07005549 23.6456248 10.15942549 17.27747638 5.375 10.8125 C4.72273438 9.93207031 4.07046875 9.05164063 3.3984375 8.14453125 C2 6 2 6 2 4 C1.01 4 0.02 4 -1 4 C-0.67 2.68 -0.34 1.36 0 0 Z " fill="#0C8FE8" transform="translate(1215,458)"/>
<path d="M0 0 C0.66386719 0.20496094 1.32773437 0.40992188 2.01171875 0.62109375 C2.89472656 0.89050781 3.77773438 1.15992188 4.6875 1.4375 C5.55761719 1.70433594 6.42773438 1.97117187 7.32421875 2.24609375 C9.87025921 2.96344529 12.4003423 3.517541 15 4 C15 4.66 15 5.32 15 6 C17.64 6.33 20.28 6.66 23 7 C23 7.66 23 8.32 23 9 C23.66 9 24.32 9 25 9 C25 9.66 25 10.32 25 11 C16.70620117 8.82144455 8.6754342 5.83237952 1 2 C0.67 1.34 0.34 0.68 0 0 Z " fill="#0B89E3" transform="translate(544,348)"/>
<path d="M0 0 C0.66 0 1.32 0 2 0 C3.3046875 1.36328125 3.3046875 1.36328125 4.875 3.3125 C8.95818866 8.13496071 13.54029276 12.27149068 18.23046875 16.484375 C20.55780657 18.59834616 22.80121002 20.75398064 25 23 C21.36551361 21.72684983 18.92894642 20.3231504 16.15234375 17.6640625 C15.46462891 17.01179687 14.77691406 16.35953125 14.06835938 15.6875 C13.36517578 15.006875 12.66199219 14.32625 11.9375 13.625 C11.23044922 12.95210937 10.52339844 12.27921875 9.79492188 11.5859375 C7.8534825 9.73382256 5.92636305 7.86776032 4 6 C3.17628906 5.22398437 2.35257812 4.44796875 1.50390625 3.6484375 C0 2 0 2 0 0 Z " fill="#0C94EE" transform="translate(374,616)"/>
<path d="M0 0 C0.66 0 1.32 0 2 0 C1.67 0.99 1.34 1.98 1 3 C0.34 3 -0.32 3 -1 3 C-1.22816406 3.57105469 -1.45632813 4.14210938 -1.69140625 4.73046875 C-3.35255782 7.61145102 -5.34971411 9.23391133 -7.9375 11.3125 C-8.81277344 12.03050781 -9.68804688 12.74851562 -10.58984375 13.48828125 C-11.38519531 13.98714844 -12.18054688 14.48601563 -13 15 C-13.99 14.67 -14.98 14.34 -16 14 C-15.55084229 13.61142822 -15.10168457 13.22285645 -14.63891602 12.82250977 C-12.61310199 11.06956798 -10.58779476 9.3160417 -8.5625 7.5625 C-7.85544922 6.95083984 -7.14839844 6.33917969 -6.41992188 5.70898438 C-5.74638672 5.12568359 -5.07285156 4.54238281 -4.37890625 3.94140625 C-3.44413452 3.13231812 -3.44413452 3.13231812 -2.49047852 2.30688477 C-1.63964878 1.5608583 -0.80014584 0.80014584 0 0 Z " fill="#088CEE" transform="translate(555,613)"/>
<path d="M0 0 C-6.49821512 2.9305676 -11.59619749 4.13539194 -18.8125 4.0625 C-19.97394531 4.05347656 -21.13539063 4.04445313 -22.33203125 4.03515625 C-23.21246094 4.02355469 -24.09289062 4.01195312 -25 4 C-25 3.34 -25 2.68 -25 2 C-24.154375 1.95101562 -23.30875 1.90203125 -22.4375 1.8515625 C-14.85619046 1.38875894 -14.85619046 1.38875894 -7.4375 -0.125 C-4.10206387 -0.97402011 -3.11021694 -0.96641314 0 0 Z " fill="#0F82D3" transform="translate(952,535)"/>
<path d="M0 0 C2.8671875 1.46875 2.8671875 1.46875 5 3 C5 3.33 5 3.66 5 4 C3.35 4 1.7 4 0 4 C0 3.34 0 2.68 0 2 C-6.99345013 1.49343218 -11.2524586 1.86177019 -17 6 C-19.35659368 8.10280634 -19.35659368 8.10280634 -21 10 C-19.88865835 5.67811582 -17.88887679 3.36218265 -14.265625 0.94921875 C-9.73215505 -0.95014883 -4.79038159 -0.78316865 0 0 Z " fill="#0C91ED" transform="translate(545,523)"/>
<path d="M0 0 C2.625 0.25 2.625 0.25 4.3125 1.4375 C7.03802881 5.2013255 7.81729186 7.97554012 7.25 12.5625 C7.04375 13.779375 6.8375 14.99625 6.625 16.25 C5.635 16.25 4.645 16.25 3.625 16.25 C3.955 15.92 4.285 15.59 4.625 15.25 C5.14944868 10.26117902 5.14944868 10.26117902 2.875 6 C2.1325 5.4225 1.39 4.845 0.625 4.25 C-0.1175 3.6725 -0.86 3.095 -1.625 2.5 C-2.2025 2.0875 -2.78 1.675 -3.375 1.25 C-2.375 0.25 -2.375 0.25 0 0 Z " fill="#0B92F5" transform="translate(1044.375,503.75)"/>
<path d="M0 0 C1.32 0.66 2.64 1.32 4 2 C3.74438677 4.3431213 3.40729228 6.67843403 3 9 C0.13822943 10.43088528 -1.93375773 9.59991697 -5 9 C-4.6390625 8.51789063 -4.278125 8.03578125 -3.90625 7.5390625 C-3.4421875 6.90742188 -2.978125 6.27578125 -2.5 5.625 C-2.0359375 4.99851562 -1.571875 4.37203125 -1.09375 3.7265625 C0.17838101 2.05905387 0.17838101 2.05905387 0 0 Z " fill="#020F24" transform="translate(395,406)"/>
<path d="M0 0 C1.74949772 2.62424658 2.65389981 4.55727216 3.625 7.5 C3.88539063 8.2734375 4.14578125 9.046875 4.4140625 9.84375 C5 12 5 12 5 15 C4.34 15 3.68 15 3 15 C3 14.01 3 13.02 3 12 C1.35 13.32 -0.3 14.64 -2 16 C-1.01 12.04 -0.02 8.08 1 4 C0.34 4 -0.32 4 -1 4 C-0.67 2.68 -0.34 1.36 0 0 Z " fill="#011334" transform="translate(781,592)"/>
<path d="M0 0 C5.61 0 11.22 0 17 0 C16.67 0.99 16.34 1.98 16 3 C10.72 3 5.44 3 0 3 C0 2.01 0 1.02 0 0 Z " fill="#050A15" transform="translate(801,538)"/>
<path d="M0 0 C0 0.33 0 0.66 0 1 C-0.93972656 1.18175781 -0.93972656 1.18175781 -1.8984375 1.3671875 C-2.71570313 1.53476562 -3.53296875 1.70234375 -4.375 1.875 C-5.18710937 2.03742188 -5.99921875 2.19984375 -6.8359375 2.3671875 C-9.18673923 2.86658932 -9.18673923 2.86658932 -11 5 C-12.32 5 -13.64 5 -15 5 C-15.33 5.99 -15.66 6.98 -16 8 C-18.0625 9.1875 -18.0625 9.1875 -20 10 C-18.87958882 5.64284539 -16.84100449 3.39326575 -13.21875 0.9375 C-8.97947306 -0.85374378 -4.50686936 -0.36674344 0 0 Z " fill="#088EEE" transform="translate(397,393)"/>
<path d="M0 0 C0.33 0.66 0.66 1.32 1 2 C0.69578125 2.59683594 0.3915625 3.19367187 0.078125 3.80859375 C-1.19647095 6.39934857 -1.2673323 8.18967084 -1.25 11.0625 C-1.25773437 12.34833984 -1.25773437 12.34833984 -1.265625 13.66015625 C-1.14992488 16.27052798 -1.14992488 16.27052798 1 19 C1 19.99 1 20.98 1 22 C1.66 22.33 2.32 22.66 3 23 C2.01 23 1.02 23 0 23 C-3.30328914 17.45519323 -4.82282315 13.47973231 -4 7 C-2.87225945 4.43827901 -1.56319797 2.34479695 0 0 Z " fill="#0C86DE" transform="translate(381,547)"/>
<path d="M0 0 C3.08236365 2.78407039 3.95206337 3.80825346 5 8 C-0.61 8 -6.22 8 -12 8 C-12 7.34 -12 6.68 -12 6 C-7.38 5.67 -2.76 5.34 2 5 C1.34 3.35 0.68 1.7 0 0 Z " fill="#098EEB" transform="translate(813,530)"/>
<path d="M0 0 C-1.42183426 3.58880092 -2.88855295 4.79665827 -6.3125 6.5 C-9.88351394 8.36038307 -12.94794686 10.34176017 -16 13 C-16.66 12.67 -17.32 12.34 -18 12 C-4.99711816 0 -4.99711816 0 0 0 Z " fill="#088AEB" transform="translate(448,393)"/>
<path d="M0 0 C3 1 3 1 4.4375 2.5 C7.65496672 5.58876805 11.86281945 5.21530718 16.1015625 5.16015625 C19.6809936 4.85818778 21.51866829 3.48133171 24 1 C24.66 1.66 25.32 2.32 26 3 C20.35472333 7.47728839 15.02627295 7.72415627 8 7 C5.12798171 5.98928973 3.47092338 4.8800504 1 3 C0.67 2.01 0.34 1.02 0 0 Z " fill="#1092EC" transform="translate(557,488)"/>
<path d="M0 0 C5.36470588 -0.3657754 5.36470588 -0.3657754 8.0625 1.1875 C10.43139546 3.4035635 12.70626767 5.70626767 15 8 C16.96914708 9.70845621 18.97767554 11.35392195 21 13 C20.67 13.66 20.34 14.32 20 15 C18.24775086 13.58611621 16.49829345 12.16877217 14.75 10.75 C13.77546875 9.96109375 12.8009375 9.1721875 11.796875 8.359375 C9 6 9 6 6.8125 3.75 C4.6074034 1.62094122 3.00060391 1.33340043 0 1 C0 0.67 0 0.34 0 0 Z " fill="#098EEC" transform="translate(389,511)"/>
<path d="M0 0 C2.59579673 3.89369509 4.07312927 8.03960309 5.78125 12.3828125 C6.72694893 15.12265568 6.72694893 15.12265568 9 16 C10.1875 17.875 10.1875 17.875 11 20 C10.67 20.99 10.34 21.98 10 23 C4.98967562 16.08575236 0 8.77988458 0 0 Z " fill="#1391EA" transform="translate(415,467)"/>
<path d="M0 0 C-1.01320313 0.32613281 -2.02640625 0.65226562 -3.0703125 0.98828125 C-4.42195504 1.42944236 -5.77351307 1.87086242 -7.125 2.3125 C-7.79015625 2.52583984 -8.4553125 2.73917969 -9.140625 2.95898438 C-13.29475634 4.32333143 -17.12504869 5.94180935 -21 8 C-20.67 7.01 -20.34 6.02 -20 5 C-19.34 5 -18.68 5 -18 5 C-17.835 4.360625 -17.67 3.72125 -17.5 3.0625 C-16 1 -16 1 -12.125 0.3125 C-11.41085937 0.25964844 -10.69671875 0.20679688 -9.9609375 0.15234375 C-7.92781906 0.05759 -7.92781906 0.05759 -5.75 -0.625 C-3.56897588 -1.09236231 -2.12567036 -0.58851204 0 0 Z " fill="#0A92F4" transform="translate(469,399)"/>
<path d="M0 0 C1.46224799 0.42423244 2.91973412 0.86490245 4.375 1.3125 C5.18710938 1.55613281 5.99921875 1.79976563 6.8359375 2.05078125 C9 3 9 3 11 6 C7.30458414 6.95024979 4.69541586 6.95024979 1 6 C1 5.34 1 4.68 1 4 C1.66 3.67 2.32 3.34 3 3 C2.01 2.67 1.02 2.34 0 2 C0 1.34 0 0.68 0 0 Z " fill="#01142F" transform="translate(1038,505)"/>
<path d="M0 0 C0 0.66 0 1.32 0 2 C-1.32 2 -2.64 2 -4 2 C-4.226875 2.61875 -4.45375 3.2375 -4.6875 3.875 C-6.37929835 6.61410209 -7.99244161 7.05024472 -11 8 C-11 7.34 -11 6.68 -11 6 C-11.99 5.67 -12.98 5.34 -14 5 C-12.04350603 4.16235732 -10.08474444 3.33000941 -8.125 2.5 C-6.48917969 1.80390625 -6.48917969 1.80390625 -4.8203125 1.09375 C-2 0 -2 0 0 0 Z " fill="#011433" transform="translate(426,341)"/>
<path d="M0 0 C1.77007714 -0.08114106 3.54122098 -0.13925505 5.3125 -0.1875 C6.29863281 -0.22230469 7.28476562 -0.25710938 8.30078125 -0.29296875 C11 0 11 0 14 3 C6.08 3.495 6.08 3.495 -2 4 C-1.34 2.68 -0.68 1.36 0 0 Z " fill="#020A17" transform="translate(684,571)"/>
<path d="M0 0 C-6.52153125 4.97695806 -13.91754763 6.93651942 -22 8 C-18.32191116 5.54794077 -14.50941355 3.9987115 -10.4375 2.3125 C-9.65697266 1.97927734 -8.87644531 1.64605469 -8.07226562 1.30273438 C-7.32525391 0.99271484 -6.57824219 0.68269531 -5.80859375 0.36328125 C-5.12595459 0.07751221 -4.44331543 -0.20825684 -3.73999023 -0.50268555 C-2 -1 -2 -1 0 0 Z " fill="#0D8CE6" transform="translate(370,345)"/>
<path d="M0 0 C0 3.73869249 -0.90485692 4.36550705 -3.375 7.0625 C-4.31472656 8.10083984 -4.31472656 8.10083984 -5.2734375 9.16015625 C-6.49397067 10.46076965 -7.73879097 11.73879097 -9 13 C-9.99 13 -10.98 13 -12 13 C-12 12.34 -12 11.68 -12 11 C-11.01 11 -10.02 11 -9 11 C-8.34 9.68 -7.68 8.36 -7 7 C-6.34 7 -5.68 7 -5 7 C-5 6.34 -5 5.68 -5 5 C-4.34 5 -3.68 5 -3 5 C-2.87625 4.360625 -2.7525 3.72125 -2.625 3.0625 C-2.41875 2.381875 -2.2125 1.70125 -2 1 C-1.34 0.67 -0.68 0.34 0 0 Z " fill="#020819" transform="translate(572,593)"/>
<path d="M0 0 C-1.36944102 2.94956528 -2.87830409 5.52468811 -5 8 C-5.66 8 -6.32 8 -7 8 C-8.70680947 9.62553283 -10.37660195 11.29115995 -12 13 C-11.46960703 8.942959 -9.42356448 7.05155434 -6.5625 4.25 C-5.75941406 3.45078125 -4.95632813 2.6515625 -4.12890625 1.828125 C-2 0 -2 0 0 0 Z " fill="#0792F6" transform="translate(530,560)"/>
<path d="M0 0 C1.93242285 3.34520258 2.5463853 6.44767482 3.125 10.25 C3.29257812 11.32765625 3.46015625 12.4053125 3.6328125 13.515625 C3.75398438 14.33546875 3.87515625 15.1553125 4 16 C3.34 16.33 2.68 16.66 2 17 C1.67 15.02 1.34 13.04 1 11 C0.34 11 -0.32 11 -1 11 C-1.0270043 9.54176788 -1.04639787 8.08339325 -1.0625 6.625 C-1.07410156 5.81289063 -1.08570313 5.00078125 -1.09765625 4.1640625 C-1 2 -1 2 0 0 Z " fill="#031434" transform="translate(329,535)"/>
<path d="M0 0 C2.64752004 2.57784846 4.94432065 4.91648098 7 8 C7 10.0625 7 10.0625 6 12 C2.9375 13.25 2.9375 13.25 0 14 C-0.33 13.34 -0.66 12.68 -1 12 C0.65 11.34 2.3 10.68 4 10 C3.71125 9.278125 3.4225 8.55625 3.125 7.8125 C2.08333333 5.20833333 1.04166667 2.60416667 0 0 Z " fill="#0B8EEB" transform="translate(958,466)"/>
<path d="M0 0 C0.66 0.66 1.32 1.32 2 2 C0.515 4.475 0.515 4.475 -1 7 C-0.34 7.66 0.32 8.32 1 9 C0.01 9.495 0.01 9.495 -1 10 C-2.9453125 9.22265625 -2.9453125 9.22265625 -5.125 8.0625 C-5.84945313 7.68222656 -6.57390625 7.30195313 -7.3203125 6.91015625 C-7.87460937 6.60980469 -8.42890625 6.30945313 -9 6 C-8.38511719 5.85304688 -7.77023437 5.70609375 -7.13671875 5.5546875 C-4.83803119 4.95795325 -3.01941457 4.25342973 -1 3 C-0.67 2.01 -0.34 1.02 0 0 Z " fill="#0686ED" transform="translate(502,397)"/>
<path d="M0 0 C6.61242722 1.82221376 12.80520671 4.05223604 19 7 C16 8 16 8 13 8 C13 7.34 13 6.68 13 6 C11.35 6 9.7 6 8 6 C8 5.34 8 4.68 8 4 C5.69 3.67 3.38 3.34 1 3 C0.67 2.01 0.34 1.02 0 0 Z " fill="#0F93EF" transform="translate(536,327)"/>
<path d="M0 0 C0 4.15463008 -1.16749766 6.08391309 -3.9453125 9.140625 C-4.66460938 9.83671875 -5.38390625 10.5328125 -6.125 11.25 C-6.84945312 11.95640625 -7.57390625 12.6628125 -8.3203125 13.390625 C-8.87460937 13.92171875 -9.42890625 14.4528125 -10 15 C-10 10.79452429 -7.63261876 8.83289639 -5 5.8125 C-4.52304687 5.25369141 -4.04609375 4.69488281 -3.5546875 4.11914062 C-2.37633794 2.74047164 -1.18901048 1.36948528 0 0 Z " fill="#0A8FED" transform="translate(579,587)"/>
<path d="M0 0 C-1.02620862 2.2102955 -2.05716794 4.07317497 -3.5625 6 C-5.03193986 8.04443806 -5.56164648 9.54522028 -6 12 C-6.66 12 -7.32 12 -8 12 C-8 13.65 -8 15.3 -8 17 C-8.33 17 -8.66 17 -9 17 C-8.96976128 10.46843612 -7.53145045 6.54946948 -3.47265625 1.43359375 C-2 0 -2 0 0 0 Z " fill="#0983DB" transform="translate(561,463)"/>
<path d="M0 0 C1.81643761 3.11389304 2.2719038 5.40777709 2.25 9 C2.25515625 9.845625 2.2603125 10.69125 2.265625 11.5625 C1.98531155 14.13478811 1.2948187 15.7803108 0 18 C-1.04167441 13.90274731 -0.94409525 10.38504776 -0.5625 6.1875 C-0.46066406 5.02605469 -0.35882812 3.86460937 -0.25390625 2.66796875 C-0.17011719 1.78753906 -0.08632813 0.90710938 0 0 Z " fill="#0B8AE8" transform="translate(741,475)"/>
<path d="M0 0 C3.375 0.3125 3.375 0.3125 7 1 C9.15502531 4.23253796 9.46856135 5.25150923 9 9 C7.625 10.8125 7.625 10.8125 6 12 C5.34 12 4.68 12 4 12 C4.33 11.01 4.66 10.02 5 9 C5.66 9 6.32 9 7 9 C6.96906827 6.58414426 6.96906827 6.58414426 6 4 C3.03292954 2.14083176 3.03292954 2.14083176 0 1 C0 0.67 0 0.34 0 0 Z " fill="#021436" transform="translate(568,471)"/>
<path d="M0 0 C0 0.66 0 1.32 0 2 C0.66 2 1.32 2 2 2 C1.67 2.66 1.34 3.32 1 4 C0.01 4 -0.98 4 -2 4 C-2 3.34 -2 2.68 -2 2 C-6.23084903 3.68807908 -6.23084903 3.68807908 -9 7 C-11.5625 7.625 -11.5625 7.625 -14 8 C-9.99534768 3.641996 -6.17328196 0 0 0 Z " fill="#0B90F4" transform="translate(1136,459)"/>
<path d="M0 0 C0.33 0 0.66 0 1 0 C1 8.73684211 1 8.73684211 -1 12 C-1.99 12.66 -2.98 13.32 -4 14 C-3.46148032 8.72250715 -2.22656164 4.74354436 0 0 Z " fill="#0B8BEC" transform="translate(758,614)"/>
<path d="M0 0 C0.33 0 0.66 0 1 0 C1.33 4.95 1.66 9.9 2 15 C1.01 15.33 0.02 15.66 -1 16 C-1.66 15.34 -2.32 14.68 -3 14 C-2.68289063 13.44828125 -2.36578125 12.8965625 -2.0390625 12.328125 C-0.87290025 9.71522011 -0.59954289 7.59420998 -0.375 4.75 C-0.30023437 3.85796875 -0.22546875 2.9659375 -0.1484375 2.046875 C-0.09945312 1.37140625 -0.05046875 0.6959375 0 0 Z " fill="#011E45" transform="translate(556,536)"/>
<path d="M0 0 C1.76647063 2.64970595 2.97014997 5.01498099 4.1875 7.9375 C4.55230469 8.79214844 4.91710937 9.64679687 5.29296875 10.52734375 C6.05225403 13.18274477 5.93187432 14.44179725 5 17 C4.34 16.67 3.68 16.34 3 16 C3.33 14.68 3.66 13.36 4 12 C3.34 12 2.68 12 2 12 C0.86235649 7.73383684 0 4.43513689 0 0 Z " fill="#0C8CE9" transform="translate(811,634)"/>
<path d="M0 0 C1.2077558 3.62326739 0.54311128 4.64146369 -1 8 C-1.66 8 -2.32 8 -3 8 C-3.433125 9.4540625 -3.433125 9.4540625 -3.875 10.9375 C-5 14 -5 14 -7 15 C-5.45454854 9.52067211 -2.84456788 4.88570819 0 0 Z " fill="#0D90F0" transform="translate(597,557)"/>
<path d="M0 0 C0 4.06305373 -1.6738213 5.70458018 -4 9 C-4.75352111 10.12264462 -5.50369456 11.24754571 -6.25 12.375 C-6.8275 13.24125 -7.405 14.1075 -8 15 C-8.33 14.01 -8.66 13.02 -9 12 C-7.890625 9.84375 -7.890625 9.84375 -6.25 7.5 C-5.45335937 6.33984375 -5.45335937 6.33984375 -4.640625 5.15625 C-3.20031148 3.26326652 -1.73002206 1.62580387 0 0 Z " fill="#0A93F1" transform="translate(1121,467)"/>
<path d="M0 0 C0.66 0.33 1.32 0.66 2 1 C-1.60575001 5.58913637 -5.47384007 9.32167983 -10 13 C-10.66 12.67 -11.32 12.34 -12 12 C-8.04 8.04 -4.08 4.08 0 0 Z " fill="#020411" transform="translate(579,615)"/>
<path d="M0 0 C0 2 0 2 -2.1875 4.375 C-4.70708502 6.72661268 -7.28942507 8.87549532 -10 11 C-10.66 11.66 -11.32 12.32 -12 13 C-11.46960703 8.942959 -9.42356448 7.05155434 -6.5625 4.25 C-5.75941406 3.45078125 -4.95632813 2.6515625 -4.12890625 1.828125 C-2 0 -2 0 0 0 Z " fill="#020514" transform="translate(529,578)"/>
<path d="M0 0 C3.96 0 7.92 0 12 0 C12 0.99 12 1.98 12 3 C8.04 2.67 4.08 2.34 0 2 C0 1.34 0 0.68 0 0 Z " fill="#080915" transform="translate(468,433)"/>
<path d="M0 0 C0.66 0 1.32 0 2 0 C2.71033431 5.52967941 3.30267176 10.49983036 2 16 C1.67 16 1.34 16 1 16 C0.67 10.72 0.34 5.44 0 0 Z " fill="#020716" transform="translate(410,401)"/>
<path d="M0 0 C0.8353125 0.680625 0.8353125 0.680625 1.6875 1.375 C4.05313439 3.03733768 6.29015658 4.02144543 9 5 C8.67 5.66 8.34 6.32 8 7 C6.5459375 6.2884375 6.5459375 6.2884375 5.0625 5.5625 C0.80163851 3.71147001 -3.40015606 3.30248407 -8 3 C-8 2.67 -8 2.34 -8 2 C-5.36 2 -2.72 2 0 2 C0 1.34 0 0.68 0 0 Z " fill="#0D83D9" transform="translate(479,320)"/>
<path d="M0 0 C1.65 0 3.3 0 5 0 C0 6.57142857 0 6.57142857 -5 8 C-5 7.34 -5 6.68 -5 6 C-3.68 5.67 -2.36 5.34 -1 5 C-0.67 3.35 -0.34 1.7 0 0 Z " fill="#02081A" transform="translate(544,618)"/>
<path d="M0 0 C2.2477975 2.05233685 3.0022242 3.00667261 4 6 C4.0685495 7.89470816 4.08480372 9.7916834 4.0625 11.6875 C4.05347656 12.68136719 4.04445313 13.67523437 4.03515625 14.69921875 C4.02355469 15.45847656 4.01195312 16.21773437 4 17 C3.67 17 3.34 17 3 17 C1.65155132 11.3443706 0.63065155 5.7809725 0 0 Z " fill="#0C95F3" transform="translate(880,582)"/>
<path d="M0 0 C0.33 0 0.66 0 1 0 C1.08333357 4.8333472 0.95261487 9.23692563 0 14 C-0.33 14 -0.66 14 -1 14 C-1.22331199 12.41870971 -1.42804644 10.83478911 -1.625 9.25 C-1.74101562 8.36828125 -1.85703125 7.4865625 -1.9765625 6.578125 C-2.00207817 3.77140122 -1.44843844 2.36615134 0 0 Z " fill="#020718" transform="translate(412,434)"/>
<path d="M0 0 C0.94875 0.04125 1.8975 0.0825 2.875 0.125 C-0.00587546 2.52572955 -2.68904834 4.59791037 -6.125 6.125 C-5.28810868 1.94054341 -4.61542241 0.1846169 0 0 Z " fill="#098CEE" transform="translate(502.125,671.875)"/>
<path d="M0 0 C1.65 0 3.3 0 5 0 C1.61831569 3.68006822 -1.42521756 5.9785845 -6 8 C-6 7.34 -6 6.68 -6 6 C-4.68 5.67 -3.36 5.34 -2 5 C-2 4.01 -2 3.02 -2 2 C-1.34 2 -0.68 2 0 2 C0 1.34 0 0.68 0 0 Z " fill="#0B91EF" transform="translate(522,657)"/>
<path d="M0 0 C7.48291572 6.15034169 7.48291572 6.15034169 10 10 C7 10 7 10 5.17578125 8.3203125 C4.56089844 7.59585938 3.94601562 6.87140625 3.3125 6.125 C2.68988281 5.40570312 2.06726563 4.68640625 1.42578125 3.9453125 C0 2 0 2 0 0 Z " fill="#098CE8" transform="translate(380,599)"/>
<path d="M0 0 C0.66 0 1.32 0 2 0 C2.33 3.96 2.66 7.92 3 12 C2.01 11.34 1.02 10.68 0 10 C-0.29296875 7.6171875 -0.29296875 7.6171875 -0.1875 4.875 C-0.16042969 3.96492188 -0.13335937 3.05484375 -0.10546875 2.1171875 C-0.07066406 1.41851562 -0.03585937 0.71984375 0 0 Z " fill="#0C80D4" transform="translate(456,449)"/>
<path d="M0 0 C0 1.66666667 0 3.33333333 0 5 C-3.3 4.67 -6.6 4.34 -10 4 C-8.68 3.34 -7.36 2.68 -6 2 C-5.29875 1.62875 -4.5975 1.2575 -3.875 0.875 C-2 0 -2 0 0 0 Z " fill="#021432" transform="translate(391,355)"/>
<path d="M0 0 C3.82097239 0.53069061 6.06171403 1.49701566 9 4 C6.03 4 3.06 4 0 4 C0 2.68 0 1.36 0 0 Z " fill="#0C8FEE" transform="translate(951,513)"/>
<path d="M0 0 C0.53109375 0.33773438 1.0621875 0.67546875 1.609375 1.0234375 C2.31578125 1.46945312 3.0221875 1.91546875 3.75 2.375 C4.79414062 3.03628906 4.79414062 3.03628906 5.859375 3.7109375 C7.86517383 4.91880906 9.89178296 5.98387737 12 7 C3.86363636 7.31293706 3.86363636 7.31293706 1 5 C0.25 2.375 0.25 2.375 0 0 Z " fill="#0985E0" transform="translate(1023,482)"/>
<path d="M0 0 C-7.28571429 4.57142857 -7.28571429 4.57142857 -12 4 C-10.720327 1.44065399 -9.75798964 1.3010767 -7.125 0.3125 C-6.07699219 -0.09548828 -6.07699219 -0.09548828 -5.0078125 -0.51171875 C-3 -1 -3 -1 0 0 Z " fill="#0B92F1" transform="translate(457,311)"/>
<path d="M0 0 C1.46067199 0.45082469 2.91848032 0.91093537 4.375 1.375 C5.18710937 1.63023437 5.99921875 1.88546875 6.8359375 2.1484375 C9 3 9 3 11 5 C9.68 5.33 8.36 5.66 7 6 C7 5.34 7 4.68 7 4 C4.03 3.505 4.03 3.505 1 3 C0.67 2.01 0.34 1.02 0 0 Z " fill="#0B91EE" transform="translate(483,306)"/>
<path d="M0 0 C0.33 0 0.66 0 1 0 C1.32712342 6.13053511 1.39366878 10.62669111 -2 16 C-2.33 16 -2.66 16 -3 16 C-3.125 13.625 -3.125 13.625 -3 11 C-2.34 10.34 -1.68 9.68 -1 9 C-0.53993654 6.79749008 -0.53993654 6.79749008 -0.375 4.375 C-0.30023437 3.55773437 -0.22546875 2.74046875 -0.1484375 1.8984375 C-0.09945312 1.27195312 -0.05046875 0.64546875 0 0 Z " fill="#0978CE" transform="translate(884,590)"/>
<path d="M0 0 C2.4375 0.75 2.4375 0.75 5 2 C5.8125 4.125 5.8125 4.125 6 6 C6.66 6 7.32 6 8 6 C7.67 6.66 7.34 7.32 7 8 C1.125 3.375 1.125 3.375 0 0 Z " fill="#088FF0" transform="translate(1010,489)"/>
<path d="M0 0 C1.98 0.99 1.98 0.99 4 2 C3.67 4.31 3.34 6.62 3 9 C2.01 9 1.02 9 0 9 C0.185625 8.071875 0.37125 7.14375 0.5625 6.1875 C1.24123881 2.98656229 1.24123881 2.98656229 0 0 Z " fill="#031532" transform="translate(395,406)"/>
<path d="M0 0 C3.63 0 7.26 0 11 0 C11 0.33 11 0.66 11 1 C10.39671875 1.12117188 9.7934375 1.24234375 9.171875 1.3671875 C8.37265625 1.53476562 7.5734375 1.70234375 6.75 1.875 C5.96109375 2.03742188 5.1721875 2.19984375 4.359375 2.3671875 C2.03168856 2.99150075 0.10968048 3.84838542 -2 5 C-1.34 3.35 -0.68 1.7 0 0 Z " fill="#0C88E2" transform="translate(386,393)"/>
<path d="M0 0 C1.65 0.99 3.3 1.98 5 3 C4.01 4.485 4.01 4.485 3 6 C2.34 5.67 1.68 5.34 1 5 C1 6.32 1 7.64 1 9 C0.34 9 -0.32 9 -1 9 C-0.67 6.03 -0.34 3.06 0 0 Z " fill="#067EDF" transform="translate(603,533)"/>
<path d="M0 0 C-7.28571429 3.57142857 -7.28571429 3.57142857 -12 2 C-7.72170329 -0.29194467 -4.74957752 -1.52664992 0 0 Z " fill="#0B8BE5" transform="translate(952,535)"/>
<path d="M0 0 C0.721875 0.45375 1.44375 0.9075 2.1875 1.375 C4.74894081 2.85494358 7.23277989 3.97217539 10 5 C10 5.33 10 5.66 10 6 C6.67179946 6.22692276 4.58198664 6.32162419 1.625 4.6875 C0 3 0 3 0 0 Z " fill="#040A14" transform="translate(1025,481)"/>
<path d="M0 0 C3.3 0 6.6 0 10 0 C7.23776722 2.76223278 4.79293383 2.57856291 1 3 C0.67 2.01 0.34 1.02 0 0 Z " fill="#030917" transform="translate(925,472)"/>
<path d="M0 0 C0.99 0.33 1.98 0.66 3 1 C-1 5 -1 5 -4 6 C-4.66 5.34 -5.32 4.68 -6 4 C-3.1875 1.9375 -3.1875 1.9375 0 0 Z " fill="#0789EB" transform="translate(1023,458)"/>
<path d="M0 0 C2.97 0.33 5.94 0.66 9 1 C9.33 1.99 9.66 2.98 10 4 C6.7 3.34 3.4 2.68 0 2 C0 1.34 0 0.68 0 0 Z " fill="#011536" transform="translate(1040,455)"/>
<path d="M0 0 C3.7952131 1.49097658 5.61042731 3.75700849 8 7 C4.84859577 6.65930765 3.39218439 6.41923159 1.1875 4.0625 C0 2 0 2 0 0 Z " fill="#0891EF" transform="translate(390,610)"/>
<path d="M0 0 C0.33 1.65 0.66 3.3 1 5 C-1.02045442 4.39816251 -3.02111039 3.72693904 -5 3 C-5.33 2.34 -5.66 1.68 -6 1 C-3 0 -3 0 0 0 Z " fill="#0A8AE9" transform="translate(1024,496)"/>
<path d="M0 0 C1.12894876 0.93274109 2.25300876 1.87140122 3.375 2.8125 C4.00148438 3.33457031 4.62796875 3.85664063 5.2734375 4.39453125 C7 6 7 6 9 9 C6.66471585 8.82701599 5.30822418 8.29774631 3.62109375 6.66796875 C0 2.42788462 0 2.42788462 0 0 Z " fill="#030618" transform="translate(425,491)"/>
<path d="M0 0 C1.32 0 2.64 0 4 0 C2.25 5.75 2.25 5.75 0 8 C-0.38063221 5.6739143 -0.71269945 3.33944736 -1 1 C-0.67 0.67 -0.34 0.34 0 0 Z " fill="#0890F6" transform="translate(427,423)"/>
<path d="M0 0 C0.99 0 1.98 0 3 0 C5.1875 3 5.1875 3 7 6 C4 6 4 6 1.8125 4.125 C0 2 0 2 0 0 Z " fill="#021838" transform="translate(418,576)"/>
<path d="M0 0 C0.33 0 0.66 0 1 0 C1.3125 2.75 1.3125 2.75 1 6 C-1.5 8.375 -1.5 8.375 -4 10 C-4 9.01 -4 8.02 -4 7 C-3.34 7 -2.68 7 -2 7 C-1.855625 6.401875 -1.71125 5.80375 -1.5625 5.1875 C-1.1127561 3.43849596 -0.57107659 1.71322977 0 0 Z " fill="#0C94F5" transform="translate(540,558)"/>
<path d="M0 0 C3.81684226 1.55500981 6.19195732 4.03595495 9 7 C8.67 7.66 8.34 8.32 8 9 C6.66079162 7.88200014 5.32877444 6.75538103 4 5.625 C2.88625 4.68527344 2.88625 4.68527344 1.75 3.7265625 C1.1725 3.15679688 0.595 2.58703125 0 2 C0 1.34 0 0.68 0 0 Z " fill="#0A8BE6" transform="translate(435,547)"/>
<path d="M0 0 C4.22222222 6.33333333 4.22222222 6.33333333 3.625 10.8125 C3.41875 11.534375 3.2125 12.25625 3 13 C1.32889958 10.03821227 0.67317248 7.62928808 0.375 4.25 C0.30023438 3.45078125 0.22546875 2.6515625 0.1484375 1.828125 C0.09945313 1.22484375 0.05046875 0.6215625 0 0 Z " fill="#1098F3" transform="translate(331,539)"/>
<path d="M0 0 C0.99 0 1.98 0 3 0 C3 1.32 3 2.64 3 4 C-0.63 3.67 -4.26 3.34 -8 3 C-8 2.67 -8 2.34 -8 2 C-5.36 2 -2.72 2 0 2 C0 1.34 0 0.68 0 0 Z " fill="#021C41" transform="translate(575,457)"/>
<path d="M0 0 C0.33 0 0.66 0 1 0 C1.28571429 7.42857143 1.28571429 7.42857143 -1 11 C-2.0257259 6.58937864 -2.03684712 4.07369424 0 0 Z " fill="#021435" transform="translate(427,431)"/>
<path d="M0 0 C0.66 0 1.32 0 2 0 C3.60355101 3.50776784 4.22036864 6.14354879 4 10 C1.16625119 6.79663178 0.4794463 4.21912747 0 0 Z " fill="#0C8AE4" transform="translate(334,553)"/>
<path d="M0 0 C0.66 0.33 1.32 0.66 2 1 C1.45773019 4.79588866 -0.20127563 6.47211993 -3 9 C-2.67 7.35 -2.34 5.7 -2 4 C-1.34 4 -0.68 4 0 4 C-0.33 3.01 -0.66 2.02 -1 1 C-0.67 0.67 -0.34 0.34 0 0 Z " fill="#0D92F2" transform="translate(963,518)"/>
<path d="M0 0 C1.258125 0.12375 2.51625 0.2475 3.8125 0.375 C4.87404297 0.47941406 4.87404297 0.47941406 5.95703125 0.5859375 C8 1 8 1 11 3 C4.6 3.36923077 4.6 3.36923077 1.5625 1.5 C1.046875 1.005 0.53125 0.51 0 0 Z " fill="#021639" transform="translate(1025,502)"/>
<path d="M0 0 C1.32 0.66 2.64 1.32 4 2 C0.04 3.98 0.04 3.98 -4 6 C-4.33 5.34 -4.66 4.68 -5 4 C-4.34 4 -3.68 4 -3 4 C-3 3.34 -3 2.68 -3 2 C-2.01 2 -1.02 2 0 2 C0 1.34 0 0.68 0 0 Z " fill="#031430" transform="translate(1129,458)"/>
<path d="M0 0 C3 1 3 1 4.25 2.875 C5 5 5 5 4 8 C0 3.375 0 3.375 0 0 Z " fill="#098CEC" transform="translate(421,482)"/>
<path d="M0 0 C2.64 0 5.28 0 8 0 C8.33 1.32 8.66 2.64 9 4 C6.03 3.01 3.06 2.02 0 1 C0 0.67 0 0.34 0 0 Z " fill="#0987DF" transform="translate(512,336)"/>
</svg>
