<?xml version="1.0" encoding="UTF-8"?>
<svg version="1.1" xmlns="http://www.w3.org/2000/svg" width="1536" height="1024">
<path d="M0 0 C506.88 0 1013.76 0 1536 0 C1536 337.92 1536 675.84 1536 1024 C1029.12 1024 522.24 1024 0 1024 C0 686.08 0 348.16 0 0 Z " fill="#000F23" transform="translate(0,0)"/>
<path d="M0 0 C5.7604607 -0.00558595 11.52069699 -0.02993047 17.28108597 -0.05797195 C21.8041245 -0.07665385 26.32710773 -0.0818058 30.85018158 -0.08333588 C32.97576951 -0.08632476 35.10135739 -0.09422233 37.22690582 -0.10752106 C63.08949952 -0.25850294 85.68137543 4.49769628 105.16357422 22.80664062 C121.97481943 39.78136635 129.86615297 61.18577884 129.88842773 84.82177734 C129.46322198 109.82588857 119.94390603 130.49091513 102.29321289 148.00927734 C80.43175146 168.71435634 52.88493857 170.88846902 24.44873047 170.49023438 C21.92921355 170.47012236 19.40968097 170.45187998 16.89013672 170.43554688 C10.78395406 170.39540103 4.67999558 170.31704274 -1.42626953 170.24023438 C-1.42626953 178.82023438 -1.42626953 187.40023437 -1.42626953 196.24023438 C-38.71626953 196.24023438 -76.00626953 196.24023438 -114.42626953 196.24023438 C-114.54717863 154.51315961 -114.54717863 154.51315961 -114.57275391 137.00976562 C-114.59054558 124.93046237 -114.61144643 112.85122197 -114.65258789 100.77197266 C-114.68253843 91.97419987 -114.70185596 83.17647814 -114.70853502 74.37865579 C-114.7124377 69.72252288 -114.7215767 65.06653598 -114.7434597 60.41044998 C-114.76391424 56.02249716 -114.77008529 51.63474966 -114.76559258 47.24675369 C-114.76641378 45.64161054 -114.77232582 44.03646008 -114.78388596 42.43135834 C-114.86500472 30.58081879 -114.2940626 20.6486447 -106.45361328 11.28320312 C-99.22864799 4.00255409 -91.49736507 0.98311472 -81.30615234 0.83496094 C-80.50611534 0.81622169 -79.70607834 0.79748245 -78.88179779 0.77817535 C-76.21443216 0.71904494 -73.54705675 0.67443187 -70.87939453 0.63085938 C-68.96884645 0.59363298 -67.05830374 0.55613035 -65.14776611 0.51837158 C-43.43405151 0.11355335 -21.71700541 0.01804709 0 0 Z " fill="#0184FA" transform="translate(474.42626953125,309.759765625)"/>
<path d="M0 0 C3.03494089 -0.00457312 6.06962643 -0.01924235 9.10449219 -0.04101562 C12.95729963 -0.06864173 16.80988487 -0.08140544 20.66278839 -0.08333588 C22.07717085 -0.08630231 23.4915541 -0.0941177 24.90587616 -0.10752106 C38.99752287 -0.23305036 52.34503646 2.09893048 62.97290039 12.01147461 C73.35919893 22.22868977 79.96353145 34.37460765 80.16259766 49.17773438 C79.98223838 63.90590757 74.11180063 76.27603585 64.18212891 86.88085938 C53.71329166 96.68423565 41.25864351 101.3431859 27.10864258 101.44555664 C26.25935181 101.45545624 25.41006104 101.46535583 24.53503418 101.47555542 C21.7377396 101.50705346 18.94042807 101.53188147 16.14306641 101.55664062 C14.19964668 101.57722026 12.25623133 101.59821699 10.31282043 101.61961365 C5.20504303 101.67473008 0.09722592 101.72418526 -5.01062012 101.77246094 C-10.22570313 101.82275221 -15.44072871 101.87839843 -20.65576172 101.93359375 C-30.88292795 102.04104775 -41.11014315 102.14202591 -51.33740234 102.24023438 C-51.66740234 110.82023437 -51.99740234 119.40023437 -52.33740234 128.24023438 C-67.51740234 128.24023438 -82.69740234 128.24023438 -98.33740234 128.24023438 C-98.33740234 86.33023438 -98.33740234 44.42023438 -98.33740234 1.24023438 C-22.05820632 0.02945349 -22.05820632 0.02945349 0 0 Z " fill="#001024" transform="translate(491.33740234375,343.759765625)"/>
<path d="M0 0 C10.38307283 6.74161601 17.11800957 15.47237232 20.00390625 27.6171875 C21.47346858 36.98564734 21.02757986 45.79544068 17.47265625 54.60546875 C17.08980469 55.61480469 17.08980469 55.61480469 16.69921875 56.64453125 C12.61948249 66.03915328 4.93778883 73.76318721 -4.52734375 77.60546875 C-15.57796141 81.7621231 -26.63635704 82.09315374 -37.73828125 77.93359375 C-49.28122976 72.4369516 -56.03953032 63.28093557 -60.52734375 51.60546875 C-63.55919654 41.16332704 -63.10582267 26.84128679 -58.19921875 17.1796875 C-45.8512966 -1.83265057 -21.14497519 -10.86151963 0 0 Z " fill="#0286F8" transform="translate(1168.52734375,451.39453125)"/>
<path d="M0 0 C10.23 0 20.46 0 31 0 C31.18138473 12.53577789 31.32787733 25.0706716 31.41449738 37.60746956 C31.45608966 43.43005604 31.51242445 49.25169131 31.60351562 55.07373047 C31.69101306 60.7018748 31.73839388 66.32910948 31.75901794 71.95788193 C31.77369802 74.09559304 31.80236365 76.2332594 31.84584045 78.37057877 C32.07806674 90.26977593 31.85023141 99.18668798 24.91784668 109.15328979 C22.04092065 113.42358668 20.74832447 117.44303818 20.76049805 122.57739258 C20.7549012 123.85450859 20.7549012 123.85450859 20.74919128 125.15742493 C20.75332535 126.06067001 20.75745941 126.9639151 20.76171875 127.89453125 C20.74629809 129.83919968 20.72999438 131.78386127 20.71289062 133.72851562 C20.69646468 136.76976715 20.68749537 139.81051453 20.69458008 142.85180664 C20.69721457 145.80411694 20.66897958 148.75492297 20.63671875 151.70703125 C20.64692551 152.60420364 20.65713226 153.50137604 20.66764832 154.42573547 C20.52136438 163.9748538 16.09697103 170.47946091 9.4375 177 C8.04337891 178.3921875 8.04337891 178.3921875 6.62109375 179.8125 C4 182 4 182 0 183 C0 122.61 0 62.22 0 0 Z " fill="#0186FB" transform="translate(415,520)"/>
<path d="M0 0 C45.54054054 0 45.54054054 0 53.4375 5.3125 C57.87740383 9.96898451 59.18884344 13.49816232 59.4375 19.875 C59.28713362 25.38387746 58.33736296 29.56439938 55 34 C52.25 36.5 52.25 36.5 50 38 C50.54269531 38.44730469 51.08539062 38.89460937 51.64453125 39.35546875 C52.71767578 40.26232422 52.71767578 40.26232422 53.8125 41.1875 C54.52019531 41.77917969 55.22789062 42.37085938 55.95703125 42.98046875 C59.44845787 46.43184076 60.8764937 48.82911184 61.3984375 53.77734375 C61.40633903 55.164062 61.39817349 56.55095288 61.375 57.9375 C61.38660156 58.62779297 61.39820313 59.31808594 61.41015625 60.02929688 C61.37581314 66.06796053 59.61437433 69.94534176 55.9375 74.625 C48.93780102 80.28433109 41.40449474 81.5956003 32.6171875 81.390625 C31.78195557 81.38659668 30.94672363 81.38256836 30.08618164 81.37841797 C27.01555893 81.35775166 23.94525346 81.30190972 20.875 81.25 C13.98625 81.1675 7.0975 81.085 0 81 C0 54.27 0 27.54 0 0 Z " fill="#0287F9" transform="translate(816,569)"/>
<path d="M0 0 C6.744375 -0.0825 13.48875 -0.165 20.4375 -0.25 C22.54825928 -0.28641602 24.65901855 -0.32283203 26.83374023 -0.36035156 C28.53368111 -0.37204967 30.23363331 -0.38223883 31.93359375 -0.390625 C33.2248114 -0.4213208 33.2248114 -0.4213208 34.54211426 -0.45263672 C43.62963406 -0.45779495 50.7198645 2.87737099 57.26953125 9.11328125 C62.77403118 15.11480149 63.61557211 20.98263457 63.54345703 28.98925781 C63.22648314 36.00209985 61.29229839 41.53485594 56.4375 46.64453125 C54.11310389 48.66094487 51.55812933 50.29458044 49 52 C50.3633676 55.65742467 52.01959723 58.89302064 54.0390625 62.23046875 C54.90917969 63.68163086 54.90917969 63.68163086 55.796875 65.16210938 C57.02290183 67.19107899 58.24947073 69.21972114 59.4765625 71.24804688 C60.0540625 72.21162109 60.6315625 73.17519531 61.2265625 74.16796875 C62.02441162 75.48704224 62.02441162 75.48704224 62.83837891 76.83276367 C64 79 64 79 64 81 C58.06 81 52.12 81 46 81 C45.1028125 79.13472656 44.205625 77.26945313 43.28125 75.34765625 C37.72983428 63.0177794 37.72983428 63.0177794 28.71923828 53.67041016 C23.68105546 52.29989483 20.40083239 53.13969042 15 54 C15 62.91 15 71.82 15 81 C10.05 81 5.1 81 0 81 C0 54.27 0 27.54 0 0 Z " fill="#0286F8" transform="translate(739,449)"/>
<path d="M0 0 C0.8381424 -0.00807175 1.67628479 -0.01614349 2.53982544 -0.02445984 C4.32372965 -0.03832824 6.1076607 -0.04903799 7.89160156 -0.05688477 C10.58712617 -0.07392985 13.28136954 -0.11776751 15.9765625 -0.16210938 C28.83195547 -0.27998293 39.24038952 0.65789935 48.875 10.05078125 C54.38013175 16.44678494 55.42639095 22.75649748 55.14453125 31.0859375 C54.26071351 38.29039116 50.99509942 44.22870246 45.7578125 49.23828125 C36.36287587 55.17192544 27.12197614 56.57004889 16.1953125 56.36328125 C11.52375 56.30140625 11.52375 56.30140625 6.7578125 56.23828125 C6.7578125 64.48828125 6.7578125 72.73828125 6.7578125 81.23828125 C1.4778125 81.23828125 -3.8021875 81.23828125 -9.2421875 81.23828125 C-9.26473866 70.82484814 -9.28310267 60.41143112 -9.29399967 49.99797916 C-9.29922847 45.16311298 -9.30632604 40.32826431 -9.31762695 35.4934082 C-9.32845597 30.83151005 -9.33446436 26.16962879 -9.33706474 21.50771904 C-9.33891897 19.72503837 -9.34253953 17.94235866 -9.34791756 16.15968513 C-9.35512819 13.67162165 -9.35617843 11.18362882 -9.35571289 8.69555664 C-9.35930817 7.95109283 -9.36290344 7.20662903 -9.36660767 6.43960571 C-9.35123307 -1.10425246 -6.7404002 0.06121264 0 0 Z " fill="#0186F9" transform="translate(672.2421875,448.76171875)"/>
<path d="M0 0 C16 0 16 0 20.5703125 4.328125 C21.81148781 6.26719011 22.99448953 8.24439891 24.125 10.25 C25.44660857 12.36279798 26.76955187 14.47476156 28.09375 16.5859375 C28.73957031 17.65811523 29.38539062 18.73029297 30.05078125 19.83496094 C33.02778995 24.66887136 36.32221456 29.26048883 39.625 33.875 C41.76370577 36.90726188 43.88829692 39.94887514 46 43 C46.57073242 43.8240332 47.14146484 44.64806641 47.72949219 45.49707031 C48.28024414 46.30499023 48.83099609 47.11291016 49.3984375 47.9453125 C49.89778809 48.67508301 50.39713867 49.40485352 50.91162109 50.15673828 C52 52 52 52 52 54 C52.66 54 53.32 54 54 54 C54 36.18 54 18.36 54 0 C58.95 0 63.9 0 69 0 C69 26.4 69 52.8 69 80 C53 80 53 80 49.05078125 76.73046875 C47.63208008 74.56542969 47.63208008 74.56542969 46.3125 72.1875 C45.80033936 71.38086914 45.28817871 70.57423828 44.76049805 69.74316406 C43.68223929 68.04381119 42.62554038 66.33060344 41.58984375 64.60498047 C39.00384648 60.367789 36.14273372 56.32609027 33.3125 52.25 C32.32854881 50.79746956 31.34547855 49.34434199 30.36328125 47.890625 C25.99270245 41.53526535 21.48317257 35.2764416 17 29 C16.67 45.83 16.34 62.66 16 80 C10.72 80 5.44 80 0 80 C0 53.6 0 27.2 0 0 Z " fill="#0287F9" transform="translate(1201,450)"/>
<path d="M0 0 C8.25 0 16.5 0 25 0 C25 47.85 25 95.7 25 145 C19.37589158 139.37589158 19.37589158 139.37589158 17.16796875 136.58203125 C16.67876953 135.96650391 16.18957031 135.35097656 15.68554688 134.71679688 C15.19119141 134.08837891 14.69683594 133.45996094 14.1875 132.8125 C13.20188215 131.56896346 12.21620384 130.32547485 11.23046875 129.08203125 C10.7521183 128.46293821 10.27376785 127.84384518 9.78092194 127.20599174 C8.01096802 124.95902467 8.01096802 124.95902467 5.96645355 122.8249073 C0.164959 116.37035657 -1.14504927 111.86703336 -0.90820312 103.30810547 C-0.90937134 102.18498459 -0.91053955 101.06186371 -0.91174316 99.90470886 C-0.9062078 96.22423896 -0.84416357 92.5470851 -0.78125 88.8671875 C-0.76631549 86.30316945 -0.7549342 83.73912845 -0.74694824 81.17507935 C-0.71961444 75.1363348 -0.65669103 69.09899475 -0.57615232 63.06081116 C-0.48639576 56.18058659 -0.44266339 49.30030274 -0.40258884 42.41963744 C-0.31921011 28.27899139 -0.17263931 14.13982355 0 0 Z " fill="#0185FA" transform="translate(375,520)"/>
<path d="M0 0 C5.61 0 11.22 0 17 0 C23.53485122 15.64714812 29.96699442 31.31799173 36.10986328 47.12402344 C39.15216857 54.92669421 42.32054446 62.66254898 45.71582031 70.31884766 C47.24735476 73.84235135 48 76.09262122 48 80 C42.72 80 37.44 80 32 80 C29.29493443 73.75754099 27.12185289 68.73111735 26 62 C14.78 62.33 3.56 62.66 -8 63 C-9.98 68.61 -11.96 74.22 -14 80 C-19.61 80 -25.22 80 -31 80 C-28.63096246 71.47963395 -25.45673184 63.36566579 -22.125 55.1875 C-21.08421887 52.61918336 -20.04584338 50.04989798 -19.0078125 47.48046875 C-18.62795952 46.54195068 -18.62795952 46.54195068 -18.24043274 45.58447266 C-16.12342351 40.34067593 -14.08267865 35.06956854 -12.06762695 29.78588867 C-10.7813791 26.42952593 -9.45185194 23.09199702 -8.109375 19.7578125 C-7.21961312 17.54593967 -6.33488172 15.33225433 -5.453125 13.1171875 C-5.18234131 12.43769043 -4.91155762 11.75819336 -4.63256836 11.05810547 C-4.09373178 9.7058005 -3.55546553 8.35326812 -3.01782227 7.00048828 C-1.11238019 2.22476039 -1.11238019 2.22476039 0 0 Z " fill="#0286F8" transform="translate(756,570)"/>
<path d="M0 0 C18.15 0 36.3 0 55 0 C55 4.95 55 9.9 55 15 C42.13 15 29.26 15 16 15 C16 20.94 16 26.88 16 33 C27.22 33 38.44 33 50 33 C50 37.62 50 42.24 50 47 C38.45 47 26.9 47 15 47 C15 53.6 15 60.2 15 67 C28.2 67 41.4 67 55 67 C55 71.62 55 76.24 55 81 C36.85 81 18.7 81 0 81 C0 54.27 0 27.54 0 0 Z " fill="#0286F7" transform="translate(819,449)"/>
<path d="M0 0 C6.8003893 4.0686912 11.47278989 9.0410108 14.1875 16.5 C12.27467875 17.34212256 10.35707527 18.17338864 8.4375 19 C7.37015625 19.4640625 6.3028125 19.928125 5.203125 20.40625 C2.1875 21.5 2.1875 21.5 -1.8125 21.5 C-2.245625 20.7575 -2.67875 20.015 -3.125 19.25 C-5.32583254 15.66345808 -7.92122771 13.89456001 -11.8125 12.5 C-17.53870655 11.60372419 -21.85579095 12.35672109 -26.8125 15.5 C-29.07548437 17.36963998 -29.07548437 17.36963998 -29.25 20.3125 C-28.80351199 23.56548407 -28.21355183 25.16523458 -25.73828125 27.34765625 C-21.20403308 30.06084735 -15.87176127 31.12827933 -10.8125 32.5 C6.68363493 37.440769 6.68363493 37.440769 12.1875 45.5 C14.8184321 51.12409397 15.03181368 56.39203704 14.1875 62.5 C11.3711728 70.15655495 6.41381645 74.93971726 -0.8125 78.5 C-10.1374964 82.64970229 -20.90620383 83.06264585 -30.625 80 C-37.83216738 76.98106853 -43.71039435 72.14512542 -47.375 65.1875 C-48.8125 61.5 -48.8125 61.5 -48.8125 58.5 C-38.02113309 54.47122302 -38.02113309 54.47122302 -33.8125 55.5 C-32.14228981 57.43323542 -30.74228314 59.47769443 -29.30078125 61.5859375 C-27.10634596 64.40817711 -25.30899626 64.95153 -21.8125 65.5 C-15.6881467 66.09448851 -11.22404429 65.48187134 -5.8125 62.5 C-3.34306471 58.79584707 -3.34336911 56.87855495 -3.8125 52.5 C-6.58020574 49.87282321 -9.3152101 48.85405983 -12.953125 47.8515625 C-14.43619141 47.42617188 -14.43619141 47.42617188 -15.94921875 46.9921875 C-18.00822265 46.4186632 -20.06810919 45.84829734 -22.12890625 45.28125 C-32.06755392 42.41953822 -39.37971635 38.68956783 -44.91796875 29.70703125 C-47.06941715 24.39887255 -46.87235278 17.42878961 -44.9375 12.08203125 C-35.83706132 -3.39470163 -15.86115284 -7.36840898 0 0 Z " fill="#0287F8" transform="translate(1048.8125,450.5)"/>
<path d="M0 0 C0.65871094 0.41636719 1.31742188 0.83273437 1.99609375 1.26171875 C2.70636719 1.70902344 3.41664063 2.15632813 4.1484375 2.6171875 C9.73580219 6.49816894 15.67719431 11.318547 16.99609375 18.26171875 C15.08727941 19.29716049 13.16870171 20.3146196 11.24609375 21.32421875 C10.17875 21.89269531 9.11140625 22.46117187 8.01171875 23.046875 C4.99609375 24.26171875 4.99609375 24.26171875 2.71875 24.12109375 C0.99609375 23.26171875 0.99609375 23.26171875 -0.81640625 20.44921875 C-3.98680255 15.82949843 -7.67673901 14.03744116 -13.00390625 12.26171875 C-20.14882912 11.55761488 -26.12835006 11.88082159 -32.00390625 16.26171875 C-37.36953602 21.18834245 -40.6468806 26.39614475 -41.3203125 33.6875 C-41.63142612 43.6732437 -40.626938 51.68572602 -33.69140625 59.19921875 C-28.17564945 64.15405113 -22.81705669 65.80277492 -15.49609375 65.546875 C-8.78496429 64.77898715 -4.41964668 62.45670749 -0.00390625 57.26171875 C0.65609375 56.27171875 1.31609375 55.28171875 1.99609375 54.26171875 C6.05834923 54.83994971 8.84371721 56.15289612 12.30859375 58.32421875 C13.63310547 59.14599609 13.63310547 59.14599609 14.984375 59.984375 C15.64824219 60.40589844 16.31210937 60.82742188 16.99609375 61.26171875 C11.99912747 71.46385823 3.89646182 76.88228148 -6.62890625 80.51171875 C-19.01999465 83.18955711 -30.08179306 81.09855421 -40.75390625 74.51171875 C-48.87800756 68.70878924 -54.89237283 60.75899882 -57.62109375 51.0703125 C-58.19172401 46.88374965 -58.22893032 42.73265098 -58.25390625 38.51171875 C-58.27453125 37.65578125 -58.29515625 36.79984375 -58.31640625 35.91796875 C-58.38346604 24.85310334 -54.47971383 16.18583806 -47 8.09375 C-34.9590165 -3.38718776 -15.49266702 -7.87060624 0 0 Z " fill="#0287F8" transform="translate(942.00390625,450.73828125)"/>
<path d="M0 0 C6.05399745 3.33067821 9.3734435 8.82375387 11.4140625 15.328125 C11.83583144 18.11323092 11.8913274 20.82717855 11.8515625 23.640625 C11.84471436 24.38538086 11.83786621 25.13013672 11.83081055 25.89746094 C11.60966852 33.5206491 9.91133743 39.39382696 4.9140625 45.265625 C4.0890625 45.94625 3.2640625 46.626875 2.4140625 47.328125 C1.7953125 47.885 1.1765625 48.441875 0.5390625 49.015625 C-5.31049086 52.62858443 -11.90312103 52.99856937 -18.5859375 52.328125 C-25.45631857 50.31439262 -31.29064836 46.17932442 -34.98046875 39.98828125 C-38.61227455 31.45417927 -39.23643443 21.23796886 -36.73828125 12.29296875 C-34.07059491 6.29745675 -30.19346804 2.62798393 -24.5859375 -0.671875 C-23.64621094 -1.23261719 -23.64621094 -1.23261719 -22.6875 -1.8046875 C-15.57128846 -4.7411168 -6.85482714 -2.8051454 0 0 Z " fill="#001024" transform="translate(1160.5859375,464.671875)"/>
<path d="M0 0 C5.28 0 10.56 0 16 0 C16 21.78 16 43.56 16 66 C28.21 66 40.42 66 53 66 C53 70.62 53 75.24 53 80 C35.51 80 18.02 80 0 80 C0 53.6 0 27.2 0 0 Z " fill="#0286F7" transform="translate(663,570)"/>
<path d="M0 0 C3.3 0 6.6 0 10 0 C10 9.24 10 18.48 10 28 C21.88 28 33.76 28 46 28 C46 18.76 46 9.52 46 0 C49.63 0 53.26 0 57 0 C57 22.11 57 44.22 57 67 C53.37 67 49.74 67 46 67 C46 57.43 46 47.86 46 38 C34.12 38 22.24 38 10 38 C10 47.57 10 57.14 10 67 C6.7 67 3.4 67 0 67 C0 44.89 0 22.78 0 0 Z " fill="#0588F7" transform="translate(733,341)"/>
<path d="M0 0 C15.18 0 30.36 0 46 0 C46 2.97 46 5.94 46 9 C34.45 9 22.9 9 11 9 C11 15.27 11 21.54 11 28 C21.23 28 31.46 28 42 28 C42 30.97 42 33.94 42 37 C31.77 37 21.54 37 11 37 C11 43.93 11 50.86 11 58 C22.55 58 34.1 58 46 58 C46 60.97 46 63.94 46 67 C30.82 67 15.64 67 0 67 C0 44.89 0 22.78 0 0 Z " fill="#0486F4" transform="translate(810,341)"/>
<path d="M0 0 C4.95 0 9.9 0 15 0 C15 26.73 15 53.46 15 81 C10.05 81 5.1 81 0 81 C0 54.27 0 27.54 0 0 Z " fill="#0488FA" transform="translate(1077,449)"/>
<path d="M0 0 C4.95 0 9.9 0 15 0 C15 26.73 15 53.46 15 81 C10.05 81 5.1 81 0 81 C0 54.27 0 27.54 0 0 Z " fill="#0288FB" transform="translate(972,449)"/>
<path d="M0 0 C17.82 0 35.64 0 54 0 C54 2.97 54 5.94 54 9 C47.07 9 40.14 9 33 9 C33 28.14 33 47.28 33 67 C29.37 67 25.74 67 22 67 C22 47.86 22 28.72 22 9 C14.74 9 7.48 9 0 9 C0 6.03 0 3.06 0 0 Z " fill="#0484F2" transform="translate(663,341)"/>
<path d="M0 0 C3.50625 -0.061875 7.0125 -0.12375 10.625 -0.1875 C11.71893066 -0.21481201 12.81286133 -0.24212402 13.93994141 -0.27026367 C19.37154355 -0.3165982 23.35680537 -0.16243224 28 3 C30.80168958 6.24406162 31.9043675 8.23494 32.4375 12.5 C31.79756786 17.61945713 30.46227157 20.67000629 26.625 24.16015625 C21.93449182 27.162679 16.4825702 26.42022506 11.125 26.25 C7.45375 26.1675 3.7825 26.085 0 26 C0 17.42 0 8.84 0 0 Z " fill="#001025" transform="translate(679,464)"/>
<path d="M0 0 C2.64 0 5.28 0 8 0 C8 9.24 8 18.48 8 28 C20.21 28 32.42 28 45 28 C45 28.33 45 28.66 45 29 C41.37 29.33 37.74 29.66 34 30 C33.505 31.485 33.505 31.485 33 33 C35.97 33.495 35.97 33.495 39 34 C39 34.33 39 34.66 39 35 C29.43 35.33 19.86 35.66 10 36 C9.67 45.9 9.34 55.8 9 66 C5.7 66 2.4 66 -1 66 C-0.67 44.22 -0.34 22.44 0 0 Z " fill="#0186FB" transform="translate(734,342)"/>
<path d="M0 0 C3.67125 -0.061875 7.3425 -0.12375 11.125 -0.1875 C12.84420654 -0.22846802 12.84420654 -0.22846802 14.59814453 -0.27026367 C20.10623469 -0.31517445 24.34515304 -0.3089567 29 3 C31.13802064 5.16959478 31.9001154 6.39775462 32.3984375 9.40234375 C32.31459264 18.47156267 32.31459264 18.47156267 29 22 C22.86954146 25.41130354 17.46503267 25.36128081 10.5625 25.1875 C5.3340625 25.0946875 5.3340625 25.0946875 0 25 C0 16.75 0 8.5 0 0 Z " fill="#000F23" transform="translate(754,464)"/>
<path d="M0 0 C1.15459717 -0.00637985 2.30919434 -0.0127597 3.4987793 -0.01933289 C4.75086182 -0.02044571 6.00294434 -0.02155853 7.29296875 -0.02270508 C8.57276611 -0.02603348 9.85256348 -0.02936188 11.17114258 -0.03279114 C13.88135624 -0.03878176 16.591538 -0.04063106 19.30175781 -0.04003906 C22.77893837 -0.03993733 26.25591526 -0.05360156 29.73304749 -0.07081127 C33.0446913 -0.08458393 36.35629662 -0.08401936 39.66796875 -0.08520508 C40.92005127 -0.09239059 42.17213379 -0.09957611 43.4621582 -0.10697937 C44.61675537 -0.10390274 45.77135254 -0.10082611 46.9609375 -0.09765625 C48.49077271 -0.09979378 48.49077271 -0.09979378 50.05151367 -0.10197449 C52.48046875 0.14526367 52.48046875 0.14526367 54.48046875 2.14526367 C54.83556948 4.9150494 54.9620274 6.47858062 53.29954529 8.78016663 C50.81351736 10.64576673 49.15512318 10.53219936 46.06274414 10.54931641 C44.40070702 10.56834267 44.40070702 10.56834267 42.70509338 10.5877533 C41.50819382 10.58481766 40.31129425 10.58188202 39.078125 10.57885742 C37.23425453 10.5867202 37.23425453 10.5867202 35.35313416 10.59474182 C32.08466043 10.60281789 28.81660477 10.59568316 25.54815674 10.58441162 C22.22924711 10.581684 18.91058298 10.61685868 15.59179688 10.64331055 C13.06640668 10.6449227 10.54101394 10.64434475 8.015625 10.64135742 C6.223312 10.65820839 6.223312 10.65820839 4.39479065 10.67539978 C3.28361374 10.66601883 2.17243683 10.65663788 1.02758789 10.64697266 C0.05068497 10.64680649 -0.92621796 10.64664032 -1.932724 10.64646912 C-5.25674169 10.00242586 -6.476605 8.79792873 -8.51953125 6.14526367 C-8.39453125 3.45776367 -8.39453125 3.45776367 -7.51953125 1.14526367 C-4.89517335 -0.16691528 -2.93887087 0.01098391 0 0 Z " fill="#037AE3" transform="translate(412.51953125,395.854736328125)"/>
<path d="M0 0 C3.54213083 -0.08118636 7.08238743 -0.14059277 10.625 -0.1875 C11.62402344 -0.21263672 12.62304688 -0.23777344 13.65234375 -0.26367188 C20.17590261 -0.32847544 24.89702074 0.10388603 29.875 4.75 C31.50340357 8.00680714 31.37833086 10.40585687 31 14 C29.66204675 17.16883665 28.82745904 18.58978836 25.73168945 20.12451172 C22.80891817 21.06124046 20.54161677 21.22951527 17.48046875 21.1953125 C15.9480957 21.18564453 15.9480957 21.18564453 14.38476562 21.17578125 C13.32966797 21.15902344 12.27457031 21.14226563 11.1875 21.125 C10.11306641 21.11597656 9.03863281 21.10695313 7.93164062 21.09765625 C5.28766448 21.07415424 2.6438034 21.03828517 0 21 C0 14.07 0 7.14 0 0 Z " fill="#011127" transform="translate(831,615)"/>
<path d="M0 0 C1.17461792 -0.00630432 2.34923584 -0.01260864 3.55944824 -0.019104 C5.47038269 -0.01303131 5.47038269 -0.01303131 7.41992188 -0.00683594 C8.72191528 -0.00874939 10.02390869 -0.01066284 11.36535645 -0.01263428 C14.12268816 -0.01558485 16.87989036 -0.01129018 19.63720703 -0.00195312 C23.17494261 0.00944153 26.71237474 0.00288168 30.25009918 -0.00909805 C33.61923121 -0.01805488 36.98828121 -0.01178734 40.35742188 -0.00683594 C41.63137817 -0.0108844 42.90533447 -0.01493286 44.21789551 -0.019104 C45.39251343 -0.01279968 46.56713135 -0.00649536 47.77734375 0 C48.81499878 0.00159119 49.85265381 0.00318237 50.92175293 0.00482178 C53.38867188 0.25878906 53.38867188 0.25878906 55.38867188 2.25878906 C54.82049006 7.82697088 54.82049006 7.82697088 53.38867188 9.25878906 C51.55840015 9.36307781 49.72409732 9.3973328 47.89086914 9.40405273 C46.12882896 9.41362251 46.12882896 9.41362251 44.33119202 9.42338562 C42.41251564 9.42505486 42.41251564 9.42505486 40.45507812 9.42675781 C39.15166977 9.43008621 37.84826141 9.43341461 36.50535583 9.43684387 C33.74208753 9.44284107 30.97885053 9.44468318 28.21557617 9.4440918 C24.66998714 9.44399016 21.1245983 9.45764137 17.57905674 9.47486401 C14.20439388 9.4886392 10.82976878 9.48807229 7.45507812 9.48925781 C6.17798477 9.49644333 4.90089142 9.50362885 3.58509827 9.5110321 C1.81832985 9.50641716 1.81832985 9.50641716 0.01586914 9.50170898 C-1.54513771 9.50384651 -1.54513771 9.50384651 -3.13768005 9.50602722 C-5.61132812 9.25878906 -5.61132812 9.25878906 -7.61132812 7.25878906 C-7.86132812 4.75878906 -7.86132812 4.75878906 -7.61132812 2.25878906 C-4.95524059 -0.39729848 -3.70827953 0.00568644 0 0 Z " fill="#0787F7" transform="translate(411.611328125,370.7412109375)"/>
<path d="M0 0 C3.37548805 -0.08122832 6.74900518 -0.14061118 10.125 -0.1875 C11.55199219 -0.22520508 11.55199219 -0.22520508 13.0078125 -0.26367188 C18.45215625 -0.32038379 22.30680747 -0.09630753 27 3 C29.39286884 5.39286884 29.32050616 6.09447094 29.375 9.375 C29.30982816 12.75307372 29.21347457 13.71536724 27.125 16.5 C23.74509325 18.88581653 21.88244177 19.1202332 17.7734375 19.09765625 C16.7421875 19.09443359 15.7109375 19.09121094 14.6484375 19.08789062 C13.02808594 19.07532227 13.02808594 19.07532227 11.375 19.0625 C9.74304688 19.05573242 9.74304688 19.05573242 8.078125 19.04882812 C5.38539338 19.0370179 2.69268991 19.01908205 0 19 C0 12.73 0 6.46 0 0 Z " fill="#010F23" transform="translate(831,583)"/>
<path d="M0 0 C0.66 0 1.32 0 2 0 C3.50827797 3.76757497 5.00518994 7.53956349 6.5 11.3125 C6.92925781 12.38435547 7.35851562 13.45621094 7.80078125 14.56054688 C8.40986328 16.10258789 8.40986328 16.10258789 9.03125 17.67578125 C9.40830078 18.62364502 9.78535156 19.57150879 10.17382812 20.5480957 C11 23 11 23 11 26 C4.07 26 -2.86 26 -10 26 C-8.1393564 19.79785466 -6.30948671 13.88914715 -3.875 7.9375 C-3.47861328 6.94459961 -3.47861328 6.94459961 -3.07421875 5.93164062 C-1.13648343 1.13648343 -1.13648343 1.13648343 0 0 Z " fill="#02122C" transform="translate(764,592)"/>
<path d="M0 0 C18.48 0 36.96 0 56 0 C56 0.66 56 1.32 56 2 C51.0399662 2.94288183 46.15485426 3.30248211 41.125 3.5625 C40.34125 3.60568359 39.5575 3.64886719 38.75 3.69335938 C36.83349351 3.79853351 34.91676667 3.89967925 33 4 C32.67 4.99 32.34 5.98 32 7 C27.62241212 7.21686645 23.2445238 7.41375794 18.86523438 7.59204102 C17.37508038 7.65553821 15.88514989 7.72452491 14.39550781 7.79907227 C12.25620734 7.90518271 10.11688395 7.99163253 7.9765625 8.07421875 C6.68830566 8.13182373 5.40004883 8.18942871 4.07275391 8.2487793 C2.55174072 8.12563354 2.55174072 8.12563354 1 8 C0.34 7.01 -0.32 6.02 -1 5 C-0.67 3.35 -0.34 1.7 0 0 Z " fill="#0282F5" transform="translate(405,397)"/>
<path d="M0 0 C0.33 0 0.66 0 1 0 C1 22.11 1 44.22 1 67 C-2.63 67 -6.26 67 -10 67 C-10 57.43 -10 47.86 -10 38 C-21.88 38 -33.76 38 -46 38 C-46 37.67 -46 37.34 -46 37 C-33.79 37 -21.58 37 -9 37 C-9 46.24 -9 55.48 -9 65 C-6.36 65 -3.72 65 -1 65 C-1.00580078 63.98631348 -1.01160156 62.97262695 -1.01757812 61.92822266 C-1.06801244 48.73829072 -0.80105786 35.56093006 -0.5 22.375 C-0.45164175 20.19271234 -0.40346358 18.01042068 -0.35546875 15.828125 C-0.23904869 10.55203558 -0.12043052 5.27599932 0 0 Z " fill="#0967B8" transform="translate(789,341)"/>
<path d="M0 0 C1.73056641 -0.02513672 1.73056641 -0.02513672 3.49609375 -0.05078125 C6.5625 0.3125 6.5625 0.3125 8.484375 1.671875 C9.5625 3.3125 9.5625 3.3125 9.375 5.875 C8.5625 8.3125 8.5625 8.3125 6.5625 10.3125 C3.62890625 10.61328125 3.62890625 10.61328125 0.125 10.625 C-1.60556641 10.65013672 -1.60556641 10.65013672 -3.37109375 10.67578125 C-6.4375 10.3125 -6.4375 10.3125 -8.359375 8.953125 C-9.4375 7.3125 -9.4375 7.3125 -9.25 4.75 C-7.55009277 -0.3497217 -4.89535997 0.01637244 0 0 Z " fill="#047EEA" transform="translate(413.4375,419.6875)"/>
<path d="M0 0 C0.85474411 -0.0033284 1.70948822 -0.0066568 2.59013367 -0.01008606 C4.40342672 -0.01516004 6.21672915 -0.01749424 8.0300293 -0.01733398 C10.80207821 -0.01951384 13.57372506 -0.03764603 16.34570312 -0.05664062 C18.10546739 -0.05957579 19.86523354 -0.06155976 21.625 -0.0625 C22.4542952 -0.06968552 23.28359039 -0.07687103 24.13801575 -0.08427429 C25.30393501 -0.07965935 25.30393501 -0.07965935 26.4934082 -0.07495117 C27.17434036 -0.07637619 27.85527252 -0.07780121 28.55683899 -0.07926941 C30.51171875 0.16796875 30.51171875 0.16796875 34.51171875 2.16796875 C13.72171875 2.66296875 13.72171875 2.66296875 -7.48828125 3.16796875 C-7.81828125 28.90796875 -8.14828125 54.64796875 -8.48828125 81.16796875 C-8.81828125 81.16796875 -9.14828125 81.16796875 -9.48828125 81.16796875 C-9.51140484 70.7545395 -9.52919642 60.34111631 -9.54009342 49.92766666 C-9.54532222 45.09280048 -9.55241979 40.25795181 -9.5637207 35.4230957 C-9.57454972 30.76119755 -9.58055811 26.09931629 -9.58315849 21.43740654 C-9.58501272 19.65472587 -9.58863328 17.87204616 -9.59401131 16.08937263 C-9.60122194 13.60130915 -9.60227218 11.11331632 -9.60180664 8.62524414 C-9.60540192 7.88078033 -9.60899719 7.13631653 -9.61270142 6.36929321 C-9.59709155 -1.2900061 -6.80645453 0.00906712 0 0 Z " fill="#0666BC" transform="translate(672.48828125,448.83203125)"/>
<path d="M0 0 C0.80690277 0.05454849 1.61380554 0.10909698 2.44515991 0.16529846 C3.77627304 0.27405556 3.77627304 0.27405556 5.13427734 0.38500977 C14.80104198 0.99764303 24.43536617 1.18825467 34.11865234 1.17407227 C34.81785042 1.17360271 35.51704849 1.17313316 36.23743439 1.17264938 C40.54124757 1.16929232 44.84501153 1.15848539 49.14880371 1.14508057 C52.86400769 1.1346533 56.57921905 1.13024241 60.29443359 1.12524414 C67.51971336 1.11467759 74.7449579 1.09772504 81.97021484 1.07641602 C81.97021484 1.40641602 81.97021484 1.73641602 81.97021484 2.07641602 C77.51509674 3.18724678 73.16050161 3.21104854 68.59985352 3.18994141 C67.77006989 3.19008743 66.94028625 3.19023346 66.08535767 3.19038391 C63.35293937 3.18968934 60.62058993 3.1819183 57.88818359 3.17407227 C55.98960914 3.17220647 54.09103421 3.17078333 52.19245911 3.16978455 C47.20299951 3.16597212 42.21356916 3.15615271 37.22412109 3.14508057 C32.12972408 3.13483904 27.03532232 3.13028105 21.94091797 3.12524414 C11.95067076 3.1145293 1.96044524 3.09746818 -8.02978516 3.07641602 C-5.23456858 0.6856014 -3.68843979 -0.30655599 0 0 Z " fill="#010518" transform="translate(449.02978515625,440.923583984375)"/>
<path d="M0 0 C17.82 0 35.64 0 54 0 C54 0.66 54 1.32 54 2 C52.90534424 1.99476318 51.81068848 1.98952637 50.68286133 1.98413086 C46.61076682 1.96599267 42.53867587 1.95453577 38.46655273 1.94506836 C36.70612995 1.9400483 34.94571132 1.9332309 33.18530273 1.92456055 C30.65086846 1.91239297 28.11648946 1.90674834 25.58203125 1.90234375 C24.40674614 1.89460182 24.40674614 1.89460182 23.2077179 1.88670349 C16.3608868 1.81693971 16.3608868 1.81693971 10.0625 4.125 C7.15038483 5.3604428 5.01978513 4.6863148 2 4 C2 3.67 2 3.34 2 3 C3.65 3 5.3 3 7 3 C7 2.34 7 1.68 7 1 C4.36 1.66 1.72 2.32 -1 3 C-0.67 2.01 -0.34 1.02 0 0 Z " fill="#0089FE" transform="translate(407,397)"/>
<path d="M0 0 C7.26 0 14.52 0 22 0 C22 0.33 22 0.66 22 1 C15.4 1 8.8 1 2 1 C2 8.26 2 15.52 2 23 C9.26 23 16.52 23 24 23 C22 25 22 25 19.75341797 25.22705078 C18.84221191 25.21657715 17.93100586 25.20610352 16.9921875 25.1953125 C15.65969971 25.18781982 15.65969971 25.18781982 14.30029297 25.18017578 C13.16994629 25.16196777 12.03959961 25.14375977 10.875 25.125 C7.28625 25.08375 3.6975 25.0425 0 25 C0 16.75 0 8.5 0 0 Z " fill="#011333" transform="translate(754,464)"/>
<path d="M0 0 C6.27 0 12.54 0 19 0 C19 0.33 19 0.66 19 1 C13.39 1 7.78 1 2 1 C2 8.59 2 16.18 2 24 C8.93 24 15.86 24 23 24 C23 24.66 23 25.32 23 26 C15.41 26 7.82 26 0 26 C0 17.42 0 8.84 0 0 Z " fill="#02091B" transform="translate(679,464)"/>
<path d="M0 0 C3.41687783 -0.0539507 6.83290364 -0.09365049 10.25 -0.125 C11.21808594 -0.14175781 12.18617188 -0.15851562 13.18359375 -0.17578125 C14.11816406 -0.18222656 15.05273438 -0.18867187 16.015625 -0.1953125 C16.87446289 -0.20578613 17.73330078 -0.21625977 18.61816406 -0.22705078 C21.17903596 0.01706677 22.79511029 0.71009488 25 2 C25 2.33 25 2.66 25 3 C13.615 2.505 13.615 2.505 2 2 C2 7.28 2 12.56 2 18 C8.27 18 14.54 18 21 18 C21 18.33 21 18.66 21 19 C14.07 19 7.14 19 0 19 C0 12.73 0 6.46 0 0 Z " fill="#011432" transform="translate(831,583)"/>
<path d="M0 0 C-0.33 0.99 -0.66 1.98 -1 3 C-15.85 3 -30.7 3 -46 3 C-46 2.34 -46 1.68 -46 1 C-40.41327304 0.8566137 -34.8265218 0.71422781 -29.23974609 0.57275391 C-27.34065061 0.52452394 -25.44156195 0.47602443 -23.54248047 0.42724609 C-20.80698382 0.35703167 -18.0714638 0.28779841 -15.3359375 0.21875 C-14.49195404 0.19687622 -13.64797058 0.17500244 -12.77841187 0.15246582 C-8.51754156 0.04588375 -4.26266285 -0.0241169 0 0 Z " fill="#030815" transform="translate(862,650)"/>
<path d="M0 0 C0.99 0.495 0.99 0.495 2 1 C2.85120257 15.01444237 3.13088769 28.96078522 3 43 C1.15164611 41.43850535 0.1034679 40.53899323 -0.36076355 38.12068176 C-0.35410172 37.41674789 -0.34743988 36.71281403 -0.34057617 35.98754883 C-0.34034958 35.18694534 -0.34012299 34.38634186 -0.33988953 33.56147766 C-0.32440567 32.70201035 -0.30892181 31.84254303 -0.29296875 30.95703125 C-0.28872391 30.0734343 -0.28447906 29.18983734 -0.28010559 28.27946472 C-0.26331043 25.45683339 -0.22565697 22.63491559 -0.1875 19.8125 C-0.17245423 17.89909885 -0.15876564 15.98568651 -0.14648438 14.07226562 C-0.11340419 9.38123541 -0.0616163 4.69073869 0 0 Z " fill="#030816" transform="translate(435,640)"/>
<path d="M0 0 C7.5276878 -0.0462929 15.05536088 -0.08185365 22.58315849 -0.10362434 C26.07843927 -0.11407198 29.57362283 -0.12824883 33.06884766 -0.15087891 C37.08497056 -0.17671953 41.10099097 -0.18646466 45.1171875 -0.1953125 C47.00472244 -0.21079636 47.00472244 -0.21079636 48.9303894 -0.22659302 C50.09144196 -0.22674408 51.25249451 -0.22689514 52.44873047 -0.22705078 C53.47465302 -0.231492 54.50057556 -0.23593323 55.55758667 -0.24050903 C58 0 58 0 60 2 C60.3125 4.5 60.3125 4.5 60 7 C59.01 7.66 58.02 8.32 57 9 C56.34 8.01 55.68 7.02 55 6 C55.33 5.67 55.66 5.34 56 5 C53.69 4.67 51.38 4.34 49 4 C49 3.67 49 3.34 49 3 C50.65 3 52.3 3 54 3 C54 2.34 54 1.68 54 1 C36.18 1 18.36 1 0 1 C0 0.67 0 0.34 0 0 Z " fill="#0E81E0" transform="translate(407,396)"/>
<path d="M0 0 C5.28 0 10.56 0 16 0 C16.33 1.32 16.66 2.64 17 4 C16.34 3.67 15.68 3.34 15 3 C12.795636 2.77049681 10.58607827 2.58924067 8.375 2.4375 C6.27125 2.293125 4.1675 2.14875 2 2 C2 10.25 2 18.5 2 27 C1.34 27 0.68 27 0 27 C0 18.09 0 9.18 0 0 Z " fill="#011335" transform="translate(754,503)"/>
<path d="M0 0 C10.23 0 20.46 0 31 0 C31 0.33 31 0.66 31 1 C21.43 1 11.86 1 2 1 C2.33 6.28 2.66 11.56 3 17 C2.01 17.33 1.02 17.66 0 18 C0 12.06 0 6.12 0 0 Z " fill="#020516" transform="translate(821,379)"/>
<path d="M0 0 C0.33 0 0.66 0 1 0 C1 17.49 1 34.98 1 53 C0.01 52.01 -0.98 51.02 -2 50 C-2 49.34 -2 48.68 -2 48 C-1.34 48 -0.68 48 0 48 C0 32.16 0 16.32 0 0 Z " fill="#000316" transform="translate(1253,450)"/>
<path d="M0 0 C0.33 0 0.66 0 1 0 C1 8.25 1 16.5 1 25 C-3.95 25 -8.9 25 -14 25 C-13.34 24.34 -12.68 23.68 -12 23 C-8.37 23 -4.74 23 -1 23 C-0.67 15.41 -0.34 7.82 0 0 Z " fill="#0A89ED" transform="translate(678,505)"/>
<path d="M0 0 C-7.48664711 4.99109807 -15.28441422 4.21758744 -24 4 C-24 3.34 -24 2.68 -24 2 C-20.00199558 1.09893461 -16.08661673 0.71493195 -12 0.4375 C-10.80375 0.35371094 -9.6075 0.26992188 -8.375 0.18359375 C-5.5724238 0.03113879 -2.80532157 -0.03719176 0 0 Z " fill="#0988ED" transform="translate(1048,528)"/>
<path d="M0 0 C0.33 0 0.66 0 1 0 C1 4.29 1 8.58 1 13 C4.63 13 8.26 13 12 13 C11.67 13.66 11.34 14.32 11 15 C7.04 15 3.08 15 -1 15 C-1.02693575 12.87506859 -1.04636628 10.75004088 -1.0625 8.625 C-1.07410156 7.44164062 -1.08570313 6.25828125 -1.09765625 5.0390625 C-1 2 -1 2 0 0 Z " fill="#01061C" transform="translate(822,354)"/>
<path d="M0 0 C5.94 0 11.88 0 18 0 C15 3 15 3 11.20703125 3.29296875 C9.74190067 3.2730801 8.27691633 3.23737968 6.8125 3.1875 C6.06291016 3.17396484 5.31332031 3.16042969 4.54101562 3.14648438 C2.69370233 3.11118539 0.84675934 3.05737917 -1 3 C-0.67 2.01 -0.34 1.02 0 0 Z " fill="#040A16" transform="translate(1139,532)"/>
<path d="M0 0 C5.94 0 11.88 0 18 0 C18.33 0.66 18.66 1.32 19 2 C13.61509359 2.91657981 8.45769811 3.11138159 3 3 C3 2.34 3 1.68 3 1 C2.01 0.67 1.02 0.34 0 0 Z " fill="#030B17" transform="translate(916,532)"/>
<path d="M0 0 C4.95 0 9.9 0 15 0 C15 0.66 15 1.32 15 2 C11.32612505 2.85298376 7.9552607 3.10789471 4.1875 3.0625 C2.72376953 3.04896484 2.72376953 3.04896484 1.23046875 3.03515625 C0.12638672 3.01775391 0.12638672 3.01775391 -1 3 C-0.67 2.01 -0.34 1.02 0 0 Z " fill="#050A16" transform="translate(1025,532)"/>
<path d="M0 0 C1.66611905 -0.042721 3.33382885 -0.04063832 5 0 C6 1 6 1 6.25 3.4375 C6.1675 4.283125 6.085 5.12875 6 6 C5.01 6.66 4.02 7.32 3 8 C2.34 7.01 1.68 6.02 1 5 C1.33 4.67 1.66 4.34 2 4 C-0.31 3.67 -2.62 3.34 -5 3 C-5 2.67 -5 2.34 -5 2 C-3.35 2 -1.7 2 0 2 C0 1.34 0 0.68 0 0 Z " fill="#0681EC" transform="translate(461,397)"/>
<path d="M0 0 C0 0.33 0 0.66 0 1 C1.65 1.33 3.3 1.66 5 2 C2.04497399 3.69242399 -0.09995022 4.27328801 -3.5 4.25 C-4.2528125 4.25515625 -5.005625 4.2603125 -5.78125 4.265625 C-8.2296721 3.97250404 -9.87304054 3.21816769 -12 2 C-7.8803623 0.70756464 -4.33168317 -0.26252625 0 0 Z " fill="#001437" transform="translate(1035,513)"/>
<path d="M0 0 C-2 2 -2 2 -5.2578125 2.1953125 C-6.53398438 2.17210937 -7.81015625 2.14890625 -9.125 2.125 C-11.04699219 2.09792969 -11.04699219 2.09792969 -13.0078125 2.0703125 C-14.48894531 2.03550781 -14.48894531 2.03550781 -16 2 C-16 1.34 -16 0.68 -16 0 C-14.27185839 -0.19672365 -12.54240803 -0.38196799 -10.8125 -0.5625 C-9.84957031 -0.66691406 -8.88664063 -0.77132812 -7.89453125 -0.87890625 C-5.05766623 -0.99758751 -2.74576329 -0.67765639 0 0 Z " fill="#0683E7" transform="translate(933,530)"/>
<path d="M0 0 C0.66 0.99 1.32 1.98 2 3 C-0.30718811 7.28477792 -2.32966073 10.72291137 -6 14 C-4.45941767 8.98491285 -2.97068161 4.3852919 0 0 Z " fill="#021231" transform="translate(442,623)"/>
<path d="M0 0 C9 0 9 0 12 2 C11 3 11 3 8.49609375 3.09765625 C6.98208984 3.08025391 6.98208984 3.08025391 5.4375 3.0625 C4.42558594 3.05347656 3.41367188 3.04445313 2.37109375 3.03515625 C1.58863281 3.02355469 0.80617188 3.01195312 0 3 C0 2.01 0 1.02 0 0 Z " fill="#040916" transform="translate(1140,513)"/>
<path d="M0 0 C1.8844171 3.7688342 2.33429462 5.68012475 2.625 9.75 C2.69976563 10.73484375 2.77453125 11.7196875 2.8515625 12.734375 C2.92503906 13.85585938 2.92503906 13.85585938 3 15 C2.01 15 1.02 15 0 15 C0 10.05 0 5.1 0 0 Z " fill="#030818" transform="translate(1189,481)"/>
<path d="M0 0 C0.33 0.99 0.66 1.98 1 3 C-2.17495261 5.72138795 -4.95197831 7.82820425 -9 9 C-9.99 8.67 -10.98 8.34 -12 8 C-11.21753906 7.50628906 -10.43507813 7.01257813 -9.62890625 6.50390625 C-8.61699219 5.86324219 -7.60507812 5.22257812 -6.5625 4.5625 C-5.55316406 3.92441406 -4.54382813 3.28632813 -3.50390625 2.62890625 C-1.15446165 1.22350458 -1.15446165 1.22350458 0 0 Z " fill="#0983E8" transform="translate(554,431)"/>
<path d="M0 0 C2.64 0 5.28 0 8 0 C7.67 0.99 7.34 1.98 7 3 C3.96826719 4.19493974 0.97540573 4.10493955 -2.25 4.0625 C-3.14203125 4.05347656 -4.0340625 4.04445313 -4.953125 4.03515625 C-5.62859375 4.02355469 -6.3040625 4.01195312 -7 4 C-7 3.67 -7 3.34 -7 3 C-2.545 2.505 -2.545 2.505 2 2 C1.34 1.34 0.68 0.68 0 0 Z " fill="#02183A" transform="translate(1149,513)"/>
<path d="M0 0 C1.94498034 2.91747052 2.39388356 4.15106847 2.8125 7.5 C2.92207031 8.2734375 3.03164063 9.046875 3.14453125 9.84375 C3 12 3 12 0 15 C0 10.05 0 5.1 0 0 Z " fill="#020816" transform="translate(875,582)"/>
<path d="M0 0 C0.66 0 1.32 0 2 0 C1.50269348 4.97306516 0.44697666 8.63799813 -2 13 C-3.18771723 9.57056481 -2.80226223 7.62215325 -1.5625 4.25 C-1.27503906 3.45078125 -0.98757813 2.6515625 -0.69140625 1.828125 C-0.46324219 1.22484375 -0.23507812 0.6215625 0 0 Z " fill="#0C83E6" transform="translate(887,470)"/>
<path d="M0 0 C2.475 0.495 2.475 0.495 5 1 C5.061875 1.5775 5.12375 2.155 5.1875 2.75 C6.32027301 5.88690987 8.34197595 7.09167504 11 9 C10.67 9.66 10.34 10.32 10 11 C8.51450044 9.73657512 7.03678811 8.4639897 5.5625 7.1875 C4.73878906 6.47980469 3.91507813 5.77210938 3.06640625 5.04296875 C1 3 1 3 0 0 Z " fill="#0D89E9" transform="translate(1003,517)"/>
<path d="M0 0 C-1.11666174 3.34998521 -1.74694925 3.79340222 -4.5625 5.6875 C-5.20316406 6.12449219 -5.84382813 6.56148438 -6.50390625 7.01171875 C-6.99761719 7.33785156 -7.49132813 7.66398437 -8 8 C-8.66 7.67 -9.32 7.34 -10 7 C-8.71372289 5.82739389 -7.42080217 4.6620717 -6.125 3.5 C-5.04605469 2.52546875 -5.04605469 2.52546875 -3.9453125 1.53125 C-2 0 -2 0 0 0 Z " fill="#0A89EF" transform="translate(1127,453)"/>
<path d="M0 0 C0.66 0 1.32 0 2 0 C2.49230769 6.4 2.49230769 6.4 0 9.4375 C-0.99 10.2109375 -0.99 10.2109375 -2 11 C-1.34 7.37 -0.68 3.74 0 0 Z " fill="#01183A" transform="translate(860,622)"/>
<path d="M0 0 C-3.08809695 1.76462683 -4.23312136 2 -8 2 C-7.67 2.99 -7.34 3.98 -7 5 C-8.32 5 -9.64 5 -11 5 C-11 3.68 -11 2.36 -11 1 C-7.26562152 0.12132271 -3.83225427 -0.08912219 0 0 Z " fill="#0689F4" transform="translate(538,443)"/>
<path d="M0 0 C0.33 0.66 0.66 1.32 1 2 C-1.97 4.31 -4.94 6.62 -8 9 C-8.66 8.67 -9.32 8.34 -10 8 C-8.71064081 6.85157077 -7.41843421 5.70633773 -6.125 4.5625 C-5.04605469 3.60537109 -5.04605469 3.60537109 -3.9453125 2.62890625 C-2 1 -2 1 0 0 Z " fill="#0A83E6" transform="translate(377,314)"/>
<path d="M0 0 C0 0.66 0 1.32 0 2 C-0.66 2 -1.32 2 -2 2 C-2.33 2.99 -2.66 3.98 -3 5 C-4.65 5.33 -6.3 5.66 -8 6 C-3.375 0 -3.375 0 0 0 Z " fill="#021531" transform="translate(583,453)"/>
<path d="M0 0 C2.31 1.65 4.62 3.3 7 5 C6.01 5.99 5.02 6.98 4 8 C1.53721199 5.53721199 1.00228745 3.29323018 0 0 Z " fill="#021330" transform="translate(934,464)"/>
<path d="M0 0 C0 0.66 0 1.32 0 2 C-1.98 2.99 -3.96 3.98 -6 5 C-6 4.34 -6 3.68 -6 3 C-6.99 2.67 -7.98 2.34 -9 2 C-3.375 0 -3.375 0 0 0 Z " fill="#021A3C" transform="translate(868,647)"/>
<path d="M0 0 C3.37503669 1.1858237 5.64722731 2.27573689 8 5 C7.34 5.66 6.68 6.32 6 7 C4.02 4.69 2.04 2.38 0 0 Z " fill="#0A81E3" transform="translate(550,352)"/>
<path d="M0 0 C0.33 0.99 0.66 1.98 1 3 C-0.375 5.6875 -0.375 5.6875 -2 8 C-2.33 8 -2.66 8 -3 8 C-3 6.35 -3 4.7 -3 3 C-2.01 2.67 -1.02 2.34 0 2 C0 1.34 0 0.68 0 0 Z " fill="#0B8DF2" transform="translate(875,634)"/>
<path d="M0 0 C0.33 0 0.66 0 1 0 C1.17942163 3.94727588 1.09350689 6.5980513 -1 10 C-1.66 10 -2.32 10 -3 10 C-2.01 6.7 -1.02 3.4 0 0 Z " fill="#0C79D2" transform="translate(733,627)"/>
<path d="M0 0 C0.95904856 3.83619425 0.91892116 5.32431536 0 9 C-0.99 9 -1.98 9 -3 9 C-2.01 6.03 -1.02 3.06 0 0 Z " fill="#011438" transform="translate(759,603)"/>
<path d="M0 0 C1.99097846 2.98646769 2.94124926 5.59687262 4 9 C3.01 9 2.02 9 1 9 C0.67 6.03 0.34 3.06 0 0 Z " fill="#011437" transform="translate(1108,503)"/>
<path d="M0 0 C1.875 0.3125 1.875 0.3125 4 1 C4.66 1.99 5.32 2.98 6 4 C4.35 4.66 2.7 5.32 1 6 C0.67 4.02 0.34 2.04 0 0 Z " fill="#031535" transform="translate(703,466)"/>
<path d="M0 0 C0.66 1.32 1.32 2.64 2 4 C2.66 3.67 3.32 3.34 4 3 C3.34 4.32 2.68 5.64 2 7 C1.34 7 0.68 7 0 7 C-0.33 7.66 -0.66 8.32 -1 9 C-0.67 6.03 -0.34 3.06 0 0 Z " fill="#01204A" transform="translate(602,409)"/>
</svg>
